<svg width="24" height="64" viewBox="0 0 24 64" fill="none" xmlns="http://www.w3.org/2000/svg">
<path d="M10.9393 63.0607C11.5251 63.6464 12.4749 63.6464 13.0607 63.0607L22.6066 53.5147C23.1924 52.9289 23.1924 51.9792 22.6066 51.3934C22.0208 50.8076 21.0711 50.8076 20.4853 51.3934L12 59.8787L3.51472 51.3934C2.92893 50.8076 1.97919 50.8076 1.3934 51.3934C0.807611 51.9792 0.807611 52.9289 1.3934 53.5147L10.9393 63.0607ZM10.5 43L10.5 62H13.5L13.5 43H10.5Z" fill="white"/>
<path d="M10.9393 63.0607C11.5251 63.6464 12.4749 63.6464 13.0607 63.0607L22.6066 53.5147C23.1924 52.9289 23.1924 51.9792 22.6066 51.3934C22.0208 50.8076 21.0711 50.8076 20.4853 51.3934L12 59.8787L3.51472 51.3934C2.92893 50.8076 1.97919 50.8076 1.3934 51.3934C0.807611 51.9792 0.807611 52.9289 1.3934 53.5147L10.9393 63.0607ZM10.5 43L10.5 62H13.5L13.5 43H10.5Z" fill="white"/>
<path d="M10.9393 63.0607C11.5251 63.6464 12.4749 63.6464 13.0607 63.0607L22.6066 53.5147C23.1924 52.9289 23.1924 51.9792 22.6066 51.3934C22.0208 50.8076 21.0711 50.8076 20.4853 51.3934L12 59.8787L3.51472 51.3934C2.92893 50.8076 1.97919 50.8076 1.3934 51.3934C0.807611 51.9792 0.807611 52.9289 1.3934 53.5147L10.9393 63.0607ZM10.5 43L10.5 62H13.5L13.5 43H10.5Z" fill="white"/>
<path d="M10.9393 63.0607C11.5251 63.6464 12.4749 63.6464 13.0607 63.0607L22.6066 53.5147C23.1924 52.9289 23.1924 51.9792 22.6066 51.3934C22.0208 50.8076 21.0711 50.8076 20.4853 51.3934L12 59.8787L3.51472 51.3934C2.92893 50.8076 1.97919 50.8076 1.3934 51.3934C0.807611 51.9792 0.807611 52.9289 1.3934 53.5147L10.9393 63.0607ZM10.5 43L10.5 62H13.5L13.5 43H10.5Z" fill="white"/>
<path d="M13.0607 0.939341C12.4749 0.353554 11.5251 0.353554 10.9393 0.939341L1.3934 10.4853C0.807611 11.0711 0.807611 12.0208 1.3934 12.6066C1.97919 13.1924 2.92893 13.1924 3.51472 12.6066L12 4.12132L20.4853 12.6066C21.0711 13.1924 22.0208 13.1924 22.6066 12.6066C23.1924 12.0208 23.1924 11.0711 22.6066 10.4853L13.0607 0.939341ZM13.5 21L13.5 2H10.5L10.5 21H13.5Z" fill="white"/>
<path d="M13.0607 0.939341C12.4749 0.353554 11.5251 0.353554 10.9393 0.939341L1.3934 10.4853C0.807611 11.0711 0.807611 12.0208 1.3934 12.6066C1.97919 13.1924 2.92893 13.1924 3.51472 12.6066L12 4.12132L20.4853 12.6066C21.0711 13.1924 22.0208 13.1924 22.6066 12.6066C23.1924 12.0208 23.1924 11.0711 22.6066 10.4853L13.0607 0.939341ZM13.5 21L13.5 2H10.5L10.5 21H13.5Z" fill="white"/>
<path d="M13.0607 0.939341C12.4749 0.353554 11.5251 0.353554 10.9393 0.939341L1.3934 10.4853C0.807611 11.0711 0.807611 12.0208 1.3934 12.6066C1.97919 13.1924 2.92893 13.1924 3.51472 12.6066L12 4.12132L20.4853 12.6066C21.0711 13.1924 22.0208 13.1924 22.6066 12.6066C23.1924 12.0208 23.1924 11.0711 22.6066 10.4853L13.0607 0.939341ZM13.5 21L13.5 2H10.5L10.5 21H13.5Z" fill="white"/>
<path d="M13.0607 0.939341C12.4749 0.353554 11.5251 0.353554 10.9393 0.939341L1.3934 10.4853C0.807611 11.0711 0.807611 12.0208 1.3934 12.6066C1.97919 13.1924 2.92893 13.1924 3.51472 12.6066L12 4.12132L20.4853 12.6066C21.0711 13.1924 22.0208 13.1924 22.6066 12.6066C23.1924 12.0208 23.1924 11.0711 22.6066 10.4853L13.0607 0.939341ZM13.5 21L13.5 2H10.5L10.5 21H13.5Z" fill="white"/>
</svg>
