<svg width="33" height="19" viewBox="0 0 33 19" fill="none" xmlns="http://www.w3.org/2000/svg">
<path d="M0.246537 7.48671C-0.116585 7.90284 -0.0736166 8.53454 0.342509 8.89766L7.12367 14.8151C7.5398 15.1782 8.17151 15.1352 8.53463 14.7191C8.89775 14.303 8.85478 13.6713 8.43866 13.3082L2.41095 8.04823L7.67088 2.02053C8.034 1.6044 7.99103 0.972696 7.57491 0.609574C7.15878 0.246452 6.52707 0.28942 6.16395 0.705546L0.246537 7.48671ZM15.9898 7.1447C10.8802 6.98199 7.12462 6.98184 4.64202 7.02267C3.40072 7.04308 2.47766 7.07374 1.86272 7.09945C1.55525 7.1123 1.32481 7.12392 1.17014 7.13239C1.0928 7.13663 1.0344 7.14008 0.994789 7.14252C0.974982 7.14373 0.959871 7.14469 0.949435 7.14537C0.944218 7.1457 0.940169 7.14597 0.937287 7.14616C0.935846 7.14626 0.934696 7.14633 0.933838 7.14639C0.933409 7.14642 0.933053 7.14645 0.932769 7.14646C0.932628 7.14647 0.93247 7.14648 0.932399 7.14649C0.932259 7.1465 0.932137 7.14651 1 8.1442C1.06786 9.1419 1.06778 9.1419 1.06771 9.14191C1.06771 9.14191 1.06766 9.14191 1.06767 9.14191C1.06768 9.14191 1.06776 9.1419 1.06791 9.14189C1.06822 9.14187 1.06881 9.14183 1.06971 9.14177C1.07149 9.14166 1.07443 9.14146 1.07855 9.14119C1.08679 9.14066 1.09971 9.13984 1.11732 9.13876C1.15256 9.1366 1.20659 9.1334 1.27957 9.1294C1.42555 9.1214 1.64736 9.1102 1.94625 9.0977C2.54405 9.07271 3.45023 9.04254 4.67491 9.0224C7.12428 8.98211 10.8477 8.98196 15.9261 9.14369L15.9898 7.1447ZM31.8962 18.1973C32.4283 15.554 30.9044 12.8236 28.1692 10.8072C25.4019 8.76712 21.2425 7.31198 15.9898 7.1447L15.9261 9.14369C20.8614 9.30086 24.6055 10.6648 26.9824 12.417C29.3914 14.1929 30.2525 16.2282 29.9355 17.8027L31.8962 18.1973Z" fill="black"/>
</svg>
