<svg width="20" height="21" viewBox="0 0 20 21" fill="none" xmlns="http://www.w3.org/2000/svg">
<path fill-rule="evenodd" clip-rule="evenodd" d="M13.36 1.886C13.009 1.31 12.515 0.834006 11.927 0.503006C11.338 0.173006 10.675 0 10 0C8.577 0 7.33001 0.754993 6.64001 1.88699C5.98401 1.72799 5.29801 1.74 4.64801 1.922C3.99801 2.104 3.40601 2.45099 2.92801 2.92799C2.45101 3.40599 2.104 3.99799 1.922 4.64799C1.74 5.298 1.72799 5.984 1.88699 6.64C1.31099 6.991 0.833998 7.485 0.503998 8.073C0.172998 8.662 0 9.325 0 10C0 11.423 0.754986 12.669 1.88599 13.36C1.72699 14.016 1.73899 14.702 1.92099 15.352C2.10299 16.002 2.45 16.594 2.927 17.072C3.405 17.549 3.997 17.896 4.647 18.078C5.297 18.26 5.98301 18.272 6.63901 18.113C7.12701 18.915 7.88501 19.515 8.77701 19.807C9.66801 20.098 10.635 20.062 11.502 19.703C12.274 19.383 12.924 18.827 13.36 18.114C14.016 18.274 14.702 18.261 15.352 18.079C16.003 17.897 16.595 17.55 17.072 17.073C17.55 16.595 17.896 16.003 18.079 15.352C18.261 14.702 18.273 14.016 18.113 13.36C18.689 13.009 19.166 12.515 19.496 11.927C19.827 11.338 20 10.675 20 10C20 9.325 19.827 8.662 19.496 8.073C19.166 7.485 18.689 6.991 18.113 6.64C18.272 5.984 18.26 5.298 18.078 4.64799C17.895 3.99799 17.548 3.406 17.071 2.929C16.594 2.452 16.002 2.105 15.352 1.922C14.703 1.739 14.017 1.727 13.361 1.886H13.36ZM9.40201 13.599L13.964 6.755C14.53 5.909 13.213 5.031 12.648 5.877L8.62201 11.92L7.25101 10.552C6.53401 9.83 5.41501 10.948 6.13501 11.668L8.30499 13.818C8.39099 13.876 8.488 13.916 8.59 13.937C8.692 13.957 8.79699 13.957 8.89899 13.936C9.00099 13.916 9.09799 13.876 9.18399 13.817C9.27099 13.759 9.34501 13.686 9.40201 13.599Z" fill="white"/>
</svg>
