<svg width="30" height="30" viewBox="0 0 30 30" fill="none" xmlns="http://www.w3.org/2000/svg">
<rect width="10.6964" height="9.92546" rx="4.96273" transform="matrix(0.707252 -0.706961 0.692456 0.72146 0 22.8392)" fill="#959595"/>
<rect width="8.06104" height="9.92546" transform="matrix(0.707252 -0.706961 0.692456 0.72146 3.39877 19.4418)" fill="#959595"/>
<rect width="2.94538" height="1.39577" transform="matrix(0.707252 -0.706961 0.692456 0.72146 10.6034 15.3094)" fill="#959595"/>
<rect width="2.94538" height="1.39577" transform="matrix(0.707252 -0.706961 0.692456 0.72146 13.503 18.3304)" fill="#959595"/>
<ellipse rx="2.17028" ry="2.17119" transform="matrix(0.707252 -0.706961 0.692456 0.72146 8.26279 21.376)" fill="#434343"/>
<rect width="10.6964" height="9.92546" rx="4.96273" transform="matrix(-0.707252 0.706961 -0.692456 -0.72146 30 7.16083)" fill="#959595"/>
<rect width="8.06104" height="9.92546" transform="matrix(-0.707252 0.706961 -0.692456 -0.72146 26.6012 10.5582)" fill="#959595"/>
<rect width="2.94538" height="1.39577" transform="matrix(-0.707252 0.706961 -0.692456 -0.72146 19.3966 14.6906)" fill="#959595"/>
<rect width="2.94538" height="1.39577" transform="matrix(-0.707252 0.706961 -0.692456 -0.72146 16.497 11.6696)" fill="#959595"/>
<ellipse rx="2.17028" ry="2.17119" transform="matrix(-0.707252 0.706961 -0.692456 -0.72146 21.7372 8.624)" fill="#434343"/>
</svg>
