<svg width="180" height="361" viewBox="0 0 180 361" fill="none" xmlns="http://www.w3.org/2000/svg">
<g filter="url(#filter0_b)">
<rect width="180" height="361" fill="#626364" fill-opacity="0.24"/>
<path d="M15 108.838L23.7969 91L50.1875 91L41.3906 117.393M32.5937 117.393L23.7969 135.231H48.4281" stroke="#636363" stroke-width="4"/>
<line x1="67.7812" y1="133.231" x2="76.5781" y2="133.231" stroke="#636363" stroke-width="4"/>
<line y1="-2" x2="28.656" y2="-2" transform="matrix(0.306982 -0.951715 0.951702 0.307024 76.5781 135.231)" stroke="#636363" stroke-width="4"/>
<line x1="85.375" y1="133.231" x2="94.1719" y2="133.231" stroke="#636363" stroke-width="4"/>
<line x1="92.1719" y1="135.231" x2="92.1719" y2="100.041" stroke="#636363" stroke-width="4"/>
<path d="M102.969 133.911H110.886L102.55 91.4769" stroke="#636363" stroke-width="4"/>
<line x1="17" y1="152.826" x2="17" y2="170.421" stroke="#636363" stroke-width="4"/>
<line y1="-2" x2="19.6683" y2="-2" transform="matrix(0.894628 0.446811 -0.447616 0.894226 15 170.421)" stroke="#636363" stroke-width="4"/>
<line y1="-2" x2="19.6707" y2="-2" transform="matrix(0.894414 -0.447241 0.447186 0.894441 32.5938 196.814)" stroke="#636363" stroke-width="4"/>
<line x1="48.1875" y1="188.016" x2="48.1875" y2="152.826" stroke="#636363" stroke-width="4"/>
<path d="M102.969 161.624L94.1718 152.826L76.5781 152.826L67.7812 170.421H94.1718L76.5781 196.814H94.1718L103.58 187.668" stroke="#636363" stroke-width="4"/>
<path d="M129.359 196.68L129.359 161.624L138.156 152.826M138.156 152.826H164.547M138.156 152.826L164.547 196.68" stroke="#636363" stroke-width="4"/>
<line y1="-2" x2="12.4413" y2="-2" transform="matrix(-0.707082 -0.707131 0.707082 -0.707131 50.1875 223.206)" stroke="#636363" stroke-width="4"/>
<line x1="41.3906" y1="216.409" x2="23.7969" y2="216.409" stroke="#636363" stroke-width="4"/>
<line x1="17" y1="223.206" x2="17" y2="249.599" stroke="#636363" stroke-width="4"/>
<line y1="-2" x2="12.4383" y2="-2" transform="matrix(0.707507 0.706707 -0.707507 0.706707 15 249.599)" stroke="#636363" stroke-width="4"/>
<line x1="23.7969" y1="256.397" x2="41.3906" y2="256.397" stroke="#636363" stroke-width="4"/>
<line y1="-2" x2="12.4411" y2="-2" transform="matrix(0.70708 -0.707134 0.70708 0.707134 41.3906 258.397)" stroke="#636363" stroke-width="4"/>
<path d="M68.2211 232.004L67.7812 249.599L76.5781 258.397M94.1719 258.397L102.969 249.599M76.5781 232.004H94.1719M85.375 232.004L76.5781 214.409M94.1719 214.409L102.969 223.206" stroke="#636363" stroke-width="4"/>
<path d="M129.359 258.262V223.072L138.156 214.275M138.156 223.072L155.75 231.87H164.547V214.275M138.156 231.87L164.547 258.262" stroke="#636363" stroke-width="4"/>
<path d="M138.156 135.232L129.359 126.435M129.359 108.84L138.156 91.2446M155.75 91.0479L164.547 108.84M147.264 117.326L164.547 135.232H155.75" stroke="#636363" stroke-width="4"/>
</g>
<defs>
<filter id="filter0_b" x="-10" y="-10" width="200" height="381" filterUnits="userSpaceOnUse" color-interpolation-filters="sRGB">
<feFlood flood-opacity="0" result="BackgroundImageFix"/>
<feGaussianBlur in="BackgroundImage" stdDeviation="5"/>
<feComposite in2="SourceAlpha" operator="in" result="effect1_backgroundBlur"/>
<feBlend mode="normal" in="SourceGraphic" in2="effect1_backgroundBlur" result="shape"/>
</filter>
</defs>
</svg>
