<svg width="54" height="55" viewBox="0 0 54 55" fill="none" xmlns="http://www.w3.org/2000/svg">
<path d="M1.56738 1.09314C0.751768 1.10848 0.103396 1.80248 0.119204 2.64323L0.376815 16.3441C0.392623 17.1849 1.06663 17.854 1.88224 17.8387C2.69786 17.8233 3.34623 17.1293 3.33042 16.2886L3.10143 4.11002L14.9159 3.88788C15.7315 3.87254 16.3798 3.17854 16.364 2.33779C16.3482 1.49703 15.6742 0.827899 14.8586 0.843235L1.56738 1.09314ZM25.6965 24.4292L2.62003 1.51939L0.57199 3.71154L23.6484 26.6213L25.6965 24.4292Z" fill="white"/>
<path d="M52.1645 54.1146C52.9801 54.0992 53.6285 53.4052 53.6127 52.5645L53.3551 38.8636C53.3393 38.0228 52.6653 37.3537 51.8497 37.369C51.034 37.3844 50.3857 38.0784 50.4015 38.9191L50.6305 51.0977L38.816 51.3198C38.0004 51.3352 37.3521 52.0292 37.3679 52.8699C37.3837 53.7107 38.0577 54.3798 38.8733 54.3645L52.1645 54.1146ZM28.0354 30.7785L51.1119 53.6883L53.1599 51.4962L30.0835 28.5864L28.0354 30.7785Z" fill="white"/>
<path d="M0.464624 52.7332C0.463777 53.574 1.12445 54.2563 1.94028 54.2572L15.235 54.2705C16.0508 54.2714 16.7128 53.5904 16.7137 52.7496C16.7145 51.9087 16.0539 51.2264 15.238 51.2256L3.42053 51.2137L3.4328 39.034C3.43365 38.1931 2.77297 37.5108 1.95715 37.51C1.14132 37.5092 0.47927 38.1902 0.478424 39.031L0.464624 52.7332ZM23.5315 28.3771L0.898366 51.6571L2.98526 53.8123L25.6184 30.5323L23.5315 28.3771Z" fill="white"/>
<path d="M53.0724 2.23795C53.0732 1.39705 52.4127 0.714676 51.5969 0.71382L38.3032 0.699856C37.4874 0.698999 36.8254 1.37999 36.8245 2.22088C36.8236 3.06178 37.4842 3.74415 38.3 3.74501L50.1166 3.75742L50.1038 15.938C50.1029 16.7789 50.7635 17.4613 51.5793 17.4622C52.3951 17.463 53.0571 16.782 53.058 15.9411L53.0724 2.23795ZM29.9821 26.6195L52.6386 3.31412L50.552 1.15867L27.8955 24.464L29.9821 26.6195Z" fill="white"/>
</svg>
