<svg width="34" height="11" viewBox="0 0 34 11" fill="none" xmlns="http://www.w3.org/2000/svg">
<rect width="4" height="11" fill="#1CFF92"/>
<rect x="8" width="4" height="11" fill="#1CFF92"/>
<rect x="17" width="4" height="11" fill="#1CFF92"/>
<rect x="30" width="4" height="11" fill="#1CFF92"/>
<path d="M33.3536 5.35355C33.5488 5.15829 33.5488 4.84171 33.3536 4.64645L30.1716 1.46447C29.9763 1.2692 29.6597 1.2692 29.4645 1.46447C29.2692 1.65973 29.2692 1.97631 29.4645 2.17157L32.2929 5L29.4645 7.82843C29.2692 8.02369 29.2692 8.34027 29.4645 8.53553C29.6597 8.7308 29.9763 8.7308 30.1716 8.53553L33.3536 5.35355ZM25 5.5H33V4.5H25V5.5Z" fill="white" fill-opacity="0.74"/>
<path d="M20.3536 5.35355C20.5488 5.15829 20.5488 4.84171 20.3536 4.64645L17.1716 1.46447C16.9763 1.2692 16.6597 1.2692 16.4645 1.46447C16.2692 1.65973 16.2692 1.97631 16.4645 2.17157L19.2929 5L16.4645 7.82843C16.2692 8.02369 16.2692 8.34027 16.4645 8.53553C16.6597 8.7308 16.9763 8.7308 17.1716 8.53553L20.3536 5.35355ZM12 5.5H20V4.5H12V5.5Z" fill="white" fill-opacity="0.74"/>
</svg>
