<svg width="16" height="8" viewBox="0 0 16 8" fill="none" xmlns="http://www.w3.org/2000/svg">
<path d="M16 4C16 6.20914 12.4183 8 8 8C3.58172 8 0 6.20914 0 4C0 1.79086 3.58172 0 8 0C12.4183 0 16 1.79086 16 4Z" fill="#C4C4C4"/>
<ellipse cx="8" cy="4" rx="3.73333" ry="4" fill="#626262"/>
<path d="M16 4C16 6.20914 12.4183 7 8 7C3.58172 7 0 6.20913 0 3.99999C0 1.79086 3.58172 0 8 0C12.4183 0 16 1.79086 16 4Z" fill="#C4C4C4" fill-opacity="0.9"/>
<line y1="-0.5" x2="9.89949" y2="-0.5" transform="matrix(0.707107 0.707107 -0.629422 0.777064 4 1)" stroke="#3A3A3A"/>
<line y1="-0.5" x2="9.89949" y2="-0.5" transform="matrix(-0.707107 0.707107 0.629422 0.777064 12 1)" stroke="#3A3A3A"/>
</svg>
