<svg width="74" height="75" viewBox="0 0 74 75" fill="none" xmlns="http://www.w3.org/2000/svg">
<rect width="74" height="75" fill="#00FADC"/>
<path d="M66.168 5.73242C65.8464 5.63997 65.612 5.52669 65.4648 5.39258C65.319 5.25716 65.2461 5.09049 65.2461 4.89258C65.2461 4.66862 65.3353 4.48372 65.5137 4.33789C65.6934 4.19076 65.9264 4.11719 66.2129 4.11719C66.4082 4.11719 66.582 4.15495 66.7344 4.23047C66.888 4.30599 67.0065 4.41016 67.0898 4.54297C67.1745 4.67578 67.2168 4.82096 67.2168 4.97852H66.8398C66.8398 4.80664 66.7852 4.67188 66.6758 4.57422C66.5664 4.47526 66.4121 4.42578 66.2129 4.42578C66.028 4.42578 65.8835 4.4668 65.7793 4.54883C65.6764 4.62956 65.625 4.74219 65.625 4.88672C65.625 5.0026 65.6738 5.10091 65.7715 5.18164C65.8704 5.26107 66.0378 5.33398 66.2734 5.40039C66.5104 5.4668 66.6953 5.54036 66.8281 5.62109C66.9622 5.70052 67.0612 5.79362 67.125 5.90039C67.1901 6.00716 67.2227 6.13281 67.2227 6.27734C67.2227 6.50781 67.1328 6.69271 66.9531 6.83203C66.7734 6.97005 66.5332 7.03906 66.2324 7.03906C66.0371 7.03906 65.8548 7.00195 65.6855 6.92773C65.5163 6.85221 65.3854 6.74935 65.293 6.61914C65.2018 6.48893 65.1562 6.34115 65.1562 6.17578H65.5332C65.5332 6.34766 65.5964 6.48372 65.7227 6.58398C65.8503 6.68294 66.0202 6.73242 66.2324 6.73242C66.4303 6.73242 66.582 6.69206 66.6875 6.61133C66.793 6.5306 66.8457 6.42057 66.8457 6.28125C66.8457 6.14193 66.7969 6.03451 66.6992 5.95898C66.6016 5.88216 66.4245 5.80664 66.168 5.73242ZM66.9004 11.2578H65.709L65.4414 12H65.0547L66.1406 9.15625H66.4688L67.5566 12H67.1719L66.9004 11.2578ZM65.8223 10.9492H66.7891L66.3047 9.61914L65.8223 10.9492ZM66.2715 16.502L67.084 14.1562H67.4941L66.4395 17H66.1074L65.0547 14.1562H65.4629L66.2715 16.502ZM66.9375 20.6855H65.7051V21.6934H67.1367V22H65.3301V19.1562H67.1172V19.4648H65.7051V20.3789H66.9375V20.6855Z" fill="black"/>
<rect x="19" width="42" height="26" fill="#2C2C2C"/>
<rect x="48" y="4" width="9" height="16" fill="#00FADC"/>
<rect x="8" y="33" width="58" height="42" fill="#05EED2"/>
<rect x="2" y="62" width="4" height="4" fill="black"/>
<rect x="68" y="62" width="4" height="4" fill="black"/>
</svg>
