<svg width="100" height="100" viewBox="0 0 100 100" fill="none" xmlns="http://www.w3.org/2000/svg">
<path d="M50 25.4064L58.5171 15.5717H41.4829L50 25.4064Z" fill="#93EBFF"/>
<path d="M50 36.8803L58.5171 27.0456H41.4829L50 36.8803Z" fill="#93EBFF"/>
<path d="M50 74.5801L58.5171 84.4149H41.4829L50 74.5801Z" fill="#93EBFF"/>
<path d="M50 63.1063L58.5171 72.941H41.4829L50 63.1063Z" fill="#93EBFF"/>
<line x1="50.1804" x2="50.1804" y2="100" stroke="#93EBFF" stroke-width="2"/>
<path d="M25.4064 50L15.5717 41.4829L15.5717 58.5171L25.4064 50Z" fill="#93EBFF"/>
<path d="M36.8803 50L27.0456 41.4829V58.5171L36.8803 50Z" fill="#93EBFF"/>
<path d="M74.5802 50L84.4149 41.4829V58.5171L74.5802 50Z" fill="#93EBFF"/>
<path d="M63.1063 50L72.941 41.4829V58.5171L63.1063 50Z" fill="#93EBFF"/>
<line y1="49.8196" x2="100" y2="49.8196" stroke="#93EBFF" stroke-width="2"/>
<path d="M32.6097 32.6097L31.678 19.633L19.633 31.678L32.6097 32.6097Z" fill="#93EBFF"/>
<path d="M40.723 40.723L39.7913 27.7462L27.7462 39.7913L40.723 40.723Z" fill="#93EBFF"/>
<path d="M67.3808 67.3808L80.3575 68.3125L68.3125 80.3575L67.3808 67.3808Z" fill="#93EBFF"/>
<path d="M59.2675 59.2675L72.2443 60.1992L60.1992 72.2443L59.2675 59.2675Z" fill="#93EBFF"/>
<line x1="14.7723" y1="14.5171" x2="85.4829" y2="85.2278" stroke="#93EBFF" stroke-width="2"/>
<path d="M67.3903 32.6097L80.367 31.678L68.322 19.633L67.3903 32.6097Z" fill="#93EBFF"/>
<path d="M59.277 40.723L72.2538 39.7913L60.2087 27.7462L59.277 40.723Z" fill="#93EBFF"/>
<path d="M32.6192 67.3808L31.6875 80.3575L19.6425 68.3125L32.6192 67.3808Z" fill="#93EBFF"/>
<path d="M40.7325 59.2675L39.8008 72.2443L27.7557 60.1992L40.7325 59.2675Z" fill="#93EBFF"/>
<line x1="85.4829" y1="14.7722" x2="14.7722" y2="85.4829" stroke="#93EBFF" stroke-width="2"/>
</svg>
