<svg width="58" height="58" viewBox="0 0 58 58" fill="none" xmlns="http://www.w3.org/2000/svg">
<path d="M27.3277 0.954597L18.8217 15.9655L36.1426 15.9414L27.3277 0.954597ZM39.1333 57.1086C39.2668 49.4866 38.3172 44.3971 36.7739 40.8547C35.2058 37.2551 33.0679 35.3535 31.0733 34.0481C30.1587 33.4496 29.1322 32.8947 28.4704 32.4941C27.7264 32.0437 27.2332 31.675 26.8981 31.2649C26.3548 30.6002 25.8999 29.4154 26.8114 26.1446L23.9208 25.3155C22.9159 28.9211 23.1019 31.3399 24.5816 33.1506C25.258 33.9782 26.1217 34.5651 26.9333 35.0565C27.827 35.5975 28.5547 35.9704 29.4459 36.5537C31.063 37.6119 32.7435 39.0904 34.025 42.032C35.3314 45.0307 36.2629 49.6434 36.1335 57.0293L39.1333 57.1086ZM26.8114 26.1446C27.9719 21.9806 28.6208 18.0632 28.9596 14.6117L25.9737 14.2924C25.6495 17.5947 25.0289 21.3393 23.9208 25.3155L26.8114 26.1446Z" fill="#FFF8F8"/>
<path d="M45.9005 1.03818L37.3945 16.0491L54.7154 16.025L45.9005 1.03818ZM57.7061 57.1921C57.8396 49.5701 56.8901 44.4807 55.3468 40.9383C53.7786 37.3387 51.6407 35.4371 49.6461 34.1317C48.7315 33.5332 47.705 32.9783 47.0432 32.5777C46.2993 32.1273 45.806 31.7586 45.4709 31.3485C44.9276 30.6838 44.4727 29.499 45.3842 26.2282L42.4936 25.3991C41.4887 29.0047 41.6747 31.4235 43.1544 33.2342C43.8308 34.0618 44.6945 34.6487 45.5061 35.1401C46.3999 35.6811 47.1275 36.054 48.0187 36.6372C49.6358 37.6955 51.3163 39.174 52.5978 42.1156C53.9042 45.1143 54.8357 49.727 54.7063 57.1129L57.7061 57.1921ZM45.3842 26.2282C46.5447 22.0642 47.1936 18.1468 47.5324 14.6953L44.5465 14.376C44.2224 17.6783 43.6018 21.4229 42.4936 25.3991L45.3842 26.2282Z" fill="#FFF8F8"/>
<path d="M8.90053 1.03818L0.394492 16.0491L17.7154 16.025L8.90053 1.03818ZM20.7061 57.1921C20.8396 49.5701 19.8901 44.4807 18.3468 40.9383C16.7786 37.3387 14.6407 35.4371 12.6461 34.1317C11.7315 33.5332 10.705 32.9783 10.0432 32.5777C9.29926 32.1273 8.80599 31.7586 8.47089 31.3485C7.92763 30.6838 7.47268 29.499 8.38424 26.2282L5.4936 25.3991C4.48872 29.0047 4.6747 31.4235 6.15439 33.2342C6.83077 34.0618 7.69448 34.6487 8.50611 35.1401C9.39986 35.6811 10.1275 36.054 11.0187 36.6372C12.6358 37.6955 14.3163 39.174 15.5978 42.1156C16.9042 45.1143 17.8357 49.727 17.7063 57.1129L20.7061 57.1921ZM8.38424 26.2282C9.54474 22.0642 10.1936 18.1468 10.5324 14.6953L7.54653 14.376C7.22236 17.6783 6.60176 21.4229 5.4936 25.3991L8.38424 26.2282Z" fill="#FFF8F8"/>
</svg>
