<svg width="87" height="43" viewBox="0 0 87 43" fill="none" xmlns="http://www.w3.org/2000/svg">
<path d="M46.9223 20.6846L45.6272 21.4414L45.6272 21.4414L46.9223 20.6846ZM87 31.4843L70.6661 25.722L73.8427 42.7487L87 31.4843ZM3.04077 32.5645C8.78086 27.0338 13.6421 22.3194 17.9215 18.6598C22.2172 14.9863 25.7971 12.4919 28.9551 11.2984C32.0268 10.1376 34.634 10.2261 37.1816 11.6702C39.836 13.1749 42.5891 16.2419 45.6272 21.4414L48.2174 19.9279C45.0896 14.5748 42.0073 10.9572 38.661 9.06038C35.208 7.10303 31.6494 7.07314 27.8946 8.49213C24.2262 9.87848 20.3191 12.6621 15.9717 16.3798C11.6079 20.1116 6.66992 24.9018 0.959227 30.4041L3.04077 32.5645ZM45.6272 21.4414C52.7234 33.5864 64.6531 35.8529 73.7959 35.4584L73.6666 32.4612C65.059 32.8326 54.5113 30.6997 48.2174 19.9279L45.6272 21.4414Z" fill="#FFF8F8"/>
<path d="M46.9223 22.3154L45.6272 21.5586L45.6272 21.5586L46.9223 22.3154ZM87 11.5157L70.6661 17.278L73.8427 0.25132L87 11.5157ZM3.04077 10.4355C8.78086 15.9662 13.6421 20.6806 17.9215 24.3402C22.2172 28.0137 25.7971 30.5081 28.9551 31.7016C32.0268 32.8624 34.634 32.7739 37.1816 31.3298C39.836 29.8251 42.5891 26.7581 45.6272 21.5586L48.2174 23.0721C45.0896 28.4252 42.0073 32.0428 38.661 33.9396C35.208 35.897 31.6494 35.9269 27.8946 34.5079C24.2262 33.1215 20.3191 30.3379 15.9717 26.6202C11.6079 22.8884 6.66992 18.0982 0.959227 12.5959L3.04077 10.4355ZM45.6272 21.5586C52.7234 9.41363 64.6531 7.14706 73.7959 7.5416L73.6666 10.5388C65.059 10.1674 54.5113 12.3003 48.2174 23.0721L45.6272 21.5586Z" fill="#FFF8F8"/>
</svg>
