<svg width="240" height="241" viewBox="0 0 240 241" fill="none" xmlns="http://www.w3.org/2000/svg">
<g filter="url(#filter0_f)">
<ellipse cx="156.901" cy="121.594" rx="73.099" ry="75.8548" fill="#3D05DE" fill-opacity="0.07"/>
<ellipse cx="156.901" cy="121.594" rx="73.099" ry="75.8548" fill="#193DFA" fill-opacity="0.37"/>
<ellipse cx="156.901" cy="121.594" rx="73.099" ry="75.8548" fill="#193DFA" fill-opacity="0.37"/>
</g>
<g filter="url(#filter1_f)">
<ellipse cx="121.054" cy="85.8548" rx="73.099" ry="75.8548" fill="#3D05DE" fill-opacity="0.07"/>
<ellipse cx="121.054" cy="85.8548" rx="73.099" ry="75.8548" fill="#193DFA" fill-opacity="0.37"/>
<ellipse cx="121.054" cy="85.8548" rx="73.099" ry="75.8548" fill="#3500CD" fill-opacity="0.06"/>
</g>
<g filter="url(#filter2_f)">
<ellipse cx="83.099" cy="121.594" rx="73.099" ry="75.8548" fill="#3D05DE" fill-opacity="0.06"/>
<ellipse cx="83.099" cy="121.594" rx="73.099" ry="75.8548" fill="#193DFA" fill-opacity="0.37"/>
<ellipse cx="83.099" cy="121.594" rx="73.099" ry="75.8548" fill="#3200C0" fill-opacity="0.06"/>
</g>
<g filter="url(#filter3_f)">
<ellipse cx="121.757" cy="155.145" rx="73.099" ry="75.8548" fill="#8A6AE6" fill-opacity="0.06"/>
<ellipse cx="121.757" cy="155.145" rx="73.099" ry="75.8548" fill="#193DFA" fill-opacity="0.37"/>
<ellipse cx="121.757" cy="155.145" rx="73.099" ry="75.8548" fill="#2D00AC" fill-opacity="0.1"/>
</g>
<g filter="url(#filter4_f)">
<rect width="67.6164" height="43.7896" transform="matrix(-1 0 -0.329218 0.944254 192.901 137.482)" fill="#BA2828" fill-opacity="0.31"/>
<rect width="67.6164" height="43.7896" transform="matrix(-1 0 -0.329218 0.944254 149.291 63.9736)" fill="#BA2828" fill-opacity="0.31"/>
<rect width="38.947" height="76.0237" transform="matrix(-1 0 -0.329218 0.944254 134.274 107.045)" fill="#BA2828" fill-opacity="0.31"/>
<rect width="38.947" height="76.0237" transform="matrix(-1 0 -0.329218 0.944254 189.861 63.9736)" fill="#BA2828" fill-opacity="0.31"/>
</g>
<rect width="67.6164" height="43.7896" transform="matrix(-1 0 -0.329218 0.944254 188.684 134.565)" fill="#26F2FF" fill-opacity="0.56"/>
<rect width="67.6164" height="43.7896" transform="matrix(-1 0 -0.329218 0.944254 145.074 61.0561)" fill="#26F2FF" fill-opacity="0.56"/>
<rect width="38.947" height="76.0237" transform="matrix(-1 0 -0.329218 0.944254 130.057 104.128)" fill="#26F2FF" fill-opacity="0.56"/>
<rect width="38.947" height="76.0237" transform="matrix(-1 0 -0.329218 0.944254 185.644 61.0561)" fill="#26F2FF" fill-opacity="0.56"/>
<g filter="url(#filter5_f)">
<rect width="67.6164" height="43.7896" transform="matrix(-1 0 -0.329218 0.944254 173.924 146.235)" fill="#A6FFBF" fill-opacity="0.21"/>
<rect width="67.6164" height="43.7896" transform="matrix(-1 0 -0.329218 0.944254 130.314 72.7261)" fill="#A6FFBF" fill-opacity="0.21"/>
<rect width="38.947" height="76.0237" transform="matrix(-1 0 -0.329218 0.944254 115.297 115.797)" fill="#A6FFBF" fill-opacity="0.21"/>
<rect width="38.947" height="76.0237" transform="matrix(-1 0 -0.329218 0.944254 170.883 72.7261)" fill="#A6FFBF" fill-opacity="0.21"/>
</g>
<defs>
<filter id="filter0_f" x="73.8019" y="35.7393" width="166.198" height="171.71" filterUnits="userSpaceOnUse" color-interpolation-filters="sRGB">
<feFlood flood-opacity="0" result="BackgroundImageFix"/>
<feBlend mode="normal" in="SourceGraphic" in2="BackgroundImageFix" result="shape"/>
<feGaussianBlur stdDeviation="5" result="effect1_foregroundBlur"/>
</filter>
<filter id="filter1_f" x="37.9553" y="0" width="166.198" height="171.71" filterUnits="userSpaceOnUse" color-interpolation-filters="sRGB">
<feFlood flood-opacity="0" result="BackgroundImageFix"/>
<feBlend mode="normal" in="SourceGraphic" in2="BackgroundImageFix" result="shape"/>
<feGaussianBlur stdDeviation="5" result="effect1_foregroundBlur"/>
</filter>
<filter id="filter2_f" x="0" y="35.7393" width="166.198" height="171.71" filterUnits="userSpaceOnUse" color-interpolation-filters="sRGB">
<feFlood flood-opacity="0" result="BackgroundImageFix"/>
<feBlend mode="normal" in="SourceGraphic" in2="BackgroundImageFix" result="shape"/>
<feGaussianBlur stdDeviation="5" result="effect1_foregroundBlur"/>
</filter>
<filter id="filter3_f" x="38.6581" y="69.2904" width="166.198" height="171.71" filterUnits="userSpaceOnUse" color-interpolation-filters="sRGB">
<feFlood flood-opacity="0" result="BackgroundImageFix"/>
<feBlend mode="normal" in="SourceGraphic" in2="BackgroundImageFix" result="shape"/>
<feGaussianBlur stdDeviation="5" result="effect1_foregroundBlur"/>
</filter>
<filter id="filter4_f" x="59.2585" y="55.9736" width="141.643" height="130.857" filterUnits="userSpaceOnUse" color-interpolation-filters="sRGB">
<feFlood flood-opacity="0" result="BackgroundImageFix"/>
<feBlend mode="normal" in="SourceGraphic" in2="BackgroundImageFix" result="shape"/>
<feGaussianBlur stdDeviation="4" result="effect1_foregroundBlur"/>
</filter>
<filter id="filter5_f" x="40.2808" y="64.7261" width="141.643" height="130.857" filterUnits="userSpaceOnUse" color-interpolation-filters="sRGB">
<feFlood flood-opacity="0" result="BackgroundImageFix"/>
<feBlend mode="normal" in="SourceGraphic" in2="BackgroundImageFix" result="shape"/>
<feGaussianBlur stdDeviation="4" result="effect1_foregroundBlur"/>
</filter>
</defs>
</svg>
