<svg width="638" height="97" viewBox="0 0 638 97" fill="none" xmlns="http://www.w3.org/2000/svg">
<rect width="109" height="97" fill="white"/>
<path d="M29.5039 48.1973C28.5391 47.9199 27.8359 47.5801 27.3945 47.1777C26.957 46.7715 26.7383 46.2715 26.7383 45.6777C26.7383 45.0059 27.0059 44.4512 27.541 44.0137C28.0801 43.5723 28.7793 43.3516 29.6387 43.3516C30.2246 43.3516 30.7461 43.4648 31.2031 43.6914C31.6641 43.918 32.0195 44.2305 32.2695 44.6289C32.5234 45.0273 32.6504 45.4629 32.6504 45.9355H31.5195C31.5195 45.4199 31.3555 45.0156 31.0273 44.7227C30.6992 44.4258 30.2363 44.2773 29.6387 44.2773C29.084 44.2773 28.6504 44.4004 28.3379 44.6465C28.0293 44.8887 27.875 45.2266 27.875 45.6602C27.875 46.0078 28.0215 46.3027 28.3145 46.5449C28.6113 46.7832 29.1133 47.002 29.8203 47.2012C30.5312 47.4004 31.0859 47.6211 31.4844 47.8633C31.8867 48.1016 32.1836 48.3809 32.375 48.7012C32.5703 49.0215 32.668 49.3984 32.668 49.832C32.668 50.5234 32.3984 51.0781 31.8594 51.4961C31.3203 51.9102 30.5996 52.1172 29.6973 52.1172C29.1113 52.1172 28.5645 52.0059 28.0566 51.7832C27.5488 51.5566 27.1562 51.248 26.8789 50.8574C26.6055 50.4668 26.4688 50.0234 26.4688 49.5273H27.5996C27.5996 50.043 27.7891 50.4512 28.168 50.752C28.5508 51.0488 29.0605 51.1973 29.6973 51.1973C30.291 51.1973 30.7461 51.0762 31.0625 50.834C31.3789 50.5918 31.5371 50.2617 31.5371 49.8438C31.5371 49.4258 31.3906 49.1035 31.0977 48.877C30.8047 48.6465 30.2734 48.4199 29.5039 48.1973ZM36.5762 52.1172C35.7168 52.1172 35.0176 51.8359 34.4785 51.2734C33.9395 50.707 33.6699 49.9512 33.6699 49.0059V48.8066C33.6699 48.1777 33.7891 47.6172 34.0273 47.125C34.2695 46.6289 34.6055 46.2422 35.0352 45.9648C35.4688 45.6836 35.9375 45.543 36.4414 45.543C37.2656 45.543 37.9062 45.8145 38.3633 46.3574C38.8203 46.9004 39.0488 47.6777 39.0488 48.6895V49.1406H34.7539C34.7695 49.7656 34.9512 50.2715 35.2988 50.6582C35.6504 51.041 36.0957 51.2324 36.6348 51.2324C37.0176 51.2324 37.3418 51.1543 37.6074 50.998C37.873 50.8418 38.1055 50.6348 38.3047 50.377L38.9668 50.8926C38.4355 51.709 37.6387 52.1172 36.5762 52.1172ZM36.4414 46.4336C36.0039 46.4336 35.6367 46.5938 35.3398 46.9141C35.043 47.2305 34.8594 47.6758 34.7891 48.25H37.9648V48.168C37.9336 47.6172 37.7852 47.1914 37.5195 46.8906C37.2539 46.5859 36.8945 46.4336 36.4414 46.4336ZM40.0449 48.7773C40.0449 47.7812 40.2734 46.9941 40.7305 46.416C41.1875 45.834 41.8008 45.543 42.5703 45.543C43.3203 45.543 43.9121 45.7949 44.3457 46.2988L44.3926 45.6602H45.3887V54.4375H44.3047V51.4141C43.8672 51.8828 43.2852 52.1172 42.5586 52.1172C41.793 52.1172 41.1816 51.8203 40.7246 51.2266C40.2715 50.6289 40.0449 49.8379 40.0449 48.8535V48.7773ZM41.1289 48.9004C41.1289 49.627 41.2812 50.1973 41.5859 50.6113C41.8945 51.0254 42.3086 51.2324 42.8281 51.2324C43.4727 51.2324 43.9648 50.9473 44.3047 50.377V47.2715C43.9609 46.7129 43.4727 46.4336 42.8398 46.4336C42.3164 46.4336 41.9004 46.6426 41.5918 47.0605C41.2832 47.4746 41.1289 48.0879 41.1289 48.9004ZM51.043 51.373C50.6211 51.8691 50.002 52.1172 49.1855 52.1172C48.5098 52.1172 47.9941 51.9219 47.6387 51.5312C47.2871 51.1367 47.1094 50.5547 47.1055 49.7852V45.6602H48.1895V49.7559C48.1895 50.7168 48.5801 51.1973 49.3613 51.1973C50.1895 51.1973 50.7402 50.8887 51.0137 50.2715V45.6602H52.0977V52H51.0664L51.043 51.373ZM56.3809 52.1172C55.5215 52.1172 54.8223 51.8359 54.2832 51.2734C53.7441 50.707 53.4746 49.9512 53.4746 49.0059V48.8066C53.4746 48.1777 53.5938 47.6172 53.832 47.125C54.0742 46.6289 54.4102 46.2422 54.8398 45.9648C55.2734 45.6836 55.7422 45.543 56.2461 45.543C57.0703 45.543 57.7109 45.8145 58.168 46.3574C58.625 46.9004 58.8535 47.6777 58.8535 48.6895V49.1406H54.5586C54.5742 49.7656 54.7559 50.2715 55.1035 50.6582C55.4551 51.041 55.9004 51.2324 56.4395 51.2324C56.8223 51.2324 57.1465 51.1543 57.4121 50.998C57.6777 50.8418 57.9102 50.6348 58.1094 50.377L58.7715 50.8926C58.2402 51.709 57.4434 52.1172 56.3809 52.1172ZM56.2461 46.4336C55.8086 46.4336 55.4414 46.5938 55.1445 46.9141C54.8477 47.2305 54.6641 47.6758 54.5938 48.25H57.7695V48.168C57.7383 47.6172 57.5898 47.1914 57.3242 46.8906C57.0586 46.5859 56.6992 46.4336 56.2461 46.4336ZM61.1387 45.6602L61.1738 46.457C61.6582 45.8477 62.291 45.543 63.0723 45.543C64.4121 45.543 65.0879 46.2988 65.0996 47.8105V52H64.0156V47.8047C64.0117 47.3477 63.9062 47.0098 63.6992 46.791C63.4961 46.5723 63.1777 46.4629 62.7441 46.4629C62.3926 46.4629 62.084 46.5566 61.8184 46.7441C61.5527 46.9316 61.3457 47.1777 61.1973 47.4824V52H60.1133V45.6602H61.1387ZM69.2773 51.2324C69.6641 51.2324 70.002 51.1152 70.291 50.8809C70.5801 50.6465 70.7402 50.3535 70.7715 50.002H71.7969C71.7773 50.3652 71.6523 50.7109 71.4219 51.0391C71.1914 51.3672 70.8828 51.6289 70.4961 51.8242C70.1133 52.0195 69.707 52.1172 69.2773 52.1172C68.4141 52.1172 67.7266 51.8301 67.2148 51.2559C66.707 50.6777 66.4531 49.8887 66.4531 48.8887V48.707C66.4531 48.0898 66.5664 47.541 66.793 47.0605C67.0195 46.5801 67.3438 46.207 67.7656 45.9414C68.1914 45.6758 68.6934 45.543 69.2715 45.543C69.9824 45.543 70.5723 45.7559 71.041 46.1816C71.5137 46.6074 71.7656 47.1602 71.7969 47.8398H70.7715C70.7402 47.4297 70.584 47.0938 70.3027 46.832C70.0254 46.5664 69.6816 46.4336 69.2715 46.4336C68.7207 46.4336 68.293 46.6328 67.9883 47.0312C67.6875 47.4258 67.5371 47.998 67.5371 48.748V48.9531C67.5371 49.6836 67.6875 50.2461 67.9883 50.6406C68.2891 51.0352 68.7188 51.2324 69.2773 51.2324ZM75.6465 52.1172C74.7871 52.1172 74.0879 51.8359 73.5488 51.2734C73.0098 50.707 72.7402 49.9512 72.7402 49.0059V48.8066C72.7402 48.1777 72.8594 47.6172 73.0977 47.125C73.3398 46.6289 73.6758 46.2422 74.1055 45.9648C74.5391 45.6836 75.0078 45.543 75.5117 45.543C76.3359 45.543 76.9766 45.8145 77.4336 46.3574C77.8906 46.9004 78.1191 47.6777 78.1191 48.6895V49.1406H73.8242C73.8398 49.7656 74.0215 50.2715 74.3691 50.6582C74.7207 51.041 75.166 51.2324 75.7051 51.2324C76.0879 51.2324 76.4121 51.1543 76.6777 50.998C76.9434 50.8418 77.1758 50.6348 77.375 50.377L78.0371 50.8926C77.5059 51.709 76.709 52.1172 75.6465 52.1172ZM75.5117 46.4336C75.0742 46.4336 74.707 46.5938 74.4102 46.9141C74.1133 47.2305 73.9297 47.6758 73.8594 48.25H77.0352V48.168C77.0039 47.6172 76.8555 47.1914 76.5898 46.8906C76.3242 46.5859 75.9648 46.4336 75.5117 46.4336ZM82.4434 46.6328C82.2793 46.6055 82.1016 46.5918 81.9102 46.5918C81.1992 46.5918 80.7168 46.8945 80.4629 47.5V52H79.3789V45.6602H80.4336L80.4512 46.3926C80.8066 45.8262 81.3105 45.543 81.9629 45.543C82.1738 45.543 82.334 45.5703 82.4434 45.625V46.6328Z" fill="black"/>
<path d="M180.061 48.0607C180.646 47.4749 180.646 46.5251 180.061 45.9393L170.515 36.3934C169.929 35.8076 168.979 35.8076 168.393 36.3934C167.808 36.9792 167.808 37.9289 168.393 38.5147L176.879 47L168.393 55.4853C167.808 56.0711 167.808 57.0208 168.393 57.6066C168.979 58.1924 169.929 58.1924 170.515 57.6066L180.061 48.0607ZM109 48.5H179V45.5H109V48.5Z" fill="white"/>
<circle cx="221.5" cy="48.5" r="42.5" fill="white"/>
<path d="M198.443 43.4688L201.232 50.4297L204.021 43.4688H205.48V52H204.355V48.6777L204.461 45.0918L201.66 52H200.799L198.004 45.1094L198.115 48.6777V52H196.99V43.4688H198.443ZM208.674 52H207.549V43.4688H208.674V52ZM210.736 52V43.4688H213.145C213.887 43.4688 214.543 43.6328 215.113 43.9609C215.684 44.2891 216.123 44.7559 216.432 45.3613C216.744 45.9668 216.902 46.6621 216.906 47.4473V47.9922C216.906 48.7969 216.75 49.502 216.438 50.1074C216.129 50.7129 215.686 51.1777 215.107 51.502C214.533 51.8262 213.863 51.9922 213.098 52H210.736ZM211.861 44.3945V51.0801H213.045C213.912 51.0801 214.586 50.8105 215.066 50.2715C215.551 49.7324 215.793 48.9648 215.793 47.9688V47.4707C215.793 46.502 215.564 45.75 215.107 45.2148C214.654 44.6758 214.01 44.4023 213.174 44.3945H211.861ZM219.818 52H218.693V43.4688H219.818V52ZM229.562 48.2324H225.982V52H224.857V43.4688H230.143V44.3945H225.982V47.3125H229.562V48.2324ZM234.273 46.7383L236.318 43.4688H237.643L234.947 47.6992L237.707 52H236.371L234.273 48.6719L232.164 52H230.834L233.6 47.6992L230.898 43.4688H232.217L234.273 46.7383ZM245.271 52H244.182V44.7754L241.996 45.5781V44.5938L245.102 43.4277H245.271V52Z" fill="black"/>
<circle cx="394.5" cy="47.5" r="42.5" fill="white"/>
<path d="M371.443 42.4688L374.232 49.4297L377.021 42.4688H378.48V51H377.355V47.6777L377.461 44.0918L374.66 51H373.799L371.004 44.1094L371.115 47.6777V51H369.99V42.4688H371.443ZM381.674 51H380.549V42.4688H381.674V51ZM383.736 51V42.4688H386.145C386.887 42.4688 387.543 42.6328 388.113 42.9609C388.684 43.2891 389.123 43.7559 389.432 44.3613C389.744 44.9668 389.902 45.6621 389.906 46.4473V46.9922C389.906 47.7969 389.75 48.502 389.438 49.1074C389.129 49.7129 388.686 50.1777 388.107 50.502C387.533 50.8262 386.863 50.9922 386.098 51H383.736ZM384.861 43.3945V50.0801H386.045C386.912 50.0801 387.586 49.8105 388.066 49.2715C388.551 48.7324 388.793 47.9648 388.793 46.9688V46.4707C388.793 45.502 388.564 44.75 388.107 44.2148C387.654 43.6758 387.01 43.4023 386.174 43.3945H384.861ZM392.818 51H391.693V42.4688H392.818V51ZM402.562 47.2324H398.982V51H397.857V42.4688H403.143V43.3945H398.982V46.3125H402.562V47.2324ZM407.273 45.7383L409.318 42.4688H410.643L407.947 46.6992L410.707 51H409.371L407.273 47.6719L405.164 51H403.834L406.6 46.6992L403.898 42.4688H405.217L407.273 45.7383ZM420.299 51H414.709V50.2207L417.662 46.9395C418.1 46.4434 418.4 46.041 418.564 45.7324C418.732 45.4199 418.816 45.0977 418.816 44.7656C418.816 44.3203 418.682 43.9551 418.412 43.6699C418.143 43.3848 417.783 43.2422 417.334 43.2422C416.795 43.2422 416.375 43.3965 416.074 43.7051C415.777 44.0098 415.629 44.4355 415.629 44.9824H414.545C414.545 44.1973 414.797 43.5625 415.301 43.0781C415.809 42.5938 416.486 42.3516 417.334 42.3516C418.127 42.3516 418.754 42.5605 419.215 42.9785C419.676 43.3926 419.906 43.9453 419.906 44.6367C419.906 45.4766 419.371 46.4766 418.301 47.6367L416.016 50.1152H420.299V51Z" fill="black"/>
<path d="M126.885 29.3945H124.143V37H123.023V29.3945H120.287V28.4688H126.885V29.3945ZM130.6 31.6328C130.436 31.6055 130.258 31.5918 130.066 31.5918C129.355 31.5918 128.873 31.8945 128.619 32.5V37H127.535V30.6602H128.59L128.607 31.3926C128.963 30.8262 129.467 30.543 130.119 30.543C130.33 30.543 130.49 30.5703 130.6 30.625V31.6328ZM132.779 37H131.695V30.6602H132.779V37ZM131.607 28.9785C131.607 28.8027 131.66 28.6543 131.766 28.5332C131.875 28.4121 132.035 28.3516 132.246 28.3516C132.457 28.3516 132.617 28.4121 132.727 28.5332C132.836 28.6543 132.891 28.8027 132.891 28.9785C132.891 29.1543 132.836 29.3008 132.727 29.418C132.617 29.5352 132.457 29.5938 132.246 29.5938C132.035 29.5938 131.875 29.5352 131.766 29.418C131.66 29.3008 131.607 29.1543 131.607 28.9785ZM134.262 33.7773C134.262 32.7891 134.49 32.0039 134.947 31.4219C135.404 30.8359 136.01 30.543 136.764 30.543C137.537 30.543 138.141 30.8164 138.574 31.3633L138.627 30.6602H139.617V36.8477C139.617 37.668 139.373 38.3145 138.885 38.7871C138.4 39.2598 137.748 39.4961 136.928 39.4961C136.471 39.4961 136.023 39.3984 135.586 39.2031C135.148 39.0078 134.814 38.7402 134.584 38.4004L135.146 37.75C135.611 38.3242 136.18 38.6113 136.852 38.6113C137.379 38.6113 137.789 38.4629 138.082 38.166C138.379 37.8691 138.527 37.4512 138.527 36.9121V36.3672C138.094 36.8672 137.502 37.1172 136.752 37.1172C136.01 37.1172 135.408 36.8184 134.947 36.2207C134.49 35.623 134.262 34.8086 134.262 33.7773ZM135.352 33.9004C135.352 34.6152 135.498 35.1777 135.791 35.5879C136.084 35.9941 136.494 36.1973 137.021 36.1973C137.705 36.1973 138.207 35.8867 138.527 35.2656V32.3711C138.195 31.7656 137.697 31.4629 137.033 31.4629C136.506 31.4629 136.094 31.668 135.797 32.0781C135.5 32.4883 135.352 33.0957 135.352 33.9004ZM141 33.7773C141 32.7891 141.229 32.0039 141.686 31.4219C142.143 30.8359 142.748 30.543 143.502 30.543C144.275 30.543 144.879 30.8164 145.312 31.3633L145.365 30.6602H146.355V36.8477C146.355 37.668 146.111 38.3145 145.623 38.7871C145.139 39.2598 144.486 39.4961 143.666 39.4961C143.209 39.4961 142.762 39.3984 142.324 39.2031C141.887 39.0078 141.553 38.7402 141.322 38.4004L141.885 37.75C142.35 38.3242 142.918 38.6113 143.59 38.6113C144.117 38.6113 144.527 38.4629 144.82 38.166C145.117 37.8691 145.266 37.4512 145.266 36.9121V36.3672C144.832 36.8672 144.24 37.1172 143.49 37.1172C142.748 37.1172 142.146 36.8184 141.686 36.2207C141.229 35.623 141 34.8086 141 33.7773ZM142.09 33.9004C142.09 34.6152 142.236 35.1777 142.529 35.5879C142.822 35.9941 143.232 36.1973 143.76 36.1973C144.443 36.1973 144.945 35.8867 145.266 35.2656V32.3711C144.934 31.7656 144.436 31.4629 143.771 31.4629C143.244 31.4629 142.832 31.668 142.535 32.0781C142.238 32.4883 142.09 33.0957 142.09 33.9004ZM150.627 37.1172C149.768 37.1172 149.068 36.8359 148.529 36.2734C147.99 35.707 147.721 34.9512 147.721 34.0059V33.8066C147.721 33.1777 147.84 32.6172 148.078 32.125C148.32 31.6289 148.656 31.2422 149.086 30.9648C149.52 30.6836 149.988 30.543 150.492 30.543C151.316 30.543 151.957 30.8145 152.414 31.3574C152.871 31.9004 153.1 32.6777 153.1 33.6895V34.1406H148.805C148.82 34.7656 149.002 35.2715 149.35 35.6582C149.701 36.041 150.146 36.2324 150.686 36.2324C151.068 36.2324 151.393 36.1543 151.658 35.998C151.924 35.8418 152.156 35.6348 152.355 35.377L153.018 35.8926C152.486 36.709 151.689 37.1172 150.627 37.1172ZM150.492 31.4336C150.055 31.4336 149.688 31.5938 149.391 31.9141C149.094 32.2305 148.91 32.6758 148.84 33.25H152.016V33.168C151.984 32.6172 151.836 32.1914 151.57 31.8906C151.305 31.5859 150.945 31.4336 150.492 31.4336ZM157.424 31.6328C157.26 31.6055 157.082 31.5918 156.891 31.5918C156.18 31.5918 155.697 31.8945 155.443 32.5V37H154.359V30.6602H155.414L155.432 31.3926C155.787 30.8262 156.291 30.543 156.943 30.543C157.154 30.543 157.314 30.5703 157.424 30.625V31.6328ZM162.117 35.3184C162.117 35.0254 162.006 34.7988 161.783 34.6387C161.564 34.4746 161.18 34.334 160.629 34.2168C160.082 34.0996 159.646 33.959 159.322 33.7949C159.002 33.6309 158.764 33.4355 158.607 33.209C158.455 32.9824 158.379 32.7129 158.379 32.4004C158.379 31.8809 158.598 31.4414 159.035 31.082C159.477 30.7227 160.039 30.543 160.723 30.543C161.441 30.543 162.023 30.7285 162.469 31.0996C162.918 31.4707 163.143 31.9453 163.143 32.5234H162.053C162.053 32.2266 161.926 31.9707 161.672 31.7559C161.422 31.541 161.105 31.4336 160.723 31.4336C160.328 31.4336 160.02 31.5195 159.797 31.6914C159.574 31.8633 159.463 32.0879 159.463 32.3652C159.463 32.627 159.566 32.8242 159.773 32.957C159.98 33.0898 160.354 33.2168 160.893 33.3379C161.436 33.459 161.875 33.6035 162.211 33.7715C162.547 33.9395 162.795 34.1426 162.955 34.3809C163.119 34.6152 163.201 34.9023 163.201 35.2422C163.201 35.8086 162.975 36.2637 162.521 36.6074C162.068 36.9473 161.48 37.1172 160.758 37.1172C160.25 37.1172 159.801 37.0273 159.41 36.8477C159.02 36.668 158.713 36.418 158.49 36.0977C158.271 35.7734 158.162 35.4238 158.162 35.0488H159.246C159.266 35.4121 159.41 35.7012 159.68 35.916C159.953 36.127 160.312 36.2324 160.758 36.2324C161.168 36.2324 161.496 36.1504 161.742 35.9863C161.992 35.8184 162.117 35.5957 162.117 35.3184Z" fill="white"/>
<path d="M352.061 49.0607C352.646 48.4749 352.646 47.5251 352.061 46.9393L342.515 37.3934C341.929 36.8076 340.979 36.8076 340.393 37.3934C339.808 37.9792 339.808 38.9289 340.393 39.5147L348.879 48L340.393 56.4853C339.808 57.0711 339.808 58.0208 340.393 58.6066C340.979 59.1924 341.929 59.1924 342.515 58.6066L352.061 49.0607ZM264 49.5H351V46.5H264V49.5Z" fill="white"/>
<path d="M271.885 16.3945H269.143V24H268.023V16.3945H265.287V15.4688H271.885V16.3945ZM275.6 18.6328C275.436 18.6055 275.258 18.5918 275.066 18.5918C274.355 18.5918 273.873 18.8945 273.619 19.5V24H272.535V17.6602H273.59L273.607 18.3926C273.963 17.8262 274.467 17.543 275.119 17.543C275.33 17.543 275.49 17.5703 275.6 17.625V18.6328ZM280.281 24C280.219 23.875 280.168 23.6523 280.129 23.332C279.625 23.8555 279.023 24.1172 278.324 24.1172C277.699 24.1172 277.186 23.9414 276.783 23.5898C276.385 23.2344 276.186 22.7852 276.186 22.2422C276.186 21.582 276.436 21.0703 276.936 20.707C277.439 20.3398 278.146 20.1562 279.057 20.1562H280.111V19.6582C280.111 19.2793 279.998 18.9785 279.771 18.7559C279.545 18.5293 279.211 18.416 278.77 18.416C278.383 18.416 278.059 18.5137 277.797 18.709C277.535 18.9043 277.404 19.1406 277.404 19.418H276.314C276.314 19.1016 276.426 18.7969 276.648 18.5039C276.875 18.207 277.18 17.9727 277.562 17.8008C277.949 17.6289 278.373 17.543 278.834 17.543C279.564 17.543 280.137 17.7266 280.551 18.0938C280.965 18.457 281.18 18.959 281.195 19.5996V22.5176C281.195 23.0996 281.27 23.5625 281.418 23.9062V24H280.281ZM278.482 23.1738C278.822 23.1738 279.145 23.0859 279.449 22.9102C279.754 22.7344 279.975 22.5059 280.111 22.2246V20.9238H279.262C277.934 20.9238 277.27 21.3125 277.27 22.0898C277.27 22.4297 277.383 22.6953 277.609 22.8867C277.836 23.0781 278.127 23.1738 278.482 23.1738ZM283.92 17.6602L283.955 18.457C284.439 17.8477 285.072 17.543 285.854 17.543C287.193 17.543 287.869 18.2988 287.881 19.8105V24H286.797V19.8047C286.793 19.3477 286.688 19.0098 286.48 18.791C286.277 18.5723 285.959 18.4629 285.525 18.4629C285.174 18.4629 284.865 18.5566 284.6 18.7441C284.334 18.9316 284.127 19.1777 283.979 19.4824V24H282.895V17.6602H283.92ZM293.207 22.3184C293.207 22.0254 293.096 21.7988 292.873 21.6387C292.654 21.4746 292.27 21.334 291.719 21.2168C291.172 21.0996 290.736 20.959 290.412 20.7949C290.092 20.6309 289.854 20.4355 289.697 20.209C289.545 19.9824 289.469 19.7129 289.469 19.4004C289.469 18.8809 289.688 18.4414 290.125 18.082C290.566 17.7227 291.129 17.543 291.812 17.543C292.531 17.543 293.113 17.7285 293.559 18.0996C294.008 18.4707 294.232 18.9453 294.232 19.5234H293.143C293.143 19.2266 293.016 18.9707 292.762 18.7559C292.512 18.541 292.195 18.4336 291.812 18.4336C291.418 18.4336 291.109 18.5195 290.887 18.6914C290.664 18.8633 290.553 19.0879 290.553 19.3652C290.553 19.627 290.656 19.8242 290.863 19.957C291.07 20.0898 291.443 20.2168 291.982 20.3379C292.525 20.459 292.965 20.6035 293.301 20.7715C293.637 20.9395 293.885 21.1426 294.045 21.3809C294.209 21.6152 294.291 21.9023 294.291 22.2422C294.291 22.8086 294.064 23.2637 293.611 23.6074C293.158 23.9473 292.57 24.1172 291.848 24.1172C291.34 24.1172 290.891 24.0273 290.5 23.8477C290.109 23.668 289.803 23.418 289.58 23.0977C289.361 22.7734 289.252 22.4238 289.252 22.0488H290.336C290.355 22.4121 290.5 22.7012 290.77 22.916C291.043 23.127 291.402 23.2324 291.848 23.2324C292.258 23.2324 292.586 23.1504 292.832 22.9863C293.082 22.8184 293.207 22.5957 293.207 22.3184ZM296.236 24V18.498H295.234V17.6602H296.236V17.0098C296.236 16.3301 296.418 15.8047 296.781 15.4336C297.145 15.0625 297.658 14.877 298.322 14.877C298.572 14.877 298.82 14.9102 299.066 14.9766L299.008 15.8555C298.824 15.8203 298.629 15.8027 298.422 15.8027C298.07 15.8027 297.799 15.9062 297.607 16.1133C297.416 16.3164 297.32 16.6094 297.32 16.9922V17.6602H298.674V18.498H297.32V24H296.236ZM299.588 20.7715C299.588 20.1504 299.709 19.5918 299.951 19.0957C300.197 18.5996 300.537 18.2168 300.971 17.9473C301.408 17.6777 301.906 17.543 302.465 17.543C303.328 17.543 304.025 17.8418 304.557 18.4395C305.092 19.0371 305.359 19.832 305.359 20.8242V20.9004C305.359 21.5176 305.24 22.0723 305.002 22.5645C304.768 23.0527 304.43 23.4336 303.988 23.707C303.551 23.9805 303.047 24.1172 302.477 24.1172C301.617 24.1172 300.92 23.8184 300.385 23.2207C299.854 22.623 299.588 21.832 299.588 20.8477V20.7715ZM300.678 20.9004C300.678 21.6035 300.84 22.168 301.164 22.5938C301.492 23.0195 301.93 23.2324 302.477 23.2324C303.027 23.2324 303.465 23.0176 303.789 22.5879C304.113 22.1543 304.275 21.5488 304.275 20.7715C304.275 20.0762 304.109 19.5137 303.777 19.084C303.449 18.6504 303.012 18.4336 302.465 18.4336C301.93 18.4336 301.498 18.6465 301.17 19.0723C300.842 19.498 300.678 20.1074 300.678 20.9004ZM309.783 18.6328C309.619 18.6055 309.441 18.5918 309.25 18.5918C308.539 18.5918 308.057 18.8945 307.803 19.5V24H306.719V17.6602H307.773L307.791 18.3926C308.146 17.8262 308.65 17.543 309.303 17.543C309.514 17.543 309.674 17.5703 309.783 17.625V18.6328ZM311.805 17.6602L311.834 18.3633C312.299 17.8164 312.926 17.543 313.715 17.543C314.602 17.543 315.205 17.8828 315.525 18.5625C315.736 18.2578 316.01 18.0117 316.346 17.8242C316.686 17.6367 317.086 17.543 317.547 17.543C318.938 17.543 319.645 18.2793 319.668 19.752V24H318.584V19.8164C318.584 19.3633 318.48 19.0254 318.273 18.8027C318.066 18.5762 317.719 18.4629 317.23 18.4629C316.828 18.4629 316.494 18.584 316.229 18.8262C315.963 19.0645 315.809 19.3867 315.766 19.793V24H314.676V19.8457C314.676 18.9238 314.225 18.4629 313.322 18.4629C312.611 18.4629 312.125 18.7656 311.863 19.3711V24H310.779V17.6602H311.805ZM323.939 24.1172C323.08 24.1172 322.381 23.8359 321.842 23.2734C321.303 22.707 321.033 21.9512 321.033 21.0059V20.8066C321.033 20.1777 321.152 19.6172 321.391 19.125C321.633 18.6289 321.969 18.2422 322.398 17.9648C322.832 17.6836 323.301 17.543 323.805 17.543C324.629 17.543 325.27 17.8145 325.727 18.3574C326.184 18.9004 326.412 19.6777 326.412 20.6895V21.1406H322.117C322.133 21.7656 322.314 22.2715 322.662 22.6582C323.014 23.041 323.459 23.2324 323.998 23.2324C324.381 23.2324 324.705 23.1543 324.971 22.998C325.236 22.8418 325.469 22.6348 325.668 22.377L326.33 22.8926C325.799 23.709 325.002 24.1172 323.939 24.1172ZM323.805 18.4336C323.367 18.4336 323 18.5938 322.703 18.9141C322.406 19.2305 322.223 19.6758 322.152 20.25H325.328V20.168C325.297 19.6172 325.148 19.1914 324.883 18.8906C324.617 18.5859 324.258 18.4336 323.805 18.4336ZM327.408 20.7773C327.408 19.8047 327.639 19.0234 328.1 18.4336C328.561 17.8398 329.164 17.543 329.91 17.543C330.652 17.543 331.24 17.7969 331.674 18.3047V15H332.758V24H331.762L331.709 23.3203C331.275 23.8516 330.672 24.1172 329.898 24.1172C329.164 24.1172 328.564 23.8164 328.1 23.2148C327.639 22.6133 327.408 21.8281 327.408 20.8594V20.7773ZM328.492 20.9004C328.492 21.6191 328.641 22.1816 328.938 22.5879C329.234 22.9941 329.645 23.1973 330.168 23.1973C330.855 23.1973 331.357 22.8887 331.674 22.2715V19.3594C331.35 18.7617 330.852 18.4629 330.18 18.4629C329.648 18.4629 329.234 18.668 328.938 19.0781C328.641 19.4883 328.492 20.0957 328.492 20.9004ZM271.885 30.3945H269.143V38H268.023V30.3945H265.287V29.4688H271.885V30.3945ZM275.6 32.6328C275.436 32.6055 275.258 32.5918 275.066 32.5918C274.355 32.5918 273.873 32.8945 273.619 33.5V38H272.535V31.6602H273.59L273.607 32.3926C273.963 31.8262 274.467 31.543 275.119 31.543C275.33 31.543 275.49 31.5703 275.6 31.625V32.6328ZM277.779 38H276.695V31.6602H277.779V38ZM276.607 29.9785C276.607 29.8027 276.66 29.6543 276.766 29.5332C276.875 29.4121 277.035 29.3516 277.246 29.3516C277.457 29.3516 277.617 29.4121 277.727 29.5332C277.836 29.6543 277.891 29.8027 277.891 29.9785C277.891 30.1543 277.836 30.3008 277.727 30.418C277.617 30.5352 277.457 30.5938 277.246 30.5938C277.035 30.5938 276.875 30.5352 276.766 30.418C276.66 30.3008 276.607 30.1543 276.607 29.9785ZM279.262 34.7773C279.262 33.7891 279.49 33.0039 279.947 32.4219C280.404 31.8359 281.01 31.543 281.764 31.543C282.537 31.543 283.141 31.8164 283.574 32.3633L283.627 31.6602H284.617V37.8477C284.617 38.668 284.373 39.3145 283.885 39.7871C283.4 40.2598 282.748 40.4961 281.928 40.4961C281.471 40.4961 281.023 40.3984 280.586 40.2031C280.148 40.0078 279.814 39.7402 279.584 39.4004L280.146 38.75C280.611 39.3242 281.18 39.6113 281.852 39.6113C282.379 39.6113 282.789 39.4629 283.082 39.166C283.379 38.8691 283.527 38.4512 283.527 37.9121V37.3672C283.094 37.8672 282.502 38.1172 281.752 38.1172C281.01 38.1172 280.408 37.8184 279.947 37.2207C279.49 36.623 279.262 35.8086 279.262 34.7773ZM280.352 34.9004C280.352 35.6152 280.498 36.1777 280.791 36.5879C281.084 36.9941 281.494 37.1973 282.021 37.1973C282.705 37.1973 283.207 36.8867 283.527 36.2656V33.3711C283.195 32.7656 282.697 32.4629 282.033 32.4629C281.506 32.4629 281.094 32.668 280.797 33.0781C280.5 33.4883 280.352 34.0957 280.352 34.9004ZM286 34.7773C286 33.7891 286.229 33.0039 286.686 32.4219C287.143 31.8359 287.748 31.543 288.502 31.543C289.275 31.543 289.879 31.8164 290.312 32.3633L290.365 31.6602H291.355V37.8477C291.355 38.668 291.111 39.3145 290.623 39.7871C290.139 40.2598 289.486 40.4961 288.666 40.4961C288.209 40.4961 287.762 40.3984 287.324 40.2031C286.887 40.0078 286.553 39.7402 286.322 39.4004L286.885 38.75C287.35 39.3242 287.918 39.6113 288.59 39.6113C289.117 39.6113 289.527 39.4629 289.82 39.166C290.117 38.8691 290.266 38.4512 290.266 37.9121V37.3672C289.832 37.8672 289.24 38.1172 288.49 38.1172C287.748 38.1172 287.146 37.8184 286.686 37.2207C286.229 36.623 286 35.8086 286 34.7773ZM287.09 34.9004C287.09 35.6152 287.236 36.1777 287.529 36.5879C287.822 36.9941 288.232 37.1973 288.76 37.1973C289.443 37.1973 289.945 36.8867 290.266 36.2656V33.3711C289.934 32.7656 289.436 32.4629 288.771 32.4629C288.244 32.4629 287.832 32.668 287.535 33.0781C287.238 33.4883 287.09 34.0957 287.09 34.9004ZM295.627 38.1172C294.768 38.1172 294.068 37.8359 293.529 37.2734C292.99 36.707 292.721 35.9512 292.721 35.0059V34.8066C292.721 34.1777 292.84 33.6172 293.078 33.125C293.32 32.6289 293.656 32.2422 294.086 31.9648C294.52 31.6836 294.988 31.543 295.492 31.543C296.316 31.543 296.957 31.8145 297.414 32.3574C297.871 32.9004 298.1 33.6777 298.1 34.6895V35.1406H293.805C293.82 35.7656 294.002 36.2715 294.35 36.6582C294.701 37.041 295.146 37.2324 295.686 37.2324C296.068 37.2324 296.393 37.1543 296.658 36.998C296.924 36.8418 297.156 36.6348 297.355 36.377L298.018 36.8926C297.486 37.709 296.689 38.1172 295.627 38.1172ZM295.492 32.4336C295.055 32.4336 294.688 32.5938 294.391 32.9141C294.094 33.2305 293.91 33.6758 293.84 34.25H297.016V34.168C296.984 33.6172 296.836 33.1914 296.57 32.8906C296.305 32.5859 295.945 32.4336 295.492 32.4336ZM302.424 32.6328C302.26 32.6055 302.082 32.5918 301.891 32.5918C301.18 32.5918 300.697 32.8945 300.443 33.5V38H299.359V31.6602H300.414L300.432 32.3926C300.787 31.8262 301.291 31.543 301.943 31.543C302.154 31.543 302.314 31.5703 302.424 31.625V32.6328ZM307.117 36.3184C307.117 36.0254 307.006 35.7988 306.783 35.6387C306.564 35.4746 306.18 35.334 305.629 35.2168C305.082 35.0996 304.646 34.959 304.322 34.7949C304.002 34.6309 303.764 34.4355 303.607 34.209C303.455 33.9824 303.379 33.7129 303.379 33.4004C303.379 32.8809 303.598 32.4414 304.035 32.082C304.477 31.7227 305.039 31.543 305.723 31.543C306.441 31.543 307.023 31.7285 307.469 32.0996C307.918 32.4707 308.143 32.9453 308.143 33.5234H307.053C307.053 33.2266 306.926 32.9707 306.672 32.7559C306.422 32.541 306.105 32.4336 305.723 32.4336C305.328 32.4336 305.02 32.5195 304.797 32.6914C304.574 32.8633 304.463 33.0879 304.463 33.3652C304.463 33.627 304.566 33.8242 304.773 33.957C304.98 34.0898 305.354 34.2168 305.893 34.3379C306.436 34.459 306.875 34.6035 307.211 34.7715C307.547 34.9395 307.795 35.1426 307.955 35.3809C308.119 35.6152 308.201 35.9023 308.201 36.2422C308.201 36.8086 307.975 37.2637 307.521 37.6074C307.068 37.9473 306.48 38.1172 305.758 38.1172C305.25 38.1172 304.801 38.0273 304.41 37.8477C304.02 37.668 303.713 37.418 303.49 37.0977C303.271 36.7734 303.162 36.4238 303.162 36.0488H304.246C304.266 36.4121 304.41 36.7012 304.68 36.916C304.953 37.127 305.312 37.2324 305.758 37.2324C306.168 37.2324 306.496 37.1504 306.742 36.9863C306.992 36.8184 307.117 36.5957 307.117 36.3184Z" fill="white"/>
<path d="M523.061 48.0607C523.646 47.4749 523.646 46.5251 523.061 45.9393L513.515 36.3934C512.929 35.8076 511.979 35.8076 511.393 36.3934C510.808 36.9792 510.808 37.9289 511.393 38.5147L519.879 47L511.393 55.4853C510.808 56.0711 510.808 57.0208 511.393 57.6066C511.979 58.1924 512.929 58.1924 513.515 57.6066L523.061 48.0607ZM491 48.5L522 48.5V45.5L491 45.5V48.5Z" fill="white"/>
<path d="M444.885 15.3945H442.143V23H441.023V15.3945H438.287V14.4688H444.885V15.3945ZM448.6 17.6328C448.436 17.6055 448.258 17.5918 448.066 17.5918C447.355 17.5918 446.873 17.8945 446.619 18.5V23H445.535V16.6602H446.59L446.607 17.3926C446.963 16.8262 447.467 16.543 448.119 16.543C448.33 16.543 448.49 16.5703 448.6 16.625V17.6328ZM453.281 23C453.219 22.875 453.168 22.6523 453.129 22.332C452.625 22.8555 452.023 23.1172 451.324 23.1172C450.699 23.1172 450.186 22.9414 449.783 22.5898C449.385 22.2344 449.186 21.7852 449.186 21.2422C449.186 20.582 449.436 20.0703 449.936 19.707C450.439 19.3398 451.146 19.1562 452.057 19.1562H453.111V18.6582C453.111 18.2793 452.998 17.9785 452.771 17.7559C452.545 17.5293 452.211 17.416 451.77 17.416C451.383 17.416 451.059 17.5137 450.797 17.709C450.535 17.9043 450.404 18.1406 450.404 18.418H449.314C449.314 18.1016 449.426 17.7969 449.648 17.5039C449.875 17.207 450.18 16.9727 450.562 16.8008C450.949 16.6289 451.373 16.543 451.834 16.543C452.564 16.543 453.137 16.7266 453.551 17.0938C453.965 17.457 454.18 17.959 454.195 18.5996V21.5176C454.195 22.0996 454.27 22.5625 454.418 22.9062V23H453.281ZM451.482 22.1738C451.822 22.1738 452.145 22.0859 452.449 21.9102C452.754 21.7344 452.975 21.5059 453.111 21.2246V19.9238H452.262C450.934 19.9238 450.27 20.3125 450.27 21.0898C450.27 21.4297 450.383 21.6953 450.609 21.8867C450.836 22.0781 451.127 22.1738 451.482 22.1738ZM456.92 16.6602L456.955 17.457C457.439 16.8477 458.072 16.543 458.854 16.543C460.193 16.543 460.869 17.2988 460.881 18.8105V23H459.797V18.8047C459.793 18.3477 459.688 18.0098 459.48 17.791C459.277 17.5723 458.959 17.4629 458.525 17.4629C458.174 17.4629 457.865 17.5566 457.6 17.7441C457.334 17.9316 457.127 18.1777 456.979 18.4824V23H455.895V16.6602H456.92ZM466.207 21.3184C466.207 21.0254 466.096 20.7988 465.873 20.6387C465.654 20.4746 465.27 20.334 464.719 20.2168C464.172 20.0996 463.736 19.959 463.412 19.7949C463.092 19.6309 462.854 19.4355 462.697 19.209C462.545 18.9824 462.469 18.7129 462.469 18.4004C462.469 17.8809 462.688 17.4414 463.125 17.082C463.566 16.7227 464.129 16.543 464.812 16.543C465.531 16.543 466.113 16.7285 466.559 17.0996C467.008 17.4707 467.232 17.9453 467.232 18.5234H466.143C466.143 18.2266 466.016 17.9707 465.762 17.7559C465.512 17.541 465.195 17.4336 464.812 17.4336C464.418 17.4336 464.109 17.5195 463.887 17.6914C463.664 17.8633 463.553 18.0879 463.553 18.3652C463.553 18.627 463.656 18.8242 463.863 18.957C464.07 19.0898 464.443 19.2168 464.982 19.3379C465.525 19.459 465.965 19.6035 466.301 19.7715C466.637 19.9395 466.885 20.1426 467.045 20.3809C467.209 20.6152 467.291 20.9023 467.291 21.2422C467.291 21.8086 467.064 22.2637 466.611 22.6074C466.158 22.9473 465.57 23.1172 464.848 23.1172C464.34 23.1172 463.891 23.0273 463.5 22.8477C463.109 22.668 462.803 22.418 462.58 22.0977C462.361 21.7734 462.252 21.4238 462.252 21.0488H463.336C463.355 21.4121 463.5 21.7012 463.77 21.916C464.043 22.127 464.402 22.2324 464.848 22.2324C465.258 22.2324 465.586 22.1504 465.832 21.9863C466.082 21.8184 466.207 21.5957 466.207 21.3184ZM469.236 23V17.498H468.234V16.6602H469.236V16.0098C469.236 15.3301 469.418 14.8047 469.781 14.4336C470.145 14.0625 470.658 13.877 471.322 13.877C471.572 13.877 471.82 13.9102 472.066 13.9766L472.008 14.8555C471.824 14.8203 471.629 14.8027 471.422 14.8027C471.07 14.8027 470.799 14.9062 470.607 15.1133C470.416 15.3164 470.32 15.6094 470.32 15.9922V16.6602H471.674V17.498H470.32V23H469.236ZM472.588 19.7715C472.588 19.1504 472.709 18.5918 472.951 18.0957C473.197 17.5996 473.537 17.2168 473.971 16.9473C474.408 16.6777 474.906 16.543 475.465 16.543C476.328 16.543 477.025 16.8418 477.557 17.4395C478.092 18.0371 478.359 18.832 478.359 19.8242V19.9004C478.359 20.5176 478.24 21.0723 478.002 21.5645C477.768 22.0527 477.43 22.4336 476.988 22.707C476.551 22.9805 476.047 23.1172 475.477 23.1172C474.617 23.1172 473.92 22.8184 473.385 22.2207C472.854 21.623 472.588 20.832 472.588 19.8477V19.7715ZM473.678 19.9004C473.678 20.6035 473.84 21.168 474.164 21.5938C474.492 22.0195 474.93 22.2324 475.477 22.2324C476.027 22.2324 476.465 22.0176 476.789 21.5879C477.113 21.1543 477.275 20.5488 477.275 19.7715C477.275 19.0762 477.109 18.5137 476.777 18.084C476.449 17.6504 476.012 17.4336 475.465 17.4336C474.93 17.4336 474.498 17.6465 474.17 18.0723C473.842 18.498 473.678 19.1074 473.678 19.9004ZM482.783 17.6328C482.619 17.6055 482.441 17.5918 482.25 17.5918C481.539 17.5918 481.057 17.8945 480.803 18.5V23H479.719V16.6602H480.773L480.791 17.3926C481.146 16.8262 481.65 16.543 482.303 16.543C482.514 16.543 482.674 16.5703 482.783 16.625V17.6328ZM484.805 16.6602L484.834 17.3633C485.299 16.8164 485.926 16.543 486.715 16.543C487.602 16.543 488.205 16.8828 488.525 17.5625C488.736 17.2578 489.01 17.0117 489.346 16.8242C489.686 16.6367 490.086 16.543 490.547 16.543C491.938 16.543 492.645 17.2793 492.668 18.752V23H491.584V18.8164C491.584 18.3633 491.48 18.0254 491.273 17.8027C491.066 17.5762 490.719 17.4629 490.23 17.4629C489.828 17.4629 489.494 17.584 489.229 17.8262C488.963 18.0645 488.809 18.3867 488.766 18.793V23H487.676V18.8457C487.676 17.9238 487.225 17.4629 486.322 17.4629C485.611 17.4629 485.125 17.7656 484.863 18.3711V23H483.779V16.6602H484.805ZM496.939 23.1172C496.08 23.1172 495.381 22.8359 494.842 22.2734C494.303 21.707 494.033 20.9512 494.033 20.0059V19.8066C494.033 19.1777 494.152 18.6172 494.391 18.125C494.633 17.6289 494.969 17.2422 495.398 16.9648C495.832 16.6836 496.301 16.543 496.805 16.543C497.629 16.543 498.27 16.8145 498.727 17.3574C499.184 17.9004 499.412 18.6777 499.412 19.6895V20.1406H495.117C495.133 20.7656 495.314 21.2715 495.662 21.6582C496.014 22.041 496.459 22.2324 496.998 22.2324C497.381 22.2324 497.705 22.1543 497.971 21.998C498.236 21.8418 498.469 21.6348 498.668 21.377L499.33 21.8926C498.799 22.709 498.002 23.1172 496.939 23.1172ZM496.805 17.4336C496.367 17.4336 496 17.5938 495.703 17.9141C495.406 18.2305 495.223 18.6758 495.152 19.25H498.328V19.168C498.297 18.6172 498.148 18.1914 497.883 17.8906C497.617 17.5859 497.258 17.4336 496.805 17.4336ZM500.408 19.7773C500.408 18.8047 500.639 18.0234 501.1 17.4336C501.561 16.8398 502.164 16.543 502.91 16.543C503.652 16.543 504.24 16.7969 504.674 17.3047V14H505.758V23H504.762L504.709 22.3203C504.275 22.8516 503.672 23.1172 502.898 23.1172C502.164 23.1172 501.564 22.8164 501.1 22.2148C500.639 21.6133 500.408 20.8281 500.408 19.8594V19.7773ZM501.492 19.9004C501.492 20.6191 501.641 21.1816 501.938 21.5879C502.234 21.9941 502.645 22.1973 503.168 22.1973C503.855 22.1973 504.357 21.8887 504.674 21.2715V18.3594C504.35 17.7617 503.852 17.4629 503.18 17.4629C502.648 17.4629 502.234 17.668 501.938 18.0781C501.641 18.4883 501.492 19.0957 501.492 19.9004ZM444.885 29.3945H442.143V37H441.023V29.3945H438.287V28.4688H444.885V29.3945ZM448.6 31.6328C448.436 31.6055 448.258 31.5918 448.066 31.5918C447.355 31.5918 446.873 31.8945 446.619 32.5V37H445.535V30.6602H446.59L446.607 31.3926C446.963 30.8262 447.467 30.543 448.119 30.543C448.33 30.543 448.49 30.5703 448.6 30.625V31.6328ZM450.779 37H449.695V30.6602H450.779V37ZM449.607 28.9785C449.607 28.8027 449.66 28.6543 449.766 28.5332C449.875 28.4121 450.035 28.3516 450.246 28.3516C450.457 28.3516 450.617 28.4121 450.727 28.5332C450.836 28.6543 450.891 28.8027 450.891 28.9785C450.891 29.1543 450.836 29.3008 450.727 29.418C450.617 29.5352 450.457 29.5938 450.246 29.5938C450.035 29.5938 449.875 29.5352 449.766 29.418C449.66 29.3008 449.607 29.1543 449.607 28.9785ZM452.262 33.7773C452.262 32.7891 452.49 32.0039 452.947 31.4219C453.404 30.8359 454.01 30.543 454.764 30.543C455.537 30.543 456.141 30.8164 456.574 31.3633L456.627 30.6602H457.617V36.8477C457.617 37.668 457.373 38.3145 456.885 38.7871C456.4 39.2598 455.748 39.4961 454.928 39.4961C454.471 39.4961 454.023 39.3984 453.586 39.2031C453.148 39.0078 452.814 38.7402 452.584 38.4004L453.146 37.75C453.611 38.3242 454.18 38.6113 454.852 38.6113C455.379 38.6113 455.789 38.4629 456.082 38.166C456.379 37.8691 456.527 37.4512 456.527 36.9121V36.3672C456.094 36.8672 455.502 37.1172 454.752 37.1172C454.01 37.1172 453.408 36.8184 452.947 36.2207C452.49 35.623 452.262 34.8086 452.262 33.7773ZM453.352 33.9004C453.352 34.6152 453.498 35.1777 453.791 35.5879C454.084 35.9941 454.494 36.1973 455.021 36.1973C455.705 36.1973 456.207 35.8867 456.527 35.2656V32.3711C456.195 31.7656 455.697 31.4629 455.033 31.4629C454.506 31.4629 454.094 31.668 453.797 32.0781C453.5 32.4883 453.352 33.0957 453.352 33.9004ZM459 33.7773C459 32.7891 459.229 32.0039 459.686 31.4219C460.143 30.8359 460.748 30.543 461.502 30.543C462.275 30.543 462.879 30.8164 463.312 31.3633L463.365 30.6602H464.355V36.8477C464.355 37.668 464.111 38.3145 463.623 38.7871C463.139 39.2598 462.486 39.4961 461.666 39.4961C461.209 39.4961 460.762 39.3984 460.324 39.2031C459.887 39.0078 459.553 38.7402 459.322 38.4004L459.885 37.75C460.35 38.3242 460.918 38.6113 461.59 38.6113C462.117 38.6113 462.527 38.4629 462.82 38.166C463.117 37.8691 463.266 37.4512 463.266 36.9121V36.3672C462.832 36.8672 462.24 37.1172 461.49 37.1172C460.748 37.1172 460.146 36.8184 459.686 36.2207C459.229 35.623 459 34.8086 459 33.7773ZM460.09 33.9004C460.09 34.6152 460.236 35.1777 460.529 35.5879C460.822 35.9941 461.232 36.1973 461.76 36.1973C462.443 36.1973 462.945 35.8867 463.266 35.2656V32.3711C462.934 31.7656 462.436 31.4629 461.771 31.4629C461.244 31.4629 460.832 31.668 460.535 32.0781C460.238 32.4883 460.09 33.0957 460.09 33.9004ZM468.627 37.1172C467.768 37.1172 467.068 36.8359 466.529 36.2734C465.99 35.707 465.721 34.9512 465.721 34.0059V33.8066C465.721 33.1777 465.84 32.6172 466.078 32.125C466.32 31.6289 466.656 31.2422 467.086 30.9648C467.52 30.6836 467.988 30.543 468.492 30.543C469.316 30.543 469.957 30.8145 470.414 31.3574C470.871 31.9004 471.1 32.6777 471.1 33.6895V34.1406H466.805C466.82 34.7656 467.002 35.2715 467.35 35.6582C467.701 36.041 468.146 36.2324 468.686 36.2324C469.068 36.2324 469.393 36.1543 469.658 35.998C469.924 35.8418 470.156 35.6348 470.355 35.377L471.018 35.8926C470.486 36.709 469.689 37.1172 468.627 37.1172ZM468.492 31.4336C468.055 31.4336 467.688 31.5938 467.391 31.9141C467.094 32.2305 466.91 32.6758 466.84 33.25H470.016V33.168C469.984 32.6172 469.836 32.1914 469.57 31.8906C469.305 31.5859 468.945 31.4336 468.492 31.4336ZM475.424 31.6328C475.26 31.6055 475.082 31.5918 474.891 31.5918C474.18 31.5918 473.697 31.8945 473.443 32.5V37H472.359V30.6602H473.414L473.432 31.3926C473.787 30.8262 474.291 30.543 474.943 30.543C475.154 30.543 475.314 30.5703 475.424 30.625V31.6328ZM480.117 35.3184C480.117 35.0254 480.006 34.7988 479.783 34.6387C479.564 34.4746 479.18 34.334 478.629 34.2168C478.082 34.0996 477.646 33.959 477.322 33.7949C477.002 33.6309 476.764 33.4355 476.607 33.209C476.455 32.9824 476.379 32.7129 476.379 32.4004C476.379 31.8809 476.598 31.4414 477.035 31.082C477.477 30.7227 478.039 30.543 478.723 30.543C479.441 30.543 480.023 30.7285 480.469 31.0996C480.918 31.4707 481.143 31.9453 481.143 32.5234H480.053C480.053 32.2266 479.926 31.9707 479.672 31.7559C479.422 31.541 479.105 31.4336 478.723 31.4336C478.328 31.4336 478.02 31.5195 477.797 31.6914C477.574 31.8633 477.463 32.0879 477.463 32.3652C477.463 32.627 477.566 32.8242 477.773 32.957C477.98 33.0898 478.354 33.2168 478.893 33.3379C479.436 33.459 479.875 33.6035 480.211 33.7715C480.547 33.9395 480.795 34.1426 480.955 34.3809C481.119 34.6152 481.201 34.9023 481.201 35.2422C481.201 35.8086 480.975 36.2637 480.521 36.6074C480.068 36.9473 479.48 37.1172 478.758 37.1172C478.25 37.1172 477.801 37.0273 477.41 36.8477C477.02 36.668 476.713 36.418 476.49 36.0977C476.271 35.7734 476.162 35.4238 476.162 35.0488H477.246C477.266 35.4121 477.41 35.7012 477.68 35.916C477.953 36.127 478.312 36.2324 478.758 36.2324C479.168 36.2324 479.496 36.1504 479.742 35.9863C479.992 35.8184 480.117 35.5957 480.117 35.3184Z" fill="white"/>
<rect x="526" width="112" height="97" fill="white"/>
<path d="M554.197 52H553.072V43.4688H554.197V52ZM557.115 45.6602L557.15 46.457C557.635 45.8477 558.268 45.543 559.049 45.543C560.389 45.543 561.064 46.2988 561.076 47.8105V52H559.992V47.8047C559.988 47.3477 559.883 47.0098 559.676 46.791C559.473 46.5723 559.154 46.4629 558.721 46.4629C558.369 46.4629 558.061 46.5566 557.795 46.7441C557.529 46.9316 557.322 47.1777 557.174 47.4824V52H556.09V45.6602H557.115ZM566.402 50.3184C566.402 50.0254 566.291 49.7988 566.068 49.6387C565.85 49.4746 565.465 49.334 564.914 49.2168C564.367 49.0996 563.932 48.959 563.607 48.7949C563.287 48.6309 563.049 48.4355 562.893 48.209C562.74 47.9824 562.664 47.7129 562.664 47.4004C562.664 46.8809 562.883 46.4414 563.32 46.082C563.762 45.7227 564.324 45.543 565.008 45.543C565.727 45.543 566.309 45.7285 566.754 46.0996C567.203 46.4707 567.428 46.9453 567.428 47.5234H566.338C566.338 47.2266 566.211 46.9707 565.957 46.7559C565.707 46.541 565.391 46.4336 565.008 46.4336C564.613 46.4336 564.305 46.5195 564.082 46.6914C563.859 46.8633 563.748 47.0879 563.748 47.3652C563.748 47.627 563.852 47.8242 564.059 47.957C564.266 48.0898 564.639 48.2168 565.178 48.3379C565.721 48.459 566.16 48.6035 566.496 48.7715C566.832 48.9395 567.08 49.1426 567.24 49.3809C567.404 49.6152 567.486 49.9023 567.486 50.2422C567.486 50.8086 567.26 51.2637 566.807 51.6074C566.354 51.9473 565.766 52.1172 565.043 52.1172C564.535 52.1172 564.086 52.0273 563.695 51.8477C563.305 51.668 562.998 51.418 562.775 51.0977C562.557 50.7734 562.447 50.4238 562.447 50.0488H563.531C563.551 50.4121 563.695 50.7012 563.965 50.916C564.238 51.127 564.598 51.2324 565.043 51.2324C565.453 51.2324 565.781 51.1504 566.027 50.9863C566.277 50.8184 566.402 50.5957 566.402 50.3184ZM570.369 44.125V45.6602H571.553V46.498H570.369V50.4297C570.369 50.6836 570.422 50.875 570.527 51.0039C570.633 51.1289 570.812 51.1914 571.066 51.1914C571.191 51.1914 571.363 51.168 571.582 51.1211V52C571.297 52.0781 571.02 52.1172 570.75 52.1172C570.266 52.1172 569.9 51.9707 569.654 51.6777C569.408 51.3848 569.285 50.9688 569.285 50.4297V46.498H568.131V45.6602H569.285V44.125H570.369ZM575.889 46.6328C575.725 46.6055 575.547 46.5918 575.355 46.5918C574.645 46.5918 574.162 46.8945 573.908 47.5V52H572.824V45.6602H573.879L573.896 46.3926C574.252 45.8262 574.756 45.543 575.408 45.543C575.619 45.543 575.779 45.5703 575.889 45.625V46.6328ZM580.805 51.373C580.383 51.8691 579.764 52.1172 578.947 52.1172C578.271 52.1172 577.756 51.9219 577.4 51.5312C577.049 51.1367 576.871 50.5547 576.867 49.7852V45.6602H577.951V49.7559C577.951 50.7168 578.342 51.1973 579.123 51.1973C579.951 51.1973 580.502 50.8887 580.775 50.2715V45.6602H581.859V52H580.828L580.805 51.373ZM584.531 45.6602L584.561 46.3633C585.025 45.8164 585.652 45.543 586.441 45.543C587.328 45.543 587.932 45.8828 588.252 46.5625C588.463 46.2578 588.736 46.0117 589.072 45.8242C589.412 45.6367 589.812 45.543 590.273 45.543C591.664 45.543 592.371 46.2793 592.395 47.752V52H591.311V47.8164C591.311 47.3633 591.207 47.0254 591 46.8027C590.793 46.5762 590.445 46.4629 589.957 46.4629C589.555 46.4629 589.221 46.584 588.955 46.8262C588.689 47.0645 588.535 47.3867 588.492 47.793V52H587.402V47.8457C587.402 46.9238 586.951 46.4629 586.049 46.4629C585.338 46.4629 584.852 46.7656 584.59 47.3711V52H583.506V45.6602H584.531ZM596.666 52.1172C595.807 52.1172 595.107 51.8359 594.568 51.2734C594.029 50.707 593.76 49.9512 593.76 49.0059V48.8066C593.76 48.1777 593.879 47.6172 594.117 47.125C594.359 46.6289 594.695 46.2422 595.125 45.9648C595.559 45.6836 596.027 45.543 596.531 45.543C597.355 45.543 597.996 45.8145 598.453 46.3574C598.91 46.9004 599.139 47.6777 599.139 48.6895V49.1406H594.844C594.859 49.7656 595.041 50.2715 595.389 50.6582C595.74 51.041 596.186 51.2324 596.725 51.2324C597.107 51.2324 597.432 51.1543 597.697 50.998C597.963 50.8418 598.195 50.6348 598.395 50.377L599.057 50.8926C598.525 51.709 597.729 52.1172 596.666 52.1172ZM596.531 46.4336C596.094 46.4336 595.727 46.5938 595.43 46.9141C595.133 47.2305 594.949 47.6758 594.879 48.25H598.055V48.168C598.023 47.6172 597.875 47.1914 597.609 46.8906C597.344 46.5859 596.984 46.4336 596.531 46.4336ZM601.424 45.6602L601.459 46.457C601.943 45.8477 602.576 45.543 603.357 45.543C604.697 45.543 605.373 46.2988 605.385 47.8105V52H604.301V47.8047C604.297 47.3477 604.191 47.0098 603.984 46.791C603.781 46.5723 603.463 46.4629 603.029 46.4629C602.678 46.4629 602.369 46.5566 602.104 46.7441C601.838 46.9316 601.631 47.1777 601.482 47.4824V52H600.398V45.6602H601.424ZM608.49 44.125V45.6602H609.674V46.498H608.49V50.4297C608.49 50.6836 608.543 50.875 608.648 51.0039C608.754 51.1289 608.934 51.1914 609.188 51.1914C609.312 51.1914 609.484 51.168 609.703 51.1211V52C609.418 52.0781 609.141 52.1172 608.871 52.1172C608.387 52.1172 608.021 51.9707 607.775 51.6777C607.529 51.3848 607.406 50.9688 607.406 50.4297V46.498H606.252V45.6602H607.406V44.125H608.49Z" fill="black"/>
<line x1="437" y1="47.5" x2="477" y2="47.5" stroke="white" stroke-width="3"/>
<circle cx="480.5" cy="47.5" r="1.5" fill="white"/>
<circle cx="484.5" cy="47.5" r="1.5" fill="white"/>
<circle cx="488.5" cy="47.5" r="1.5" fill="white"/>
</svg>
