<svg width="148" height="169" viewBox="0 0 148 169" fill="none" xmlns="http://www.w3.org/2000/svg">
<path d="M62 24.9059L61.1013 21.0081L58 21.7232V24.9059H62ZM144 6.00015H148V0.972985L143.101 2.10241L144 6.00015ZM58 145C58 148.647 55.8024 152.424 51.2741 155.469C46.7707 158.498 40.3216 160.5 33 160.5V168.5C41.6946 168.5 49.7456 166.138 55.7381 162.108C61.7057 158.095 66 152.122 66 145H58ZM33 160.5C25.6784 160.5 19.2293 158.498 14.7259 155.469C10.1976 152.424 8 148.647 8 145H0C0 152.122 4.29432 158.095 10.2619 162.108C16.2544 166.138 24.3054 168.5 33 168.5V160.5ZM8 145C8 141.353 10.1976 137.576 14.7259 134.531C19.2293 131.503 25.6784 129.5 33 129.5V121.5C24.3054 121.5 16.2544 123.863 10.2619 127.892C4.29432 131.905 0 137.878 0 145H8ZM33 129.5C40.3216 129.5 46.7707 131.503 51.2741 134.531C55.8024 137.576 58 141.353 58 145H66C66 137.878 61.7057 131.905 55.7381 127.892C49.7456 123.863 41.6946 121.5 33 121.5V129.5ZM140 127C140 130.647 137.802 134.424 133.274 137.469C128.771 140.498 122.322 142.5 115 142.5V150.5C123.695 150.5 131.746 148.138 137.738 144.108C143.706 140.095 148 134.122 148 127H140ZM115 142.5C107.678 142.5 101.229 140.498 96.7259 137.469C92.1976 134.424 90 130.647 90 127H82C82 134.122 86.2943 140.095 92.2619 144.108C98.2544 148.138 106.305 150.5 115 150.5V142.5ZM90 127C90 123.353 92.1976 119.576 96.7259 116.531C101.229 113.503 107.678 111.5 115 111.5V103.5C106.305 103.5 98.2544 105.863 92.2619 109.892C86.2943 113.905 82 119.878 82 127H90ZM115 111.5C122.322 111.5 128.771 113.503 133.274 116.531C137.802 119.576 140 123.353 140 127H148C148 119.878 143.706 113.905 137.738 109.892C131.746 105.863 123.695 103.5 115 103.5V111.5ZM66 145V24.9059H58V145H66ZM62.8987 28.8036L144.899 9.8979L143.101 2.10241L61.1013 21.0081L62.8987 28.8036ZM148 127V6.00015H140V127H148Z" fill="white"/>
</svg>
