<svg width="15" height="15" viewBox="0 0 15 15" fill="none" xmlns="http://www.w3.org/2000/svg">
<rect width="15" height="15" fill="#E4E3E3" fill-opacity="0.7"/>
<path d="M8.53006 8.97865L8.52331 8.99299L8.51641 9.00728L8.50934 9.02152L8.50212 9.03571L8.49474 9.04986L8.48721 9.06395L8.47952 9.07799L8.47167 9.09197L8.46366 9.1059L8.4555 9.11976L8.44718 9.13357L8.43871 9.14731L8.43008 9.16099L8.4213 9.1746L8.41236 9.18814L8.40327 9.20161L8.39402 9.21501L8.38463 9.22833L8.37508 9.24158L8.36538 9.25475L8.35553 9.26785L8.34552 9.28086L8.33537 9.29379L8.32507 9.30663L8.31462 9.31939L8.30402 9.33205L8.29327 9.34463L8.28238 9.35712L8.27134 9.36951L8.26016 9.3818L8.24883 9.394L8.23735 9.4061L8.22574 9.4181L8.21398 9.42999L8.20208 9.44178L8.19004 9.45347L8.17786 9.46504L8.16554 9.47651L8.15308 9.48786L8.14049 9.49911L8.12776 9.51023L8.11489 9.52124L8.1019 9.53214L8.08876 9.54291L8.0755 9.55356L8.0621 9.56409L8.04858 9.57449L8.03492 9.58476L8.02114 9.59491L8.00723 9.60493L7.9932 9.61482L7.97904 9.62457L7.96475 9.63419L7.95035 9.64367L7.93582 9.65302L7.92118 9.66222L7.90642 9.67129L7.89153 9.68021L7.87654 9.68899L7.86143 9.69762L7.8462 9.7061L7.83086 9.71444L7.81542 9.72263L7.79986 9.73067L7.7842 9.73855L7.76842 9.74628L7.75255 9.75385L7.73657 9.76127L7.72049 9.76852L7.7043 9.77562L7.68802 9.78256L7.67164 9.78933L7.65517 9.79594L7.6386 9.80239L7.62193 9.80867L7.60518 9.81478L7.58833 9.82072L7.5714 9.82649L7.55438 9.83209L7.53727 9.83752L7.52008 9.84277L7.50281 9.84785L7.48546 9.85275L7.46803 9.85747L7.45052 9.86202L7.43293 9.86638L7.41528 9.87057L7.39755 9.87457L7.37975 9.87839L7.36189 9.88203L7.34395 9.88548L7.32596 9.88874L7.3079 9.89182L7.28978 9.89471L7.2716 9.89741L7.25336 9.89992L7.23507 9.90224L7.21672 9.90436L7.19832 9.9063L7.17987 9.90804L7.16137 9.90959L7.14283 9.91094L7.12425 9.91209L7.10562 9.91305L7.08695 9.91381L7.06824 9.91438L7.0495 9.91474L7.03072 9.9149L7.01191 9.91487L6.99307 9.91463L6.9742 9.91419L6.9553 9.91355L6.93638 9.9127L6.91744 9.91166L6.89847 9.91041L6.87949 9.90895L6.86049 9.90729L6.84148 9.90542L6.82246 9.90335L6.80342 9.90107L6.78438 9.89858L6.76533 9.89589L6.74628 9.89299L6.72723 9.88988L6.70818 9.88656L6.68913 9.88304L6.67008 9.8793L6.65104 9.87536L6.63202 9.87121L6.613 9.86685L6.59399 9.86227L6.575 9.85749L6.55603 9.8525L6.53708 9.8473L6.51815 9.84189L6.49924 9.83627L6.48036 9.83043L6.46151 9.82439L6.44269 9.81814L6.4239 9.81167L6.40515 9.805L6.38643 9.79812L6.36775 9.79102L6.34912 9.78372L6.33053 9.77621L6.31198 9.76848L6.29348 9.76055L6.27503 9.75241L6.25664 9.74406L6.2383 9.7355L6.22001 9.72673L6.20179 9.71776L6.18362 9.70857L6.16552 9.69918L6.14749 9.68959L6.12952 9.67978L6.11162 9.66977L6.0938 9.65956L6.07604 9.64914L6.05837 9.63851L6.04077 9.62768L6.02326 9.61665L6.00583 9.60542L5.98848 9.59398L5.97122 9.58234L5.95405 9.5705L5.93697 9.55846L5.91998 9.54622L5.9031 9.53378L5.8863 9.52114L5.86961 9.50831L5.85302 9.49528L5.83654 9.48206L5.82016 9.46864L5.80389 9.45502L5.78774 9.44121L5.77169 9.42722L5.75576 9.41303L5.73995 9.39865L5.72425 9.38408L5.70868 9.36932L5.69323 9.35438L5.6779 9.33925L5.66271 9.32393L5.64764 9.30844L5.6327 9.29275L5.6179 9.27689L5.60323 9.26085L5.5887 9.24463L5.57431 9.22823L5.56006 9.21166L5.54595 9.19491L5.53199 9.17799L5.51818 9.16089L5.50452 9.14362L5.491 9.12619L5.47764 9.10858L5.46444 9.09081L5.45139 9.07288L5.4385 9.05478L5.42577 9.03651L5.4132 9.01809L5.4008 8.99951L5.38856 8.98077L5.37649 8.96187L5.36459 8.94282L5.35286 8.92361L5.34131 8.90426L5.32993 8.88475L5.31873 8.8651L5.3077 8.8453L5.29686 8.82536L5.28619 8.80527L5.27571 8.78504L5.26542 8.76468L5.25531 8.74418L5.24539 8.72354L5.23566 8.70276L5.22612 8.68186L5.21678 8.66082L5.20763 8.63966L5.19867 8.61837L5.18992 8.59696L5.18136 8.57543L5.173 8.55377L5.16485 8.532L5.1569 8.51011L5.14915 8.48811L5.14161 8.46599L5.13428 8.44377L5.12716 8.42144L5.12024 8.399L5.11354 8.37646L5.10706 8.35381L5.10078 8.33107L5.09473 8.30823L5.08889 8.2853L5.08327 8.26227L5.07786 8.23916L5.07268 8.21595L5.06772 8.19266L5.06298 8.16929L5.05847 8.14583L5.05418 8.1223L5.05012 8.09868L5.04629 8.075L5.04268 8.05124L5.0393 8.02741L5.03615 8.00352L5.03324 7.97956L5.03055 7.95554L5.0281 7.93146L5.02589 7.90732L5.0239 7.88312L5.02216 7.85888L5.02065 7.83458L5.01937 7.81023L5.01834 7.78584L5.01754 7.76141L5.01699 7.73694L5.01667 7.71242L5.01659 7.68788L5.01676 7.6633L5.01717 7.63869L5.01782 7.61405L5.01871 7.58939L5.01985 7.56471L5.02123 7.54L5.02286 7.51528L5.02473 7.49055L5.02685 7.4658L5.02921 7.44104L5.03183 7.41628L5.03468 7.39151L5.03779 7.36674L5.04114 7.34198L5.04474 7.31721L5.04859 7.29246L5.05269 7.26771L5.05703 7.24297L5.06163 7.21825L5.06647 7.19355L5.07156 7.16886L5.0769 7.1442L5.08249 7.11956L5.08833 7.09495L5.09442 7.07038L5.10076 7.04583L5.10735 7.02132L5.11418 6.99686L5.12127 6.97243L5.1286 6.94804L5.13619 6.92371L5.14402 6.89942L5.1521 6.87519L5.16043 6.85101L5.169 6.82689L5.17783 6.80283L5.1869 6.77883L5.19622 6.7549L5.20578 6.73104L5.21559 6.70725L5.22565 6.68353L5.23595 6.65989L5.2465 6.63633L5.25729 6.61286L5.26833 6.58946L5.2796 6.56616L5.29113 6.54294L5.30289 6.51982L5.31489 6.4968L5.32714 6.47387L5.33962 6.45105L5.35235 6.42833L5.36531 6.40571L5.37851 6.38321L5.39195 6.36082L5.40562 6.33854L5.41953 6.31638L5.43367 6.29434L5.44805 6.27242L5.46266 6.25062L5.4775 6.22896L5.49257 6.20742L5.50787 6.18602L5.5234 6.16476L5.53915 6.14363L5.55513 6.12264L5.57134 6.1018L5.58777 6.0811L5.60442 6.06055L5.62129 6.04015L5.63839 6.01991L5.6557 5.99982L5.67323 5.97989L5.69098 5.96012L5.70894 5.94052L5.72711 5.92108L5.7455 5.90181L5.7641 5.88271L5.78291 5.86379L5.80192 5.84504L5.82114 5.82647L5.84056 5.80808L5.86019 5.78987L5.88002 5.77185L5.90005 5.75402L5.92028 5.73637L5.9407 5.71892L5.96132 5.70167L5.98213 5.68461L6.00313 5.66775L6.02433 5.65109L6.0457 5.63463L6.06727 5.61839L6.08902 5.60235L6.11095 5.58652L6.13306 5.5709L6.15536 5.5555L6.17782 5.54032L6.20046 5.52535L6.22328 5.51061L6.24626 5.49609L6.26942 5.48179L6.29274 5.46772L6.31622 5.45388L6.33987 5.44027L6.36367 5.4269L6.38764 5.41376L6.41176 5.40086L6.43603 5.3882L6.46046 5.37578L6.48503 5.3636L6.50975 5.35167L6.53462 5.33998L6.55962 5.32854L6.58477 5.31735L6.61006 5.30642L6.63548 5.29573L6.66104 5.28531L6.68672 5.27514L6.71253 5.26523L6.73847 5.25558L6.76454 5.24619L6.79072 5.23706L6.81702 5.2282L6.84344 5.21961L6.86997 5.21129L6.89661 5.20323L6.92336 5.19545L6.95022 5.18794L6.97717 5.1807L7.00423 5.17374L7.03139 5.16706L7.05864 5.16065L7.08599 5.15452L7.11342 5.14868L7.14094 5.14311L7.16855 5.13783L7.19624 5.13283L7.22401 5.12812L7.25185 5.1237L7.27977 5.11956L7.30776 5.11572L7.33581 5.11216L7.36393 5.10889L7.39212 5.10592L7.42036 5.10324L7.44866 5.10085L7.47701 5.09875L7.50542 5.09696L7.53387 5.09546L7.56237 5.09425L7.59091 5.09335L7.61949 5.09274L7.6481 5.09243L7.67675 5.09243L7.70543 5.09272L7.73414 5.09332L7.76288 5.09422L7.79163 5.09542L7.8204 5.09692L7.84919 5.09873L7.87799 5.10084L7.90681 5.10326L7.93563 5.10598L7.96445 5.10901L7.99327 5.11234L8.02209 5.11598L8.05091 5.11993L8.07972 5.12418L8.10851 5.12874L8.13729 5.13361L8.16606 5.13878L8.1948 5.14427L8.22352 5.15006L8.25222 5.15615L8.28088 5.16256L8.30951 5.16927L8.33811 5.17629L8.36667 5.18362L8.39518 5.19125L8.42365 5.1992L8.45207 5.20744L8.48044 5.216L8.50876 5.22486L8.53702 5.23403L8.56521 5.24351L8.59335 5.25329L8.62142 5.26338L8.64942 5.27377L8.67734 5.28446L8.70519 5.29546L8.73296 5.30677L8.76065 5.31837L8.78825 5.33028L8.81577 5.34249L8.84319 5.355L8.87052 5.36782L8.89775 5.38093L8.92488 5.39434L8.95191 5.40805L8.97883 5.42206L9.00565 5.43636L9.03235 5.45096L9.05893 5.46585L9.0854 5.48104L9.11174 5.49652L9.13796 5.5123L9.16405 5.52836L9.19001 5.54471L9.21584 5.56136L9.24153 5.57829L9.26708 5.5955L9.29248 5.61301L9.31775 5.63079L9.34286 5.64886L9.36782 5.66721L9.39263 5.68584L9.41728 5.70475L9.44177 5.72394L9.4661 5.7434L9.49026 5.76314L9.51425 5.78315L9.53807 5.80343L9.56172 5.82398L9.58519 5.8448L9.60848 5.86588L9.63159 5.88723L9.65451 5.90885L9.67724 5.93072L9.69978 5.95286L9.72213 5.97525L9.74428 5.9979L9.76623 6.02081L9.78797 6.04396L9.80952 6.06737L9.83085 6.09103L9.85198 6.11493L9.87289 6.13908L9.89359 6.16347L9.91407 6.1881L9.93433 6.21297L9.95437 6.23808L9.97418 6.26342L9.99376 6.28899L10.0131 6.31479L10.0322 6.34082L10.0511 6.36708L10.0698 6.39356L10.0882 6.42026L10.1063 6.44718L10.1242 6.47431L10.1419 6.50166L10.1593 6.52922L10.1765 6.55699L10.1934 6.58497L10.2101 6.61315L10.2265 6.64153L10.2426 6.67011L10.2585 6.69888L10.2741 6.72785L10.2894 6.75702L10.3045 6.78636L10.3193 6.8159L10.3338 6.84562L10.348 6.87552L10.362 6.90559L10.3757 6.93584L10.3891 6.96627L10.4022 6.99686L10.415 7.02762L10.4276 7.05854L10.4398 7.08962L10.4518 7.12086L10.4635 7.15225L10.4749 7.1838L10.4859 7.21549L10.4967 7.24733L10.5072 7.27932L10.5174 7.31144L10.5272 7.3437L10.5368 7.37609L10.5461 7.40862L10.555 7.44127L10.5637 7.47404L10.572 7.50693L10.58 7.53995L10.5877 7.57308L10.5951 7.60631L10.6022 7.63966L10.6089 7.67311L10.6154 7.70667L10.6215 7.74032L10.6273 7.77406L10.6327 7.8079L10.6379 7.84183L10.6427 7.87584L10.6472 7.90993L10.6513 7.9441L10.6551 7.97835L10.6586 8.01267L10.6618 8.04705L10.6646 8.0815L10.6671 8.11601L10.6693 8.15058L10.6711 8.1852L10.6726 8.21988L10.6738 8.2546L10.6746 8.28936L10.6751 8.32416L10.6752 8.359L10.675 8.39388L10.6745 8.42878L10.6736 8.46371L10.6724 8.49866L10.6708 8.53363L10.6689 8.56862L10.6667 8.60361L10.6641 8.63862L10.6612 8.67363L10.6579 8.70863L10.6543 8.74364L10.6503 8.77864L10.646 8.81363L10.6414 8.84861L10.6364 8.88356L10.631 8.9185L10.6253 8.95341L10.6193 8.9883L10.6129 9.02315L10.6062 9.05796L10.5991 9.09274L10.5917 9.12747L10.5839 9.16216L10.5758 9.1968L10.5674 9.23138L10.5586 9.2659L10.5495 9.30036L10.54 9.33476L10.5302 9.36909L10.52 9.40334L10.5095 9.43752L10.4986 9.47162L10.4874 9.50564L10.4759 9.53956L10.464 9.5734L10.4518 9.60714L10.4392 9.64079L10.4263 9.67433L10.4131 9.70776L10.3995 9.74109L10.3856 9.7743L10.3714 9.8074L10.3568 9.84038L10.3419 9.87323L10.3267 9.90596L10.3111 9.93855L10.2952 9.97101L10.2789 10.0033L10.2624 10.0355L10.2455 10.0675L10.2283 10.0994L10.2107 10.1312L10.1928 10.1627L10.1747 10.1942L10.1561 10.2254L10.1373 10.2565L10.1182 10.2874L10.0987 10.3181L10.0789 10.3487L10.0588 10.3791L10.0384 10.4093L10.0177 10.4393L9.99663 10.4691L9.97528 10.4988L9.95363 10.5282L9.93168 10.5574L9.90942 10.5864L9.88686 10.6152L9.864 10.6438L9.84084 10.6722L9.81739 10.7004L9.79364 10.7284L9.7696 10.7561L9.74527 10.7836L9.72066 10.8108L9.69575 10.8379L9.67056 10.8647L9.64509 10.8912L9.61934 10.9175L9.59332 10.9436L9.56701 10.9694L9.54044 10.9949L9.51359 11.0202L9.48648 11.0453L9.45909 11.0701L9.43145 11.0946L9.40354 11.1188L9.37537 11.1428L9.34695 11.1665L9.31827 11.1899L9.28934 11.213L9.26016 11.2359L9.23074 11.2585L9.20107 11.2807L9.17115 11.3027L9.141 11.3244L9.11062 11.3458L9.08 11.3669L9.04915 11.3877L9.01807 11.4082L8.98677 11.4284L8.95525 11.4483L8.9235 11.4678L8.89154 11.4871L8.85937 11.506L8.82698 11.5246L8.79439 11.5429L8.7616 11.5608L8.7286 11.5785L8.6954 11.5958L8.66201 11.6127L8.62843 11.6293L8.59466 11.6456L8.5607 11.6616L8.52656 11.6772L8.49224 11.6925L8.45774 11.7074L8.42307 11.722L8.38823 11.7362L8.35322 11.75L8.31805 11.7636L8.28272 11.7767L8.24724 11.7895L8.2116 11.802L8.17581 11.814L8.13987 11.8257L8.10379 11.8371L8.06758 11.8481L8.03122 11.8587L7.99474 11.8689L7.95813 11.8788L7.92139 11.8883L7.88453 11.8974L7.84755 11.9061L7.81045 11.9145L7.77325 11.9224L7.73594 11.93L7.69852 11.9372L7.66101 11.9441L7.6234 11.9505L7.58569 11.9566L7.5479 11.9622L7.51003 11.9675L7.47207 11.9724L7.43403 11.9769L7.39592 11.9809L7.35774 11.9846L7.3195 11.9879L7.28119 11.9908L7.24283 11.9934L7.20441 11.9955L7.16594 11.9972L7.12742 11.9985L7.08886 11.9994L7.05026 11.9999L7.01162 12L6.97296 11.9997L6.93426 11.999L6.89555 11.9979L6.85681 11.9964L6.81806 11.9945L6.7793 11.9921L6.74053 11.9894L6.70175 11.9863L6.66298 11.9827L6.62421 11.9788L6.58545 11.9744L6.5467 11.9696L6.50797 11.9644L6.46926 11.9589L6.43057 11.9529L6.39192 11.9465L6.35329 11.9396L6.3147 11.9324L6.27615 11.9248L6.23765 11.9168L6.19919 11.9083L6.16079 11.8995L6.12244 11.8902L6.08416 11.8805L6.04594 11.8704L6.00779 11.86L5.96971 11.8491L5.9317 11.8378L5.89378 11.8261L5.85595 11.814L5.8182 11.8015L5.78054 11.7885L5.74298 11.7752L5.70553 11.7615L5.66818 11.7474L5.63093 11.7329L5.5938 11.718L5.55679 11.7026L5.5199 11.6869L5.48313 11.6708L5.44649 11.6543L5.40998 11.6374L5.37362 11.6201L5.33739 11.6024L5.3013 11.5843L5.26537 11.5658L5.22959 11.547L5.19396 11.5277L5.1585 11.5081L5.1232 11.4881L5.08806 11.4677L5.0531 11.4469L5.01832 11.4257L4.98371 11.4042L4.94929 11.3823L4.91506 11.36L4.88101 11.3373L4.84717 11.3142L4.81352 11.2908L4.78007 11.267L4.74683 11.2429L4.7138 11.2184L4.68098 11.1935L4.64839 11.1683L4.61601 11.1427L4.58386 11.1167L4.55193 11.0904L4.52024 11.0637L4.48878 11.0367L4.45757 11.0094L4.42659 10.9817L4.39586 10.9536L4.36539 10.9252L4.33516 10.8965L4.30519 10.8674L4.27549 10.838L4.24604 10.8083L4.21687 10.7783L4.18796 10.7479L4.15933 10.7172L4.13098 10.6861L4.10291 10.6548L4.07512 10.6231L4.04762 10.5911L4.02041 10.5588L3.99349 10.5262L3.96688 10.4933L3.94056 10.4601L3.91454 10.4266L3.88883 10.3928L3.86344 10.3588L3.83835 10.3244L3.81358 10.2897L3.78913 10.2548L3.765 10.2195L3.7412 10.184L3.71772 10.1483L3.69457 10.1122L3.67176 10.0759L3.64929 10.0393L3.62715 10.0025L3.60536 9.96536L3.58391 9.92801L3.56281 9.89041L3.54205 9.85255L3.52166 9.81446L3.50161 9.77613L3.48193 9.73755L3.4626 9.69875L3.44364 9.65972L3.42504 9.62046L3.40682 9.58098L3.38896 9.54128L3.37148 9.50137L3.35437 9.46124L3.33764 9.42091L3.32128 9.38038L3.30532 9.33964L3.28973 9.29871L3.27453 9.25759L3.25972 9.21629L3.2453 9.1748L3.23128 9.13312L3.21765 9.09128L3.20441 9.04926L3.19158 9.00707L3.17914 8.96472L3.16711 8.92222L3.15548 8.87955L3.14426 8.83674L3.13345 8.79378L3.12304 8.75067L3.11305 8.70743L3.10347 8.66405L3.09431 8.62054L3.08556 8.57691L3.07723 8.53315L3.06931 8.48928L3.06182 8.44529L3.05475 8.4012L3.04811 8.357L3.04189 8.3127L3.03609 8.2683L3.03072 8.22381L3.02578 8.17924L3.02127 8.13459L3.01719 8.08985L3.01354 8.04505L3.01032 8.00017L3.00754 7.95523L3.00519 7.91023L3.00328 7.86517L3.0018 7.82007L3.00077 7.77491L3.00016 7.72972L3 7.68449L3.00028 7.63922L3.00099 7.59393L3.00215 7.54861L3.00374 7.50327L3.00578 7.45792L3.00826 7.41256L3.01118 7.3672L3.01455 7.32183L3.01835 7.27647L3.0226 7.23112L3.0273 7.18578L3.03243 7.14046L3.03801 7.09516L3.04404 7.04989L3.0505 7.00465L3.05741 6.95945L3.06477 6.91429L3.07257 6.86917L3.08081 6.82411L3.08949 6.7791L3.09862 6.73415L3.10819 6.68927L3.1182 6.64445L3.12865 6.59971L3.13955 6.55505L3.15088 6.51047L3.16266 6.46598L3.17488 6.42158L3.18753 6.37729L3.20063 6.33309L3.21416 6.289L3.22813 6.24502L3.24253 6.20116L3.25737 6.15741L3.27265 6.1138L3.28836 6.07031L3.3045 6.02696L3.32107 5.98375L3.33807 5.94068L3.35551 5.89776L3.37337 5.85499L3.39165 5.81238L3.41037 5.76994L3.42951 5.72766L3.44907 5.68555L3.46905 5.64362L3.48945 5.60187L3.51027 5.5603L3.53151 5.51892L3.55317 5.47774L3.57524 5.43675L3.59772 5.39597L3.62061 5.3554L3.64391 5.31504L3.66762 5.27489L3.69173 5.23496L3.71625 5.19526L3.74117 5.15579L3.76648 5.11655L3.7922 5.07755L3.81831 5.0388L3.84481 5.00029L3.87171 4.96203L3.89899 4.92402L3.92666 4.88628L3.95471 4.8488L3.98315 4.81159L4.01197 4.77465L4.04116 4.73798L4.07073 4.7016L4.10067 4.6655L4.13098 4.62969L4.16165 4.59417L4.1927 4.55894L4.2241 4.52402L4.25586 4.48941L4.28798 4.4551L4.32046 4.4211L4.35328 4.38742L4.38645 4.35406L4.41997 4.32103L4.45383 4.28832L4.48803 4.25595L4.52256 4.22391L4.55743 4.19221L4.59263 4.16085L4.62816 4.12984L4.66401 4.09918L4.70017 4.06887L4.73666 4.03892L4.77346 4.00933L4.81057 3.98011L4.84799 3.95125L4.88571 3.92277L4.92374 3.89466L4.96206 3.86692L5.00067 3.83957L5.03958 3.81261L5.07877 3.78603L5.11824 3.75984L5.15799 3.73405L5.19802 3.70866L5.23832 3.68367L5.27888 3.65908L5.31972 3.6349L5.36081 3.61112L5.40216 3.58777L5.44376 3.56482L5.48561 3.5423L5.52771 3.5202L5.57004 3.49852L5.61262 3.47727L5.65542 3.45645L5.69846 3.43606L5.74172 3.41611L5.7852 3.3966L5.8289 3.37752L5.87281 3.3589L5.91693 3.34071L5.96125 3.32298L6.00577 3.30569L6.05049 3.28886L6.0954 3.27248L6.1405 3.25656L6.18577 3.2411L6.23123 3.2261L6.27686 3.21157L6.32266 3.1975L6.36863 3.18391L6.41476 3.17078L6.46104 3.15812L6.50747 3.14594L6.55405 3.13423L6.60078 3.123L6.64764 3.11226L6.69463 3.10199L6.74175 3.09221L6.789 3.08291L6.83637 3.07409L6.88385 3.06577L6.93144 3.05793L6.97914 3.05059L7.02694 3.04374L7.07483 3.03738L7.12281 3.03151L7.17089 3.02615L7.21904 3.02128L7.26727 3.0169L7.31557 3.01303L7.36394 3.00966L7.41237 3.00679L7.46086 3.00442L7.5094 3.00256L7.55799 3.0012L7.60662 3.00035L7.65529 3L7.70399 3.00016L7.75273 3.00082L7.80148 3.002L7.85025 3.00368L7.89904 3.00587L7.94784 3.00857L7.99663 3.01178L8.04543 3.0155L8.09422 3.01974L8.143 3.02448L8.19176 3.02973L8.2405 3.03549L8.28922 3.04177L8.3379 3.04855L8.38655 3.05585L8.43516 3.06366L8.48371 3.07198L8.53222 3.08081L8.58067 3.09015L8.62906 3.1L8.67739 3.11036L8.72564 3.12123L8.77382 3.1326L8.82191 3.14449L8.86992 3.15689L8.91784 3.16979L8.96566 3.1832L9.01338 3.19711L9.06099 3.21153L9.10849 3.22646L9.15588 3.24188L9.20314 3.25781L9.25028 3.27425L9.29728 3.29118L9.34416 3.30861L9.39088 3.32654L9.43747 3.34497L9.4839 3.36389L9.53018 3.38331L9.57629 3.40322L9.62224 3.42363L9.66802 3.44452L9.71362 3.46591L9.75905 3.48778L9.80429 3.51013L9.84933 3.53298L9.89419 3.5563L9.93884 3.5801L9.98329 3.60439L10.0275 3.62915L10.0716 3.65438L10.1154 3.68009L10.1589 3.70627L10.2023 3.73292L10.2454 3.76004L10.2883 3.78762L10.331 3.81567L10.3734 3.84417L10.4155 3.87313L10.4574 3.90255L10.499 3.93242L10.5404 3.96275L10.5815 3.99352L10.6223 4.02473L10.6628 4.05639L10.7031 4.08849L10.7431 4.12103L10.7827 4.154L10.8221 4.18741L10.8612 4.22124L10.9 4.25551L10.9384 4.29019L10.9766 4.3253L11.0144 4.36082L11.0519 4.39676L11.0891 4.43311L11.1259 4.46986L11.1625 4.50702L11.1986 4.54459L11.2345 4.58255L11.27 4.62091L11.3051 4.65966L11.3399 4.69879L11.3743 4.73831L11.4084 4.77821L11.4421 4.81849L11.4754 4.85915L11.5083 4.90017L11.5409 4.94156L11.5731 4.98331L11.6049 5.02543L11.6363 5.06789L11.6673 5.11071L11.6979 5.15388L11.7281 5.19739L11.7579 5.24123L11.7873 5.28542L11.8163 5.32993L11.8449 5.37478L11.8731 5.41994L11.9008 5.46543L11.9281 5.51122L11.955 5.55733L11.9814 5.60375L12.0074 5.65046L12.033 5.69748L12.0582 5.74479L12.0829 5.79238L12.1071 5.84026L12.1309 5.88842L12.1542 5.93685L12.1771 5.98556L12.1995 6.03453L12.2215 6.08376L12.243 6.13325L12.264 6.18298L12.2846 6.23297L12.3047 6.2832L12.3243 6.33366L12.3434 6.38436L12.3621 6.43529L12.3803 6.48644L12.398 6.5378L12.4152 6.58938L12.4319 6.64117L12.4481 6.69316L12.4638 6.74535L12.479 6.79773L12.4937 6.8503L12.508 6.90305L12.5217 6.95598L12.5349 7.00908L12.5476 7.06234L12.5598 7.11578L12.5715 7.16936L12.5827 7.2231L12.5933 7.27698L12.6035 7.33101L12.6131 7.38517L12.6222 7.43946L12.6308 7.49388L12.6388 7.54841L12.6464 7.60306L12.6534 7.65782L12.6599 7.71268L12.6658 7.76764L12.6713 7.82269L12.6762 7.87783L13 11.8581L12.6844 7.98835" stroke="#646464"/>
</svg>
