<svg width="46" height="53" viewBox="0 0 46 53" fill="none" xmlns="http://www.w3.org/2000/svg">
<path d="M14.1955 23.5738C13.7208 24.2547 12.7004 24.601 11.2454 24.4272C9.81457 24.2564 8.09685 23.5887 6.45159 22.4417C4.80634 21.2947 3.58575 19.9139 2.93056 18.6305C2.26429 17.3254 2.23627 16.2482 2.71095 15.5673C3.18564 14.8864 4.20609 14.5401 5.66108 14.7138C7.09189 14.8847 8.80962 15.5524 10.4549 16.6994C12.1001 17.8464 13.3207 19.2272 13.9759 20.5106C14.6422 21.8157 14.6702 22.8929 14.1955 23.5738Z" fill="url(#paint0_radial_504_34)" stroke="#7A7266"/>
<path d="M14.9408 37.1996C14.629 37.9688 13.7109 38.5329 12.2536 38.6864C10.8206 38.8374 8.99751 38.5676 7.13872 37.8143C5.27994 37.0611 3.78334 35.9856 2.85965 34.8796C1.92035 33.7549 1.65395 32.7108 1.96568 31.9415C2.27741 31.1723 3.19556 30.6081 4.65283 30.4546C6.08588 30.3037 7.90895 30.5735 9.76774 31.3268C11.6265 32.08 13.1231 33.1555 14.0468 34.2615C14.9861 35.3861 15.2525 36.4303 14.9408 37.1996Z" fill="url(#paint1_radial_504_34)" stroke="#7A7266"/>
<path d="M28.3225 50.3129C27.629 50.7689 26.5529 50.7118 25.2664 50.0104C24.0012 49.3206 22.654 48.0631 21.552 46.3874C20.45 44.7116 19.8291 42.9765 19.697 41.5415C19.5627 40.0824 19.9366 39.0717 20.63 38.6156C21.3235 38.1596 22.3996 38.2168 23.6862 38.9181C24.9514 39.6079 26.2986 40.8654 27.4006 42.5411C28.5026 44.2169 29.1235 45.952 29.2556 47.387C29.3898 48.8461 29.016 49.8568 28.3225 50.3129Z" fill="url(#paint2_radial_504_34)" stroke="#7A7266"/>
<path d="M42.1248 30.6545C41.865 31.4429 40.9866 32.067 39.5428 32.3174C38.123 32.5636 36.286 32.4161 34.3811 31.7885C32.4762 31.161 30.9112 30.1878 29.9158 29.1459C28.9035 28.0864 28.568 27.0623 28.8277 26.274C29.0874 25.4856 29.9659 24.8615 31.4097 24.6111C32.8295 24.3649 34.6665 24.5124 36.5714 25.14C38.4763 25.7675 40.0413 26.7407 41.0367 27.7826C42.049 28.8421 42.3845 29.8662 42.1248 30.6545Z" fill="url(#paint3_radial_504_34)" stroke="#7A7266"/>
<path d="M28.3879 4.07896C28.3959 4.90894 27.7651 5.78267 26.4788 6.48457C25.2139 7.1748 23.4272 7.62655 21.4217 7.64572C19.4162 7.6649 17.6212 7.2474 16.3433 6.58148C15.0438 5.90431 14.3965 5.04279 14.3886 4.21281C14.3806 3.38283 15.0114 2.50909 16.2976 1.8072C17.5626 1.11696 19.3493 0.665219 21.3548 0.646043C23.3603 0.626868 25.1553 1.04437 26.4332 1.71029C27.7327 2.38746 28.38 3.24898 28.3879 4.07896Z" fill="url(#paint4_radial_504_34)" stroke="#7A7266"/>
<path d="M41.8293 1.28902C42.6426 1.45483 43.3651 2.25434 43.7824 3.65898C44.1929 5.04027 44.261 6.88194 43.8603 8.84712C43.4596 10.8123 42.676 12.4803 41.7575 13.5907C40.8236 14.7198 39.8457 15.1726 39.0324 15.0068C38.2192 14.841 37.4966 14.0415 37.0793 12.6368C36.6688 11.2556 36.6007 9.41389 37.0014 7.4487C37.4021 5.48352 38.1857 3.81551 39.1042 2.70516C40.0381 1.57604 41.016 1.1232 41.8293 1.28902Z" fill="url(#paint5_radial_504_34)" stroke="#7A7266"/>
<defs>
<radialGradient id="paint0_radial_504_34" cx="0" cy="0" r="1" gradientUnits="userSpaceOnUse" gradientTransform="translate(8.45323 19.5705) rotate(124.883) scale(4 7.5)">
<stop stop-color="#E0FC37"/>
<stop offset="1" stop-color="#C1BCB3"/>
</radialGradient>
<radialGradient id="paint1_radial_504_34" cx="0" cy="0" r="1" gradientUnits="userSpaceOnUse" gradientTransform="translate(8.45323 34.5705) rotate(112.06) scale(4 7.5)">
<stop stop-color="#E0FC37"/>
<stop offset="1" stop-color="#C1BCB3"/>
</radialGradient>
<radialGradient id="paint2_radial_504_34" cx="0" cy="0" r="1" gradientUnits="userSpaceOnUse" gradientTransform="translate(24.4763 44.4643) rotate(146.67) scale(4 7.5)">
<stop stop-color="#E0FC37"/>
<stop offset="1" stop-color="#C1BCB3"/>
</radialGradient>
<radialGradient id="paint3_radial_504_34" cx="0" cy="0" r="1" gradientUnits="userSpaceOnUse" gradientTransform="translate(35.4762 28.4642) rotate(108.234) scale(4 7.5)">
<stop stop-color="#E0FC37"/>
<stop offset="1" stop-color="#C1BCB3"/>
</radialGradient>
<radialGradient id="paint4_radial_504_34" cx="0" cy="0" r="1" gradientUnits="userSpaceOnUse" gradientTransform="translate(21.3882 4.14588) rotate(89.4522) scale(4 7.5)">
<stop stop-color="#E0FC37"/>
<stop offset="1" stop-color="#C1BCB3"/>
</radialGradient>
<radialGradient id="paint5_radial_504_34" cx="0" cy="0" r="1" gradientUnits="userSpaceOnUse" gradientTransform="translate(40.4309 8.14791) rotate(11.5237) scale(4 7.5)">
<stop stop-color="#E0FC37"/>
<stop offset="1" stop-color="#C1BCB3"/>
</radialGradient>
</defs>
</svg>
