<svg width="52" height="52" viewBox="0 0 52 52" fill="none" xmlns="http://www.w3.org/2000/svg">
<circle cx="26" cy="27" r="16.5" stroke="url(#paint0_linear_504_46)"/>
<path d="M14.3327 38.6673C12.0252 36.3597 10.4537 33.4197 9.81704 30.219C9.18039 27.0183 9.50714 23.7007 10.756 20.6857C12.0048 17.6707 14.1197 15.0938 16.8331 13.2808C19.5465 11.4677 22.7366 10.5 26 10.5C29.2634 10.5 32.4535 11.4677 35.1669 13.2808C37.8803 15.0938 39.9952 17.6707 41.244 20.6857C42.4929 23.7007 42.8196 27.0183 42.183 30.219C41.5463 33.4197 39.9748 36.3597 37.6673 38.6673" stroke="url(#paint1_linear_504_46)" stroke-width="3"/>
<circle cx="26" cy="26" r="24.5" stroke="url(#paint2_linear_504_46)"/>
<path d="M8.67588 43.3241C5.2495 39.8977 2.9161 35.5322 1.97076 30.7797C1.02542 26.0272 1.5106 21.101 3.36495 16.6243C5.2193 12.1475 8.35953 8.32109 12.3885 5.62899C16.4175 2.9369 21.1544 1.5 26 1.5C30.8456 1.5 35.5825 2.9369 39.6115 5.62899C43.6405 8.32109 46.7807 12.1475 48.635 16.6243C50.4894 21.101 50.9746 26.0272 50.0292 30.7797C49.0839 35.5322 46.7505 39.8977 43.3241 43.3241" stroke="url(#paint3_linear_504_46)" stroke-width="3"/>
<path d="M21.2835 26.9462C21.1468 27.1478 20.8041 27.3131 20.1779 27.2362C19.5744 27.162 18.829 26.8683 18.1046 26.349C17.3803 25.8297 16.8544 25.2121 16.578 24.6555C16.2913 24.0779 16.3235 23.6901 16.4602 23.4886C16.5969 23.287 16.9395 23.1217 17.5657 23.1986C18.1692 23.2727 18.9147 23.5665 19.639 24.0858C20.3634 24.6051 20.8893 25.2227 21.1657 25.7793C21.4524 26.3569 21.4201 26.7447 21.2835 26.9462Z" fill="url(#paint4_radial_504_46)" stroke="#7A7266"/>
<path d="M21.5941 33.4165C21.5028 33.6481 21.202 33.8867 20.577 33.9544C19.9735 34.0197 19.1844 33.9036 18.3671 33.563C17.5498 33.2224 16.9047 32.7409 16.5157 32.262C16.1128 31.766 16.0584 31.3794 16.1497 31.1478C16.2409 30.9163 16.5417 30.6777 17.1667 30.61C17.7702 30.5446 18.5593 30.6608 19.3766 31.0013C20.194 31.3419 20.8391 31.8234 21.228 32.3023C21.6309 32.7983 21.6853 33.185 21.5941 33.4165Z" fill="url(#paint5_radial_504_46)" stroke="#7A7266"/>
<path d="M27.829 39.4721C27.6361 39.6026 27.2613 39.6292 26.7038 39.3166C26.1684 39.0165 25.5806 38.4576 25.0942 37.697C24.6078 36.9365 24.3416 36.1601 24.2858 35.5358C24.2276 34.8855 24.3998 34.5423 24.5927 34.4118C24.7856 34.2814 25.1603 34.2548 25.7179 34.5673C26.2532 34.8674 26.841 35.4264 27.3274 36.1869C27.8138 36.9475 28.08 37.7238 28.1359 38.3482C28.1941 38.9984 28.0219 39.3417 27.829 39.4721Z" fill="url(#paint6_radial_504_46)" stroke="#7A7266"/>
<path d="M34.0384 30.3511C33.9621 30.5892 33.6769 30.8478 33.0581 30.9582C32.4605 31.0647 31.6659 31.003 30.8285 30.7194C29.9911 30.4357 29.3165 29.9997 28.8974 29.5487C28.4636 29.0818 28.3838 28.6995 28.4601 28.4614C28.5364 28.2232 28.8216 27.9646 29.4403 27.8542C30.038 27.7477 30.8326 27.8094 31.6699 28.093C32.5073 28.3767 33.182 28.8127 33.601 29.2637C34.0348 29.7306 34.1147 30.1129 34.0384 30.3511Z" fill="url(#paint7_radial_504_46)" stroke="#7A7266"/>
<path d="M27.7315 17.9238C27.7339 18.1767 27.5436 18.5161 26.9933 18.8248C26.4613 19.1234 25.6903 19.3279 24.8093 19.3365C23.9283 19.3452 23.1537 19.1559 22.6162 18.8679C22.0603 18.57 21.8637 18.2344 21.8614 17.9815C21.859 17.7286 22.0494 17.3892 22.5996 17.0805C23.1316 16.7819 23.9026 16.5774 24.7836 16.5688C25.6646 16.5601 26.4392 16.7494 26.9767 17.0374C27.5326 17.3353 27.7292 17.6709 27.7315 17.9238Z" fill="url(#paint8_radial_504_46)" stroke="#7A7266"/>
<path d="M34.1075 16.8668C34.328 16.913 34.6123 17.1623 34.7941 17.7914C34.9682 18.3937 35.0015 19.2179 34.8243 20.1113C34.6472 21.0047 34.3028 21.7497 33.9133 22.2338C33.5065 22.7396 33.15 22.8545 32.9295 22.8083C32.709 22.762 32.4247 22.5128 32.2429 21.8836C32.0689 21.2813 32.0355 20.4572 32.2127 19.5638C32.3898 18.6703 32.7343 17.9254 33.1237 17.4412C33.5305 16.9355 33.887 16.8206 34.1075 16.8668Z" fill="url(#paint9_radial_504_46)" stroke="#7A7266"/>
<defs>
<linearGradient id="paint0_linear_504_46" x1="26" y1="10" x2="26" y2="44" gradientUnits="userSpaceOnUse">
<stop offset="0.84375" stop-color="#C3FA26" stop-opacity="0.1"/>
<stop offset="1" stop-color="#D9D4CD" stop-opacity="0.74"/>
</linearGradient>
<linearGradient id="paint1_linear_504_46" x1="26" y1="9" x2="26" y2="38" gradientUnits="userSpaceOnUse">
<stop stop-color="#FFBF84"/>
<stop offset="1" stop-color="white" stop-opacity="0"/>
</linearGradient>
<linearGradient id="paint2_linear_504_46" x1="26" y1="1" x2="26" y2="51" gradientUnits="userSpaceOnUse">
<stop offset="0.744792" stop-color="#E3C598" stop-opacity="0.1"/>
<stop offset="1" stop-color="#D5FFC1"/>
</linearGradient>
<linearGradient id="paint3_linear_504_46" x1="26" y1="0" x2="26" y2="41.8889" gradientUnits="userSpaceOnUse">
<stop stop-color="#FFBF84"/>
<stop offset="1" stop-color="white" stop-opacity="0"/>
</linearGradient>
<radialGradient id="paint4_radial_504_46" cx="0" cy="0" r="1" gradientUnits="userSpaceOnUse" gradientTransform="translate(18.8718 25.2174) rotate(124.137) scale(1.86715 3.46611)">
<stop stop-color="#E0FC37"/>
<stop offset="1" stop-color="#C1BCB3"/>
</radialGradient>
<radialGradient id="paint5_radial_504_46" cx="0" cy="0" r="1" gradientUnits="userSpaceOnUse" gradientTransform="translate(18.8719 32.2822) rotate(111.509) scale(1.87671 3.44844)">
<stop stop-color="#E0FC37"/>
<stop offset="1" stop-color="#C1BCB3"/>
</radialGradient>
<radialGradient id="paint6_radial_504_46" cx="0" cy="0" r="1" gradientUnits="userSpaceOnUse" gradientTransform="translate(26.2108 36.942) rotate(145.932) scale(1.84792 3.50219)">
<stop stop-color="#E0FC37"/>
<stop offset="1" stop-color="#C1BCB3"/>
</radialGradient>
<radialGradient id="paint7_radial_504_46" cx="0" cy="0" r="1" gradientUnits="userSpaceOnUse" gradientTransform="translate(31.2492 29.4062) rotate(107.764) scale(1.87893 3.44438)">
<stop stop-color="#E0FC37"/>
<stop offset="1" stop-color="#C1BCB3"/>
</radialGradient>
<radialGradient id="paint8_radial_504_46" cx="0" cy="0" r="1" gradientUnits="userSpaceOnUse" gradientTransform="translate(24.7965 17.9526) rotate(89.4673) scale(1.88393 3.43523)">
<stop stop-color="#E0FC37"/>
<stop offset="1" stop-color="#C1BCB3"/>
</radialGradient>
<radialGradient id="paint9_radial_504_46" cx="0" cy="0" r="1" gradientUnits="userSpaceOnUse" gradientTransform="translate(33.5185 19.8375) rotate(11.8406) scale(1.83422 3.52835)">
<stop stop-color="#E0FC37"/>
<stop offset="1" stop-color="#C1BCB3"/>
</radialGradient>
</defs>
</svg>
