<svg width="17" height="17" viewBox="0 0 17 17" fill="none" xmlns="http://www.w3.org/2000/svg">
<rect x="0.5" y="0.5" width="3" height="3" stroke="white"/>
<rect x="3.5" y="0.5" width="3" height="3" stroke="white"/>
<rect x="6.5" y="0.5" width="3" height="3" stroke="white"/>
<rect x="9.5" y="0.5" width="3" height="3" stroke="white"/>
<path d="M12.5 0.5H15.5V3.5H12.5V0.5Z" stroke="white"/>
<rect x="0.5" y="3.5" width="3" height="3" stroke="white"/>
<rect x="3.5" y="3.5" width="3" height="3" stroke="white"/>
<rect x="6.5" y="3.5" width="3" height="3" stroke="white"/>
<rect x="9.5" y="3.5" width="3" height="3" stroke="white"/>
<path d="M12.5 3.5H15.5V6.5H12.5V3.5Z" stroke="white"/>
<rect x="0.5" y="6.5" width="3" height="3" stroke="white"/>
<rect x="3.5" y="6.5" width="3" height="3" stroke="white"/>
<rect x="6.5" y="6.5" width="3" height="3" stroke="white"/>
<rect x="9.5" y="6.5" width="3" height="3" stroke="white"/>
<path d="M12.5 6.5H15.5V9.5H12.5V6.5Z" stroke="white"/>
<rect x="0.5" y="9.5" width="3" height="3" stroke="white"/>
<rect x="3.5" y="9.5" width="3" height="3" stroke="white"/>
<rect x="6.5" y="9.5" width="3" height="3" stroke="white"/>
<rect x="9.5" y="9.5" width="3" height="3" stroke="white"/>
<path d="M12.5 9.5H15.5V12.5H12.5V9.5Z" stroke="white"/>
<rect x="0.5" y="12.5" width="3" height="3" stroke="white"/>
<rect x="3.5" y="12.5" width="3" height="3" stroke="white"/>
<rect x="6.5" y="12.5" width="3" height="3" stroke="white"/>
<rect x="9.5" y="12.5" width="3" height="3" stroke="white"/>
<path d="M12.5 12.5H15.5V15.5H12.5V12.5Z" stroke="white"/>
<line x1="0.5" y1="1" x2="0.5" y2="17" stroke="white"/>
<path d="M16.5 0V17" stroke="white"/>
<line y1="16.5" x2="16" y2="16.5" stroke="white"/>
<line y1="0.5" x2="16" y2="0.5" stroke="white"/>
</svg>
