<svg width="40" height="31" viewBox="0 0 40 31" fill="none" xmlns="http://www.w3.org/2000/svg">
<path d="M30.682 18.6235C29.9056 22.3974 27.7515 25.7468 24.6396 28.0187C21.5278 30.2906 17.6814 31.3221 13.8503 30.912C10.0193 30.5019 6.47833 28.6797 3.91784 25.8007C1.35735 22.9216 -0.03908 19.1922 0.000832538 15.3395C0.0407451 11.4868 1.51414 7.78701 4.13372 4.96164C6.75331 2.13626 10.3313 0.387806 14.17 0.0571978C18.0087 -0.27341 21.8329 0.837529 24.897 3.1734C27.9611 5.50927 30.0454 8.90261 30.7435 12.6918L27.9522 13.206C27.382 10.1107 25.6794 7.33869 23.1763 5.43054C20.6733 3.5224 17.5493 2.61488 14.4135 2.88495C11.2777 3.15502 8.35493 4.58332 6.21502 6.89133C4.07511 9.19935 2.87151 12.2216 2.8389 15.3689C2.8063 18.5161 3.94703 21.5627 6.03866 23.9145C8.1303 26.2664 11.0229 27.7549 14.1524 28.0899C17.2819 28.4249 20.4241 27.5823 22.9661 25.7264C25.5081 23.8705 27.2678 21.1344 27.902 18.0516L30.682 18.6235Z" fill="white"/>
<path d="M30.4639 15.6911L19.7064 11.7504L34.994 5.16815L30.4639 15.6911Z" fill="white"/>
</svg>
