<svg width="15" height="15" viewBox="0 0 15 15" fill="none" xmlns="http://www.w3.org/2000/svg">
<rect width="15" height="15" fill="#E4E4E4" fill-opacity="0.87"/>
<path d="M8.63607 9.64295L8.62798 9.65887L8.61969 9.67475L8.61121 9.69058L8.60255 9.70635L8.59369 9.72206L8.58465 9.73772L8.57542 9.75332L8.566 9.76886L8.55639 9.78433L8.5466 9.79974L8.53662 9.81507L8.52645 9.83034L8.51609 9.84554L8.50555 9.86066L8.49483 9.87571L8.48392 9.89068L8.47283 9.90556L8.46155 9.92037L8.45009 9.93509L8.43845 9.94973L8.42663 9.96427L8.41463 9.97873L8.40244 9.9931L8.39008 10.0074L8.37754 10.0215L8.36482 10.0356L8.35193 10.0496L8.33886 10.0635L8.32561 10.0772L8.31219 10.0909L8.29859 10.1044L8.28482 10.1179L8.27089 10.1312L8.25677 10.1444L8.24249 10.1575L8.22805 10.1705L8.21343 10.1834L8.19865 10.1961L8.1837 10.2087L8.16859 10.2212L8.15331 10.2336L8.13787 10.2458L8.12227 10.2579L8.10652 10.2699L8.0906 10.2817L8.07452 10.2934L8.05829 10.305L8.04191 10.3164L8.02537 10.3277L8.00868 10.3388L7.99184 10.3498L7.97484 10.3606L7.95771 10.3713L7.94042 10.3819L7.92299 10.3922L7.90541 10.4025L7.8877 10.4125L7.86984 10.4225L7.85184 10.4322L7.83371 10.4418L7.81544 10.4512L7.79704 10.4605L7.7785 10.4696L7.75983 10.4785L7.74104 10.4873L7.72211 10.4959L7.70306 10.5043L7.68388 10.5125L7.66458 10.5206L7.64517 10.5285L7.62563 10.5362L7.60597 10.5437L7.5862 10.551L7.56631 10.5582L7.54632 10.5652L7.52621 10.572L7.506 10.5786L7.48568 10.585L7.46525 10.5912L7.44472 10.5972L7.4241 10.6031L7.40337 10.6087L7.38255 10.6142L7.36163 10.6194L7.34062 10.6245L7.31952 10.6293L7.29833 10.634L7.27706 10.6384L7.2557 10.6427L7.23426 10.6467L7.21275 10.6505L7.19115 10.6542L7.16948 10.6576L7.14773 10.6608L7.12592 10.6638L7.10403 10.6666L7.08208 10.6692L7.06006 10.6715L7.03798 10.6737L7.01585 10.6756L6.99365 10.6773L6.9714 10.6788L6.94909 10.6801L6.92674 10.6812L6.90434 10.682L6.88189 10.6826L6.85939 10.683L6.83686 10.6832L6.81429 10.6832L6.79168 10.6829L6.76903 10.6824L6.74636 10.6817L6.72365 10.6808L6.70092 10.6796L6.67817 10.6782L6.65539 10.6766L6.63259 10.6748L6.60978 10.6727L6.58695 10.6704L6.56411 10.6679L6.54126 10.6651L6.5184 10.6621L6.49554 10.6589L6.47268 10.6554L6.44981 10.6517L6.42695 10.6478L6.4041 10.6437L6.38125 10.6393L6.35842 10.6347L6.3356 10.6298L6.31279 10.6247L6.29 10.6194L6.26724 10.6139L6.24449 10.6081L6.22178 10.6021L6.19909 10.5959L6.17643 10.5894L6.15381 10.5827L6.13123 10.5757L6.10868 10.5685L6.08618 10.5611L6.06372 10.5535L6.0413 10.5456L6.01894 10.5375L5.99663 10.5291L5.97437 10.5205L5.95218 10.5117L5.93004 10.5027L5.90796 10.4934L5.88595 10.4839L5.86401 10.4741L5.84214 10.4642L5.82035 10.454L5.79863 10.4435L5.77698 10.4329L5.75542 10.422L5.73395 10.4109L5.71256 10.3995L5.69125 10.3879L5.67004 10.3761L5.64893 10.3641L5.62791 10.3518L5.60699 10.3394L5.58617 10.3266L5.56546 10.3137L5.54486 10.3006L5.52436 10.2872L5.50398 10.2736L5.48371 10.2598L5.46356 10.2457L5.44354 10.2315L5.42363 10.217L5.40385 10.2023L5.3842 10.1874L5.36467 10.1722L5.34528 10.1569L5.32603 10.1414L5.30691 10.1256L5.28794 10.1096L5.2691 10.0934L5.25041 10.077L5.23187 10.0604L5.21348 10.0436L5.19525 10.0266L5.17717 10.0094L5.15924 9.99195L5.14148 9.97433L5.12388 9.9565L5.10644 9.93848L5.08917 9.92026L5.07207 9.90184L5.05515 9.88323L5.03839 9.86443L5.02182 9.84543L5.00542 9.82625L4.9892 9.80688L4.97317 9.78732L4.95732 9.76757L4.94167 9.74764L4.9262 9.72753L4.91092 9.70724L4.89584 9.68677L4.88096 9.66612L4.86627 9.6453L4.85179 9.6243L4.83751 9.60313L4.82344 9.58179L4.80957 9.56029L4.79592 9.53862L4.78247 9.51678L4.76924 9.49478L4.75623 9.47262L4.74343 9.4503L4.73086 9.42783L4.7185 9.4052L4.70637 9.38242L4.69447 9.35948L4.68279 9.3364L4.67135 9.31318L4.66013 9.2898L4.64915 9.26629L4.63841 9.24264L4.6279 9.21885L4.61763 9.19492L4.6076 9.17086L4.59782 9.14667L4.58828 9.12235L4.57898 9.0979L4.56993 9.07333L4.56113 9.04863L4.55259 9.02382L4.54429 8.99889L4.53625 8.97384L4.52847 8.94868L4.52094 8.92341L4.51367 8.89804L4.50666 8.87256L4.49992 8.84697L4.49344 8.82128L4.48722 8.7955L4.48127 8.76962L4.47558 8.74365L4.47016 8.71759L4.46502 8.69144L4.46014 8.6652L4.45554 8.63889L4.45121 8.61249L4.44716 8.58602L4.44338 8.55947L4.43989 8.53284L4.43666 8.50615L4.43372 8.4794L4.43106 8.45257L4.42868 8.42569L4.42659 8.39875L4.42478 8.37175L4.42325 8.3447L4.42201 8.3176L4.42105 8.29045L4.42038 8.26326L4.42 8.23603L4.41991 8.20875L4.42011 8.18144L4.4206 8.1541L4.42138 8.12673L4.42246 8.09932L4.42382 8.0719L4.42548 8.04445L4.42743 8.01698L4.42968 7.9895L4.43222 7.962L4.43506 7.93449L4.43819 7.90698L4.44162 7.87946L4.44535 7.85194L4.44937 7.82442L4.45369 7.7969L4.45831 7.76939L4.46322 7.7419L4.46844 7.71441L4.47395 7.68694L4.47976 7.65949L4.48587 7.63207L4.49228 7.60467L4.49899 7.57729L4.506 7.54995L4.51331 7.52264L4.52091 7.49537L4.52882 7.46814L4.53702 7.44095L4.54552 7.41381L4.55433 7.38672L4.56342 7.35968L4.57282 7.33269L4.58252 7.30576L4.59251 7.2789L4.60281 7.2521L4.61339 7.22536L4.62428 7.1987L4.63546 7.17211L4.64694 7.1456L4.65871 7.11916L4.67078 7.09281L4.68314 7.06655L4.6958 7.04037L4.70875 7.01428L4.72199 6.98829L4.73553 6.9624L4.74935 6.93661L4.76347 6.91092L4.77787 6.88533L4.79257 6.85986L4.80755 6.8345L4.82282 6.80925L4.83837 6.78413L4.85421 6.75912L4.87034 6.73424L4.88675 6.70949L4.90344 6.68486L4.92041 6.66037L4.93766 6.63602L4.95519 6.6118L4.973 6.58773L4.99108 6.5638L5.00944 6.54002L5.02807 6.5164L5.04698 6.49292L5.06616 6.4696L5.08561 6.44644L5.10532 6.42344L5.1253 6.40061L5.14555 6.37795L5.16607 6.35545L5.18684 6.33314L5.20788 6.31099L5.22917 6.28903L5.25073 6.26724L5.27254 6.24565L5.2946 6.22424L5.31692 6.20301L5.33949 6.18199L5.3623 6.16115L5.38537 6.14052L5.40868 6.12009L5.43223 6.09986L5.45603 6.07983L5.48006 6.06002L5.50433 6.04041L5.52884 6.02102L5.55358 6.00185L5.57856 5.9829L5.60376 5.96416L5.62919 5.94565L5.65485 5.92737L5.68072 5.90932L5.70682 5.8915L5.73314 5.87391L5.75968 5.85656L5.78643 5.83944L5.81339 5.82257L5.84056 5.80594L5.86793 5.78956L5.89552 5.77343L5.9233 5.75754L5.95128 5.74191L5.97946 5.72654L6.00784 5.71142L6.03641 5.69656L6.06516 5.68196L6.09411 5.66762L6.12324 5.65355L6.15255 5.63975L6.18204 5.62622L6.2117 5.61296L6.24154 5.59998L6.27155 5.58727L6.30173 5.57484L6.33207 5.56269L6.36258 5.55082L6.39324 5.53923L6.42406 5.52793L6.45504 5.51692L6.48617 5.5062L6.51744 5.49577L6.54886 5.48563L6.58042 5.47578L6.61213 5.46624L6.64396 5.45699L6.67593 5.44804L6.70803 5.43939L6.74026 5.43104L6.77261 5.423L6.80508 5.41527L6.83767 5.40784L6.87037 5.40072L6.90319 5.39391L6.93611 5.38742L6.96913 5.38124L7.00226 5.37537L7.03549 5.36982L7.06881 5.36458L7.10222 5.35967L7.13572 5.35507L7.16931 5.35079L7.20297 5.34684L7.23672 5.34321L7.27054 5.33991L7.30443 5.33693L7.33839 5.33428L7.37242 5.33195L7.4065 5.32995L7.44064 5.32828L7.47484 5.32695L7.50909 5.32594L7.54339 5.32527L7.57772 5.32493L7.6121 5.32492L7.64652 5.32525L7.68097 5.32591L7.71545 5.32691L7.74996 5.32824L7.78448 5.32991L7.81903 5.33192L7.85359 5.33427L7.88817 5.33695L7.92275 5.33998L7.95734 5.34334L7.99193 5.34705L8.02651 5.35109L8.06109 5.35548L8.09566 5.3602L8.13022 5.36527L8.16475 5.37068L8.19927 5.37643L8.23376 5.38252L8.26823 5.38895L8.30266 5.39573L8.33706 5.40284L8.37142 5.4103L8.40573 5.4181L8.44 5.42624L8.47422 5.43473L8.50838 5.44355L8.54249 5.45272L8.57653 5.46222L8.61051 5.47207L8.64442 5.48226L8.67826 5.49279L8.71202 5.50365L8.7457 5.51486L8.7793 5.52641L8.81281 5.53829L8.84623 5.55051L8.87955 5.56307L8.91278 5.57597L8.9459 5.5892L8.97892 5.60277L9.01183 5.61667L9.04462 5.63091L9.0773 5.64548L9.10986 5.66038L9.1423 5.67561L9.1746 5.69117L9.20678 5.70707L9.23882 5.72329L9.27072 5.73984L9.30247 5.75671L9.33409 5.77391L9.36555 5.79144L9.39686 5.80929L9.42801 5.82746L9.459 5.84595L9.48983 5.86476L9.52049 5.88389L9.55098 5.90334L9.5813 5.9231L9.61143 5.94318L9.64139 5.96357L9.67116 5.98427L9.70074 6.00528L9.73013 6.0266L9.75932 6.04822L9.78831 6.07015L9.8171 6.09238L9.84569 6.11492L9.87407 6.13775L9.90223 6.16089L9.93018 6.18431L9.9579 6.20804L9.98541 6.23205L10.0127 6.25636L10.0397 6.28095L10.0666 6.30584L10.0931 6.331L10.1195 6.35645L10.1456 6.38218L10.1714 6.40819L10.197 6.43448L10.2224 6.46103L10.2475 6.48787L10.2723 6.51497L10.2969 6.54233L10.3212 6.56997L10.3452 6.59786L10.369 6.62602L10.3925 6.65443L10.4157 6.6831L10.4387 6.71203L10.4613 6.7412L10.4837 6.77062L10.5058 6.80029L10.5276 6.8302L10.5491 6.86035L10.5703 6.89074L10.5912 6.92136L10.6118 6.95221L10.6321 6.9833L10.6521 7.01461L10.6717 7.04614L10.6911 7.0779L10.7102 7.10987L10.7289 7.14206L10.7473 7.17446L10.7654 7.20707L10.7831 7.23989L10.8005 7.27291L10.8176 7.30613L10.8344 7.33955L10.8508 7.37316L10.8669 7.40696L10.8827 7.44095L10.8981 7.47513L10.9131 7.50949L10.9278 7.54402L10.9422 7.57873L10.9562 7.61361L10.9698 7.64867L10.9831 7.68388L10.9961 7.71926L11.0086 7.7548L11.0208 7.79049L11.0327 7.82633L11.0442 7.86232L11.0553 7.89846L11.066 7.93474L11.0764 7.97115L11.0864 8.00771L11.096 8.04439L11.1053 8.08119L11.1141 8.11813L11.1226 8.15518L11.1307 8.19235L11.1384 8.22963L11.1458 8.26702L11.1527 8.30452L11.1593 8.34211L11.1654 8.37981L11.1712 8.4176L11.1766 8.45548L11.1816 8.49345L11.1862 8.5315L11.1904 8.56963L11.1942 8.60784L11.1976 8.64611L11.2006 8.68446L11.2032 8.72287L11.2054 8.76134L11.2072 8.79986L11.2085 8.83844L11.2095 8.87707L11.2101 8.91574L11.2103 8.95445L11.21 8.9932L11.2094 9.03198L11.2083 9.07079L11.2069 9.10962L11.205 9.14848L11.2027 9.18735L11.2 9.22624L11.1969 9.26513L11.1934 9.30403L11.1895 9.34293L11.1851 9.38182L11.1804 9.42071L11.1752 9.45959L11.1696 9.49845L11.1636 9.53729L11.1572 9.57611L11.1504 9.6149L11.1432 9.65366L11.1355 9.69239L11.1274 9.73107L11.1189 9.76971L11.11 9.8083L11.1007 9.84684L11.091 9.88533L11.0809 9.92375L11.0703 9.96211L11.0594 10.0004L11.048 10.0386L11.0362 10.0768L11.024 10.1148L11.0114 10.1528L10.9983 10.1907L10.9849 10.2285L10.9711 10.2662L10.9568 10.3038L10.9422 10.3413L10.9271 10.3787L10.9116 10.4159L10.8957 10.4531L10.8794 10.4901L10.8628 10.527L10.8457 10.5638L10.8282 10.6004L10.8103 10.6369L10.792 10.6733L10.7733 10.7095L10.7542 10.7456L10.7347 10.7815L10.7149 10.8172L10.6946 10.8528L10.6739 10.8883L10.6529 10.9235L10.6314 10.9586L10.6096 10.9935L10.5874 11.0282L10.5648 11.0628L10.5418 11.0971L10.5184 11.1313L10.4947 11.1652L10.4706 11.199L10.4461 11.2326L10.4212 11.2659L10.396 11.299L10.3703 11.3319L10.3444 11.3646L10.318 11.3971L10.2913 11.4294L10.2642 11.4614L10.2368 11.4932L10.209 11.5247L10.1809 11.556L10.1524 11.5871L10.1235 11.6179L10.0943 11.6484L10.0648 11.6787L10.0349 11.7087L10.0047 11.7385L9.97411 11.768L9.94321 11.7972L9.91198 11.8262L9.88042 11.8549L9.84853 11.8833L9.81631 11.9114L9.78377 11.9392L9.75091 11.9667L9.71774 11.994L9.68425 12.0209L9.65045 12.0475L9.61634 12.0739L9.58192 12.0999L9.54721 12.1256L9.51219 12.151L9.47688 12.1761L9.44128 12.2008L9.40539 12.2253L9.36921 12.2494L9.33274 12.2731L9.296 12.2966L9.25898 12.3197L9.22169 12.3425L9.18413 12.3649L9.1463 12.387L9.1082 12.4087L9.06985 12.4301L9.03124 12.4511L8.99238 12.4718L8.95327 12.4921L8.91392 12.512L8.87432 12.5316L8.83448 12.5508L8.79441 12.5697L8.75411 12.5882L8.71359 12.6063L8.67284 12.624L8.63187 12.6413L8.59068 12.6583L8.54929 12.6749L8.50768 12.6911L8.46587 12.7069L8.42387 12.7223L8.38166 12.7373L8.33927 12.7519L8.29668 12.7661L8.25392 12.7799L8.21097 12.7934L8.16785 12.8064L8.12455 12.819L8.08109 12.8312L8.03747 12.843L7.99369 12.8543L7.94975 12.8653L7.90566 12.8758L7.86143 12.886L7.81706 12.8957L7.77254 12.905L7.7279 12.9138L7.68313 12.9223L7.63823 12.9303L7.59321 12.9379L7.54808 12.945L7.50283 12.9517L7.45748 12.958L7.41203 12.9639L7.36648 12.9693L7.32084 12.9743L7.27511 12.9788L7.22929 12.9829L7.1834 12.9866L7.13743 12.9898L7.09139 12.9926L7.04529 12.995L6.99912 12.9969L6.9529 12.9983L6.90663 12.9993L6.86031 12.9999L6.81395 13L6.76755 12.9997L6.72112 12.9989L6.67466 12.9977L6.62817 12.996L6.58167 12.9938L6.53516 12.9913L6.48863 12.9882L6.4421 12.9847L6.39558 12.9808L6.34905 12.9764L6.30254 12.9715L6.25604 12.9662L6.20957 12.9605L6.16311 12.9543L6.11669 12.9476L6.0703 12.9405L6.02395 12.9329L5.97764 12.9249L5.93138 12.9164L5.88518 12.9075L5.83903 12.8981L5.79295 12.8883L5.74693 12.878L5.70099 12.8672L5.65513 12.8561L5.60934 12.8444L5.56365 12.8323L5.51804 12.8198L5.47254 12.8068L5.42713 12.7933L5.38184 12.7794L5.33665 12.7651L5.29158 12.7503L5.24663 12.735L5.20181 12.7193L5.15712 12.7032L5.11256 12.6866L5.06815 12.6696L5.02388 12.6521L4.97975 12.6342L4.93579 12.6159L4.89198 12.5971L4.84834 12.5779L4.80486 12.5582L4.76156 12.5381L4.71844 12.5176L4.6755 12.4966L4.63275 12.4753L4.5902 12.4534L4.54783 12.4312L4.50567 12.4085L4.46372 12.3854L4.42198 12.3619L4.38045 12.338L4.33915 12.3136L4.29807 12.2888L4.25722 12.2637L4.2166 12.238L4.17622 12.212L4.13608 12.1856L4.0962 12.1588L4.05656 12.1315L4.01718 12.1039L3.97806 12.0759L3.93921 12.0474L3.90063 12.0186L3.86232 11.9893L3.82429 11.9597L3.78654 11.9297L3.74908 11.8993L3.71191 11.8685L3.67504 11.8374L3.63846 11.8058L3.60219 11.7739L3.56623 11.7416L3.53059 11.7089L3.49525 11.6759L3.46024 11.6425L3.42556 11.6087L3.3912 11.5746L3.35718 11.5401L3.32349 11.5053L3.29015 11.4701L3.25714 11.4346L3.22449 11.3987L3.19219 11.3625L3.16025 11.3259L3.12867 11.2891L3.09745 11.2518L3.0666 11.2143L3.03612 11.1764L3.00602 11.1382L2.9763 11.0997L2.94696 11.0609L2.918 11.0217L2.88944 10.9823L2.86126 10.9425L2.83349 10.9024L2.80612 10.8621L2.77914 10.8215L2.75258 10.7805L2.72643 10.7393L2.70069 10.6978L2.67537 10.656L2.65046 10.6139L2.62599 10.5716L2.60193 10.529L2.57831 10.4862L2.55512 10.4431L2.53237 10.3997L2.51005 10.3561L2.48818 10.3122L2.46675 10.2681L2.44577 10.2237L2.42524 10.1792L2.40516 10.1343L2.38554 10.0893L2.36638 10.044L2.34768 9.99857L2.32944 9.95288L2.31167 9.90699L2.29436 9.86088L2.27753 9.81458L2.26118 9.76809L2.24529 9.7214L2.22989 9.67453L2.21497 9.62747L2.20053 9.58024L2.18658 9.53284L2.17311 9.48526L2.16014 9.43753L2.14765 9.38963L2.13566 9.34158L2.12417 9.29339L2.11317 9.24504L2.10267 9.19656L2.09267 9.14794L2.08318 9.0992L2.07419 9.05032L2.0657 9.00133L2.05773 8.95222L2.05026 8.903L2.04331 8.85367L2.03687 8.80424L2.03094 8.75471L2.02552 8.7051L2.02063 8.65539L2.01625 8.60561L2.01239 8.55574L2.00905 8.50581L2.00623 8.45581L2.00394 8.40575L2.00217 8.35563L2.00092 8.30546L2.0002 8.25524L2 8.20498L2.00033 8.15469L2.00119 8.10436L2.00258 8.05401L2.00449 8.00364L2.00694 7.95325L2.00991 7.90285L2.01342 7.85244L2.01746 7.80204L2.02202 7.75163L2.02712 7.70124L2.03276 7.65087L2.03892 7.60051L2.04562 7.55018L2.05284 7.49988L2.0606 7.44961L2.0689 7.39938L2.07772 7.34921L2.08708 7.29908L2.09697 7.24901L2.10739 7.199L2.11834 7.14905L2.12983 7.09918L2.14184 7.04939L2.15438 6.99968L2.16746 6.95005L2.18106 6.90052L2.19519 6.85109L2.20985 6.80176L2.22504 6.75254L2.24075 6.70343L2.25699 6.65444L2.27375 6.60558L2.29104 6.55684L2.30885 6.50824L2.32718 6.45978L2.34603 6.41146L2.3654 6.36329L2.38528 6.31528L2.40569 6.26742L2.42661 6.21973L2.44804 6.17222L2.46999 6.12487L2.49244 6.07771L2.51541 6.03073L2.53888 5.98394L2.56286 5.93735L2.58734 5.89096L2.61233 5.84478L2.63782 5.7988L2.6638 5.75304L2.69028 5.7075L2.71726 5.66219L2.74473 5.61711L2.77269 5.57226L2.80114 5.52765L2.83008 5.48329L2.8595 5.43918L2.8894 5.39532L2.91978 5.35173L2.95064 5.30839L2.98197 5.26533L3.01377 5.22254L3.04605 5.18003L3.07879 5.1378L3.11199 5.09587L3.14566 5.05422L3.17978 5.01287L3.21436 4.97183L3.24939 4.93109L3.28487 4.89066L3.3208 4.85055L3.35717 4.81076L3.39399 4.7713L3.43124 4.73216L3.46892 4.69336L3.50704 4.6549L3.54558 4.61678L3.58455 4.579L3.62394 4.54158L3.66374 4.50452L3.70397 4.46781L3.7446 4.43147L3.78564 4.3955L3.82708 4.3599L3.86892 4.32467L3.91116 4.28983L3.95379 4.25537L3.99681 4.22131L4.04021 4.18763L4.08399 4.15435L4.12815 4.12148L4.17269 4.08901L4.21759 4.05694L4.26286 4.02529L4.30849 3.99406L4.35447 3.96325L4.40081 3.93286L4.44749 3.9029L4.49452 3.87337L4.54189 3.84427L4.58959 3.81561L4.63762 3.7874L4.68598 3.75963L4.73466 3.73231L4.78366 3.70544L4.83297 3.67903L4.88259 3.65307L4.93251 3.62758L4.98273 3.60256L5.03325 3.578L5.08405 3.55391L5.13514 3.5303L5.18651 3.50717L5.23815 3.48451L5.29006 3.46235L5.34224 3.44066L5.39468 3.41947L5.44737 3.39877L5.50031 3.37857L5.5535 3.35886L5.60693 3.33966L5.66059 3.32095L5.71448 3.30276L5.76859 3.28507L5.82293 3.26789L5.87748 3.25123L5.93224 3.23508L5.9872 3.21945L6.04235 3.20434L6.09771 3.18975L6.15325 3.17569L6.20897 3.16215L6.26486 3.14915L6.32093 3.13667L6.37716 3.12473L6.43356 3.11332L6.4901 3.10245L6.5468 3.09212L6.60364 3.08233L6.66062 3.07308L6.71773 3.06437L6.77497 3.05621L6.83232 3.0486L6.8898 3.04153L6.94738 3.03502L7.00506 3.02905L7.06285 3.02364L7.12072 3.01878L7.17868 3.01448L7.23673 3.01073L7.29484 3.00755L7.35303 3.00492L7.41128 3.00285L7.46959 3.00134L7.52795 3.00039L7.58635 3L7.64479 3.00018L7.70327 3.00092L7.76178 3.00222L7.82031 3.00409L7.87885 3.00652L7.9374 3.00953L7.99596 3.01309L8.05452 3.01723L8.11307 3.02193L8.1716 3.0272L8.23012 3.03303L8.28861 3.03944L8.34706 3.04641L8.40548 3.05395L8.46386 3.06206L8.52219 3.07073L8.58046 3.07997L8.63867 3.08979L8.69681 3.10016L8.75488 3.11111L8.81287 3.12262L8.87077 3.1347L8.92858 3.14734L8.98629 3.16055L9.0439 3.17432L9.10141 3.18865L9.15879 3.20355L9.21605 3.21901L9.27319 3.23503L9.33019 3.25162L9.38705 3.26876L9.44377 3.28646L9.50033 3.30472L9.55674 3.32353L9.61299 3.3429L9.66906 3.36282L9.72496 3.3833L9.78068 3.40433L9.83621 3.4259L9.89155 3.44803L9.94669 3.4707L10.0016 3.49391L10.0563 3.51767L10.1109 3.54198L10.1651 3.56682L10.2192 3.5922L10.273 3.61811L10.3266 3.64456L10.3799 3.67154L10.433 3.69905L10.4859 3.72709L10.5384 3.75566L10.5907 3.78475L10.6428 3.81436L10.6945 3.84449L10.746 3.87513L10.7971 3.90629L10.848 3.93797L10.8986 3.97015L10.9489 4.00283L10.9988 4.03602L11.0484 4.06972L11.0978 4.10391L11.1467 4.13859L11.1954 4.17377L11.2437 4.20944L11.2917 4.24559L11.3393 4.28223L11.3865 4.31934L11.4334 4.35694L11.48 4.39501L11.5261 4.43355L11.5719 4.47255L11.6173 4.51202L11.6623 4.55195L11.7069 4.59234L11.7511 4.63318L11.795 4.67447L11.8384 4.71621L11.8814 4.75839L11.924 4.80101L11.9661 4.84406L12.0079 4.88755L12.0492 4.93146L12.09 4.97579L12.1305 5.02055L12.1704 5.06572L12.21 5.1113L12.2491 5.15729L12.2877 5.20368L12.3258 5.25047L12.3635 5.29766L12.4007 5.34524L12.4375 5.3932L12.4737 5.44154L12.5095 5.49026L12.5448 5.53935L12.5796 5.58882L12.6139 5.63864L12.6477 5.68882L12.6809 5.73936L12.7137 5.79025L12.746 5.84148L12.7777 5.89305L12.8089 5.94496L12.8396 5.9972L12.8698 6.04976L12.8994 6.10265L12.9285 6.15584L12.9571 6.20935L12.9851 6.26317L13.0125 6.31729L13.0395 6.3717L13.0658 6.4264L13.0916 6.48138L13.1169 6.53665L13.1415 6.59219L13.1656 6.648L13.1892 6.70407L13.2121 6.7604L13.2345 6.81699L13.2563 6.87382L13.2775 6.93089L13.2982 6.9882L13.3182 7.04574L13.3377 7.10351L13.3566 7.1615L13.3748 7.2197L13.3925 7.27811L13.4096 7.33672L13.426 7.39553L13.4419 7.45453L13.4571 7.51372L13.4718 7.57308L13.4858 7.63262L13.4992 7.69233L13.512 7.7522L13.5242 7.81223L13.5357 7.87241L13.5466 7.93273L13.5569 7.9932L13.5666 8.05379L13.5756 8.11451L13.5841 8.17536L13.5918 8.23631L13.599 8.29738L13.6055 8.35855L13.6114 8.41981L14 12.8423L13.6212 8.54261" stroke="#FF1313" stroke-width="2"/>
</svg>
