<svg width="324" height="117" viewBox="0 0 324 117" fill="none" xmlns="http://www.w3.org/2000/svg">
<path d="M35.5887 76.797L99.5215 76.7925M35.5887 76.797L35 116.5M35.5887 76.797L1 56.7066M35.5887 76.797L68.2355 20.5903M99.5215 76.7925L100 116.5M99.5215 76.7925L134.155 56.7792M99.5215 76.7925L68.2355 20.5903M100 116.5H35M100 116.5L134.155 56.7792M35 116.5L1 56.7066M102 1L134.155 56.7792M102 1L68.2355 20.5903M102 1L34 1M68.2355 20.5903L34 1M34 1L1 56.7066" stroke="#4154FF"/>
<path d="M224.589 76.797L288.521 76.7925M224.589 76.797L224 116.5M224.589 76.797L190 56.7066M224.589 76.797L257.235 20.5903M288.521 76.7925L289 116.5M288.521 76.7925L323.155 56.7792M288.521 76.7925L257.235 20.5903M289 116.5H224M289 116.5L323.155 56.7792M224 116.5L190 56.7066M291 1L323.155 56.7792M291 1L257.235 20.5903M291 1L223 1M257.235 20.5903L223 1M223 1L190 56.7066" stroke="#4154FF"/>
<path d="M223.068 40.5311L287.887 40.5357M223.068 40.5311V1M223.068 40.5311L190 56.5M223.068 40.5311L256.167 96.4945M287.887 40.5357L291 1M287.887 40.5357L323 57M287.887 40.5357L256.167 96.4945M291 1H223.068M291 1L323 57M223.068 1L190 56.5M289 116.5L323 57M289 116.5L256.167 96.4945M289 116.5H224M256.167 96.4945L224 116.5M224 116.5L190 56.5" stroke="#4154FF" stroke-dasharray="7 7"/>
</svg>
