<svg width="15" height="15" viewBox="0 0 15 15" fill="none" xmlns="http://www.w3.org/2000/svg">
<rect width="15" height="15" fill="#242424"/>
<rect x="2" y="3" width="2" height="1" fill="white"/>
<rect x="2" y="3" width="2" height="1" fill="white"/>
<rect x="2" y="3" width="2" height="1" fill="white"/>
<rect width="2" height="1" transform="matrix(1 0 0 -1 5 4)" fill="white"/>
<rect width="2" height="1" transform="matrix(1 0 0 -1 5 4)" fill="white"/>
<rect width="2" height="1" transform="matrix(1 0 0 -1 5 4)" fill="#282828" fill-opacity="0.9"/>
<rect x="8" y="3" width="2" height="1" fill="white"/>
<rect x="8" y="3" width="2" height="1" fill="white"/>
<rect x="8" y="3" width="2" height="1" fill="white"/>
<rect x="11" y="3" width="2" height="1" fill="white"/>
<rect x="11" y="3" width="2" height="1" fill="white"/>
<rect x="11" y="3" width="2" height="1" fill="#282828" fill-opacity="0.9"/>
<rect x="2" y="5" width="2" height="1" fill="white"/>
<rect x="2" y="5" width="2" height="1" fill="white"/>
<rect x="2" y="5" width="2" height="1" fill="white"/>
<rect width="2" height="1" transform="matrix(1 0 0 -1 5 6)" fill="white"/>
<rect width="2" height="1" transform="matrix(1 0 0 -1 5 6)" fill="white"/>
<rect width="2" height="1" transform="matrix(1 0 0 -1 5 6)" fill="#282828" fill-opacity="0.9"/>
<rect x="8" y="5" width="2" height="1" fill="white"/>
<rect x="8" y="5" width="2" height="1" fill="white"/>
<rect x="8" y="5" width="2" height="1" fill="white"/>
<rect x="11" y="5" width="2" height="1" fill="white"/>
<rect x="11" y="5" width="2" height="1" fill="white"/>
<rect x="11" y="5" width="2" height="1" fill="white"/>
<rect x="2" y="7" width="2" height="1" fill="white"/>
<rect x="2" y="7" width="2" height="1" fill="white"/>
<rect x="2" y="7" width="2" height="1" fill="white"/>
<rect width="2" height="1" transform="matrix(1 0 0 -1 5 8)" fill="white"/>
<rect width="2" height="1" transform="matrix(1 0 0 -1 5 8)" fill="white"/>
<rect width="2" height="1" transform="matrix(1 0 0 -1 5 8)" fill="white"/>
<rect x="8" y="7" width="2" height="1" fill="white"/>
<rect x="8" y="7" width="2" height="1" fill="white"/>
<rect x="8" y="7" width="2" height="1" fill="#282828" fill-opacity="0.9"/>
<rect x="11" y="7" width="2" height="1" fill="white"/>
<rect x="11" y="7" width="2" height="1" fill="white"/>
<rect x="11" y="7" width="2" height="1" fill="#282828" fill-opacity="0.9"/>
<rect x="2" y="9" width="2" height="1" fill="white"/>
<rect x="2" y="9" width="2" height="1" fill="white"/>
<rect x="2" y="9" width="2" height="1" fill="#282828" fill-opacity="0.9"/>
<rect width="2" height="1" transform="matrix(1 0 0 -1 5 10)" fill="white"/>
<rect width="2" height="1" transform="matrix(1 0 0 -1 5 10)" fill="white"/>
<rect width="2" height="1" transform="matrix(1 0 0 -1 5 10)" fill="white"/>
<rect x="8" y="9" width="2" height="1" fill="white"/>
<rect x="8" y="9" width="2" height="1" fill="white"/>
<rect x="8" y="9" width="2" height="1" fill="white"/>
<rect x="11" y="9" width="2" height="1" fill="white"/>
<rect x="11" y="9" width="2" height="1" fill="white"/>
<rect x="11" y="9" width="2" height="1" fill="white"/>
<rect x="2" y="11" width="2" height="1" fill="white"/>
<rect x="2" y="11" width="2" height="1" fill="white"/>
<rect x="2" y="11" width="2" height="1" fill="white"/>
<rect width="2" height="1" transform="matrix(1 0 0 -1 5 12)" fill="white"/>
<rect width="2" height="1" transform="matrix(1 0 0 -1 5 12)" fill="white"/>
<rect width="2" height="1" transform="matrix(1 0 0 -1 5 12)" fill="white"/>
<rect x="8" y="11" width="2" height="1" fill="white"/>
<rect x="8" y="11" width="2" height="1" fill="white"/>
<rect x="8" y="11" width="2" height="1" fill="white"/>
<rect x="11" y="11" width="2" height="1" fill="white"/>
<rect x="11" y="11" width="2" height="1" fill="white"/>
<rect x="11" y="11" width="2" height="1" fill="white"/>
</svg>
