<svg width="250" height="239" viewBox="0 0 250 239" fill="none" xmlns="http://www.w3.org/2000/svg">
<path d="M82.7893 143.25L167.356 143.244M82.7893 143.25L82.0106 195.767M82.7893 143.25L37.037 116.675M82.7893 143.25L125.973 68.9025M167.356 143.244L167.989 195.767M167.356 143.244L213.168 116.771M167.356 143.244L125.973 68.9025M167.989 195.767H82.0106M167.989 195.767L213.168 116.771M82.0106 195.767L37.037 116.675M170.635 42.9894L213.168 116.771M170.635 42.9894L125.973 68.9025M170.635 42.9894L80.6878 42.9894M125.973 68.9025L80.6878 42.9894M80.6878 42.9894L37.037 116.675" stroke="#4154FF" stroke-opacity="0.88" stroke-dasharray="2 2"/>
<circle cx="81.3492" cy="195.106" r="42.4894" stroke="#4154FF"/>
<circle cx="82.672" cy="143.519" r="42.4894" stroke="#4154FF"/>
<circle cx="167.328" cy="143.519" r="42.4894" stroke="#4154FF"/>
<circle cx="207.011" cy="119.709" r="42.4894" stroke="#4154FF"/>
<circle cx="42.9894" cy="119.709" r="42.4894" stroke="#4154FF"/>
<circle cx="80.0265" cy="42.9894" r="42.4894" stroke="#4154FF"/>
<circle cx="169.974" cy="42.9894" r="42.4894" stroke="#4154FF"/>
<circle cx="125" cy="69.4445" r="42.4894" stroke="#4154FF"/>
<circle cx="167.328" cy="195.106" r="42.4894" stroke="#4154FF"/>
</svg>
