<svg width="20" height="18" viewBox="0 0 20 18" fill="none" xmlns="http://www.w3.org/2000/svg">
<rect x="0.5" y="0.5" width="9" height="5" rx="2.5" fill="#646464"/>
<rect x="0.5" y="0.5" width="9" height="5" rx="2.5" fill="#646464"/>
<rect x="0.5" y="0.5" width="9" height="5" rx="2.5" fill="#CDCDCD"/>
<rect x="0.5" y="0.5" width="9" height="5" rx="2.5" stroke="#646464"/>
<rect x="10.5" y="12.5" width="9" height="5" rx="2.5" fill="#646464"/>
<rect x="10.5" y="12.5" width="9" height="5" rx="2.5" fill="#646464"/>
<rect x="10.5" y="12.5" width="9" height="5" rx="2.5" fill="#CDCDCD"/>
<rect x="10.5" y="12.5" width="9" height="5" rx="2.5" stroke="#646464"/>
<rect x="2.5" y="8.5" width="5" height="9" rx="2.5" fill="#646464"/>
<rect x="2.5" y="8.5" width="5" height="9" rx="2.5" fill="#646464"/>
<rect x="2.5" y="8.5" width="5" height="9" rx="2.5" fill="#CDCDCD"/>
<rect x="2.5" y="8.5" width="5" height="9" rx="2.5" stroke="#646464"/>
<rect x="12.5" y="0.5" width="5" height="9" rx="2.5" fill="#646464"/>
<rect x="12.5" y="0.5" width="5" height="9" rx="2.5" fill="#646464"/>
<rect x="12.5" y="0.5" width="5" height="9" rx="2.5" fill="#CDCDCD"/>
<rect x="12.5" y="0.5" width="5" height="9" rx="2.5" stroke="#646464"/>
</svg>
