<svg width="164" height="220" viewBox="0 0 164 220" fill="none" xmlns="http://www.w3.org/2000/svg">
<rect width="163.58" height="220" fill="#C4C4C4" fill-opacity="0.16"/>
<rect x="1" y="1" width="161.58" height="218" stroke="black" stroke-opacity="0.33" stroke-width="2"/>
<rect x="15.9386" y="108.716" width="26.005" height="26.537" fill="#C4C4C4" fill-opacity="0.35"/>
<rect x="51.1711" y="108.716" width="26.005" height="26.537" fill="#C4C4C4" fill-opacity="0.35"/>
<rect x="86.4038" y="108.716" width="26.005" height="26.537" fill="#C4C4C4" fill-opacity="0.35"/>
<rect x="121.636" y="108.716" width="26.005" height="26.537" fill="#C4C4C4" fill-opacity="0.35"/>
<rect x="15.9386" y="142.957" width="26.005" height="26.537" fill="#C4C4C4" fill-opacity="0.35"/>
<rect x="51.1711" y="142.957" width="26.005" height="26.537" fill="#C4C4C4" fill-opacity="0.35"/>
<rect x="86.4038" y="142.957" width="26.005" height="26.537" fill="#C4C4C4" fill-opacity="0.35"/>
<rect x="121.636" y="142.957" width="26.005" height="26.537" fill="#C4C4C4" fill-opacity="0.35"/>
<rect x="15.9386" y="177.198" width="26.005" height="26.537" fill="#C4C4C4" fill-opacity="0.35"/>
<rect x="51.1711" y="177.198" width="26.005" height="26.537" fill="#C4C4C4" fill-opacity="0.35"/>
<rect x="86.4038" y="177.198" width="26.005" height="26.537" fill="#C4C4C4" fill-opacity="0.35"/>
<rect x="121.636" y="177.198" width="26.005" height="26.537" fill="#C4C4C4" fill-opacity="0.35"/>
<rect x="15.9386" y="74.4746" width="26.005" height="26.537" fill="#C4C4C4" fill-opacity="0.35"/>
<rect x="51.1711" y="74.4746" width="26.005" height="26.537" fill="#C4C4C4" fill-opacity="0.35"/>
<rect x="86.4038" y="74.4746" width="26.005" height="26.537" fill="#C4C4C4" fill-opacity="0.35"/>
<rect x="121.636" y="74.4746" width="26.005" height="26.537" fill="#C4C4C4" fill-opacity="0.35"/>
<ellipse cx="39.4269" cy="24.8248" rx="9.22759" ry="9.41634" fill="#C4C4C4" fill-opacity="0.24"/>
<path d="M48.1545 24.8248C48.1545 29.7587 44.2376 33.7411 39.4269 33.7411C34.6163 33.7411 30.6993 29.7587 30.6993 24.8248C30.6993 19.8908 34.6163 15.9084 39.4269 15.9084C44.2376 15.9084 48.1545 19.8908 48.1545 24.8248Z" stroke="black" stroke-opacity="0.33"/>
<ellipse cx="67.1098" cy="24.8248" rx="9.22759" ry="9.41634" fill="#C4C4C4" fill-opacity="0.24"/>
<path d="M75.8374 24.8248C75.8374 29.7587 71.9204 33.7411 67.1098 33.7411C62.2992 33.7411 58.3822 29.7587 58.3822 24.8248C58.3822 19.8908 62.2992 15.9084 67.1098 15.9084C71.9204 15.9084 75.8374 19.8908 75.8374 24.8248Z" stroke="black" stroke-opacity="0.33"/>
<ellipse cx="97.3091" cy="24.8248" rx="9.22759" ry="9.41634" fill="#C4C4C4" fill-opacity="0.24"/>
<path d="M106.037 24.8248C106.037 29.7587 102.12 33.7411 97.3091 33.7411C92.4985 33.7411 88.5815 29.7587 88.5815 24.8248C88.5815 19.8908 92.4985 15.9084 97.3091 15.9084C102.12 15.9084 106.037 19.8908 106.037 24.8248Z" stroke="black" stroke-opacity="0.33"/>
<ellipse cx="124.992" cy="24.8248" rx="9.22759" ry="9.41634" fill="#C4C4C4" fill-opacity="0.24"/>
<path d="M133.72 24.8248C133.72 29.7587 129.803 33.7411 124.992 33.7411C120.181 33.7411 116.264 29.7587 116.264 24.8248C116.264 19.8908 120.181 15.9084 124.992 15.9084C129.803 15.9084 133.72 19.8908 133.72 24.8248Z" stroke="black" stroke-opacity="0.33"/>
</svg>
