<svg width="833" height="220" viewBox="0 0 833 220" fill="none" xmlns="http://www.w3.org/2000/svg">
<rect width="163.58" height="220" fill="#C4C4C4" fill-opacity="0.16"/>
<rect x="1" y="1" width="161.58" height="218" stroke="black" stroke-opacity="0.33" stroke-width="2"/>
<rect x="15.9386" y="108.716" width="26.005" height="26.537" fill="#C4C4C4" fill-opacity="0.35"/>
<rect x="51.1711" y="108.716" width="26.005" height="26.537" fill="#C4C4C4" fill-opacity="0.35"/>
<rect x="86.4038" y="108.716" width="26.005" height="26.537" fill="#C4C4C4" fill-opacity="0.35"/>
<rect x="121.636" y="108.716" width="26.005" height="26.537" fill="#C4C4C4" fill-opacity="0.35"/>
<rect x="15.9386" y="142.957" width="26.005" height="26.537" fill="#C4C4C4" fill-opacity="0.35"/>
<rect x="51.1711" y="142.957" width="26.005" height="26.537" fill="#C4C4C4" fill-opacity="0.35"/>
<rect x="86.4038" y="142.957" width="26.005" height="26.537" fill="#C4C4C4" fill-opacity="0.35"/>
<rect x="121.636" y="142.957" width="26.005" height="26.537" fill="#C4C4C4" fill-opacity="0.35"/>
<rect x="15.9386" y="177.198" width="26.005" height="26.537" fill="#C4C4C4" fill-opacity="0.35"/>
<rect x="51.1711" y="177.198" width="26.005" height="26.537" fill="#C4C4C4" fill-opacity="0.35"/>
<rect x="86.4038" y="177.198" width="26.005" height="26.537" fill="#C4C4C4" fill-opacity="0.35"/>
<rect x="121.636" y="177.198" width="26.005" height="26.537" fill="#C4C4C4" fill-opacity="0.35"/>
<rect x="15.9386" y="74.4746" width="26.005" height="26.537" fill="#C4C4C4" fill-opacity="0.35"/>
<rect x="51.1711" y="74.4746" width="26.005" height="26.537" fill="#C4C4C4" fill-opacity="0.35"/>
<rect x="86.4038" y="74.4746" width="26.005" height="26.537" fill="#C4C4C4" fill-opacity="0.35"/>
<rect x="121.636" y="74.4746" width="26.005" height="26.537" fill="#C4C4C4" fill-opacity="0.35"/>
<ellipse cx="39.4269" cy="24.8248" rx="9.22759" ry="9.41634" fill="#C4C4C4" fill-opacity="0.24"/>
<path d="M48.1545 24.8248C48.1545 29.7587 44.2376 33.7411 39.4269 33.7411C34.6163 33.7411 30.6993 29.7587 30.6993 24.8248C30.6993 19.8908 34.6163 15.9084 39.4269 15.9084C44.2376 15.9084 48.1545 19.8908 48.1545 24.8248Z" stroke="black" stroke-opacity="0.33"/>
<ellipse cx="67.1098" cy="24.8248" rx="9.22759" ry="9.41634" fill="#C4C4C4" fill-opacity="0.24"/>
<path d="M75.8374 24.8248C75.8374 29.7587 71.9204 33.7411 67.1098 33.7411C62.2992 33.7411 58.3822 29.7587 58.3822 24.8248C58.3822 19.8908 62.2992 15.9084 67.1098 15.9084C71.9204 15.9084 75.8374 19.8908 75.8374 24.8248Z" stroke="black" stroke-opacity="0.33"/>
<ellipse cx="97.3091" cy="24.8248" rx="9.22759" ry="9.41634" fill="#C4C4C4" fill-opacity="0.24"/>
<path d="M106.037 24.8248C106.037 29.7587 102.12 33.7411 97.3091 33.7411C92.4985 33.7411 88.5815 29.7587 88.5815 24.8248C88.5815 19.8908 92.4985 15.9084 97.3091 15.9084C102.12 15.9084 106.037 19.8908 106.037 24.8248Z" stroke="black" stroke-opacity="0.33"/>
<ellipse cx="124.992" cy="24.8248" rx="9.22759" ry="9.41634" fill="#C4C4C4" fill-opacity="0.24"/>
<path d="M133.72 24.8248C133.72 29.7587 129.803 33.7411 124.992 33.7411C120.181 33.7411 116.264 29.7587 116.264 24.8248C116.264 19.8908 120.181 15.9084 124.992 15.9084C129.803 15.9084 133.72 19.8908 133.72 24.8248Z" stroke="black" stroke-opacity="0.33"/>
<rect x="223.14" width="163.58" height="220" fill="#C4C4C4" fill-opacity="0.16"/>
<rect x="224.14" y="1" width="161.58" height="218" stroke="black" stroke-opacity="0.33" stroke-width="2"/>
<rect x="239.078" y="108.716" width="26.005" height="26.537" fill="#C4C4C4" fill-opacity="0.35"/>
<rect x="274.311" y="108.716" width="26.005" height="26.537" fill="#C4C4C4" fill-opacity="0.35"/>
<rect x="309.544" y="108.716" width="26.005" height="26.537" fill="#C4C4C4" fill-opacity="0.35"/>
<rect x="344.776" y="108.716" width="26.005" height="26.537" fill="#C4C4C4" fill-opacity="0.35"/>
<rect x="239.078" y="142.957" width="26.005" height="26.537" fill="#C4C4C4" fill-opacity="0.35"/>
<rect x="274.311" y="142.957" width="26.005" height="26.537" fill="#C4C4C4" fill-opacity="0.35"/>
<rect x="309.544" y="142.957" width="26.005" height="26.537" fill="#C4C4C4" fill-opacity="0.35"/>
<rect x="344.776" y="142.957" width="26.005" height="26.537" fill="#C4C4C4" fill-opacity="0.35"/>
<rect x="239.078" y="177.198" width="26.005" height="26.537" fill="#C4C4C4" fill-opacity="0.35"/>
<rect x="274.311" y="177.198" width="26.005" height="26.537" fill="#C4C4C4" fill-opacity="0.35"/>
<rect x="309.544" y="177.198" width="26.005" height="26.537" fill="#C4C4C4" fill-opacity="0.35"/>
<rect x="344.776" y="177.198" width="26.005" height="26.537" fill="#C4C4C4" fill-opacity="0.35"/>
<rect x="239.078" y="74.4746" width="26.005" height="26.537" fill="#C4C4C4" fill-opacity="0.35"/>
<rect x="274.311" y="74.4746" width="26.005" height="26.537" fill="#C4C4C4" fill-opacity="0.35"/>
<rect x="309.544" y="74.4746" width="26.005" height="26.537" fill="#C4C4C4" fill-opacity="0.35"/>
<rect x="344.776" y="74.4746" width="26.005" height="26.537" fill="#C4C4C4" fill-opacity="0.35"/>
<ellipse cx="262.567" cy="24.8248" rx="9.22759" ry="9.41634" fill="#C4C4C4" fill-opacity="0.24"/>
<path d="M271.295 24.8248C271.295 29.7587 267.378 33.7411 262.567 33.7411C257.756 33.7411 253.839 29.7587 253.839 24.8248C253.839 19.8908 257.756 15.9084 262.567 15.9084C267.378 15.9084 271.295 19.8908 271.295 24.8248Z" stroke="black" stroke-opacity="0.33"/>
<ellipse cx="290.25" cy="24.8248" rx="9.22759" ry="9.41634" fill="#C4C4C4" fill-opacity="0.24"/>
<path d="M298.977 24.8248C298.977 29.7587 295.06 33.7411 290.25 33.7411C285.439 33.7411 281.522 29.7587 281.522 24.8248C281.522 19.8908 285.439 15.9084 290.25 15.9084C295.06 15.9084 298.977 19.8908 298.977 24.8248Z" stroke="black" stroke-opacity="0.33"/>
<ellipse cx="320.449" cy="24.8248" rx="9.22759" ry="9.41634" fill="#C4C4C4" fill-opacity="0.24"/>
<path d="M329.177 24.8248C329.177 29.7587 325.26 33.7411 320.449 33.7411C315.639 33.7411 311.722 29.7587 311.722 24.8248C311.722 19.8908 315.639 15.9084 320.449 15.9084C325.26 15.9084 329.177 19.8908 329.177 24.8248Z" stroke="black" stroke-opacity="0.33"/>
<ellipse cx="348.132" cy="24.8248" rx="9.22759" ry="9.41634" fill="#C4C4C4" fill-opacity="0.24"/>
<path d="M356.859 24.8248C356.859 29.7587 352.943 33.7411 348.132 33.7411C343.321 33.7411 339.404 29.7587 339.404 24.8248C339.404 19.8908 343.321 15.9084 348.132 15.9084C352.943 15.9084 356.859 19.8908 356.859 24.8248Z" stroke="black" stroke-opacity="0.33"/>
<rect x="446.28" width="163.58" height="220" fill="#C4C4C4" fill-opacity="0.16"/>
<rect x="447.28" y="1" width="161.58" height="218" stroke="black" stroke-opacity="0.33" stroke-width="2"/>
<rect x="462.219" y="108.716" width="26.005" height="26.537" fill="#C4C4C4" fill-opacity="0.35"/>
<rect x="497.451" y="108.716" width="26.005" height="26.537" fill="#C4C4C4" fill-opacity="0.35"/>
<rect x="532.684" y="108.716" width="26.005" height="26.537" fill="#C4C4C4" fill-opacity="0.35"/>
<rect x="567.916" y="108.716" width="26.005" height="26.537" fill="#C4C4C4" fill-opacity="0.35"/>
<rect x="462.219" y="142.957" width="26.005" height="26.537" fill="#C4C4C4" fill-opacity="0.35"/>
<rect x="497.451" y="142.957" width="26.005" height="26.537" fill="#C4C4C4" fill-opacity="0.35"/>
<rect x="532.684" y="142.957" width="26.005" height="26.537" fill="#C4C4C4" fill-opacity="0.35"/>
<rect x="567.916" y="142.957" width="26.005" height="26.537" fill="#C4C4C4" fill-opacity="0.35"/>
<rect x="462.219" y="177.198" width="26.005" height="26.537" fill="#C4C4C4" fill-opacity="0.35"/>
<rect x="497.451" y="177.198" width="26.005" height="26.537" fill="#C4C4C4" fill-opacity="0.35"/>
<rect x="532.684" y="177.198" width="26.005" height="26.537" fill="#C4C4C4" fill-opacity="0.35"/>
<rect x="567.916" y="177.198" width="26.005" height="26.537" fill="#C4C4C4" fill-opacity="0.35"/>
<rect x="462.219" y="74.4746" width="26.005" height="26.537" fill="#C4C4C4" fill-opacity="0.35"/>
<rect x="497.451" y="74.4746" width="26.005" height="26.537" fill="#C4C4C4" fill-opacity="0.35"/>
<rect x="532.684" y="74.4746" width="26.005" height="26.537" fill="#C4C4C4" fill-opacity="0.35"/>
<rect x="567.916" y="74.4746" width="26.005" height="26.537" fill="#C4C4C4" fill-opacity="0.35"/>
<ellipse cx="485.707" cy="24.8248" rx="9.22759" ry="9.41634" fill="#C4C4C4" fill-opacity="0.24"/>
<path d="M494.435 24.8248C494.435 29.7587 490.518 33.7411 485.707 33.7411C480.896 33.7411 476.979 29.7587 476.979 24.8248C476.979 19.8908 480.896 15.9084 485.707 15.9084C490.518 15.9084 494.435 19.8908 494.435 24.8248Z" stroke="black" stroke-opacity="0.33"/>
<ellipse cx="513.39" cy="24.8248" rx="9.22759" ry="9.41634" fill="#C4C4C4" fill-opacity="0.24"/>
<path d="M522.117 24.8248C522.117 29.7587 518.2 33.7411 513.39 33.7411C508.579 33.7411 504.662 29.7587 504.662 24.8248C504.662 19.8908 508.579 15.9084 513.39 15.9084C518.2 15.9084 522.117 19.8908 522.117 24.8248Z" stroke="black" stroke-opacity="0.33"/>
<ellipse cx="543.589" cy="24.8248" rx="9.22759" ry="9.41634" fill="#C4C4C4" fill-opacity="0.24"/>
<path d="M552.317 24.8248C552.317 29.7587 548.4 33.7411 543.589 33.7411C538.779 33.7411 534.862 29.7587 534.862 24.8248C534.862 19.8908 538.779 15.9084 543.589 15.9084C548.4 15.9084 552.317 19.8908 552.317 24.8248Z" stroke="black" stroke-opacity="0.33"/>
<ellipse cx="571.272" cy="24.8248" rx="9.22759" ry="9.41634" fill="#C4C4C4" fill-opacity="0.24"/>
<path d="M579.999 24.8248C579.999 29.7587 576.083 33.7411 571.272 33.7411C566.461 33.7411 562.544 29.7587 562.544 24.8248C562.544 19.8908 566.461 15.9084 571.272 15.9084C576.083 15.9084 579.999 19.8908 579.999 24.8248Z" stroke="black" stroke-opacity="0.33"/>
<rect x="669.42" width="163.58" height="220" fill="#C4C4C4" fill-opacity="0.16"/>
<rect x="670.42" y="1" width="161.58" height="218" stroke="black" stroke-opacity="0.33" stroke-width="2"/>
<rect x="685.359" y="108.716" width="26.005" height="26.537" fill="#C4C4C4" fill-opacity="0.35"/>
<rect x="720.591" y="108.716" width="26.005" height="26.537" fill="#C4C4C4" fill-opacity="0.35"/>
<rect x="755.824" y="108.716" width="26.005" height="26.537" fill="#C4C4C4" fill-opacity="0.35"/>
<rect x="791.056" y="108.716" width="26.005" height="26.537" fill="#C4C4C4" fill-opacity="0.35"/>
<rect x="685.359" y="142.957" width="26.005" height="26.537" fill="#C4C4C4" fill-opacity="0.35"/>
<rect x="720.591" y="142.957" width="26.005" height="26.537" fill="#C4C4C4" fill-opacity="0.35"/>
<rect x="755.824" y="142.957" width="26.005" height="26.537" fill="#C4C4C4" fill-opacity="0.35"/>
<rect x="791.056" y="142.957" width="26.005" height="26.537" fill="#C4C4C4" fill-opacity="0.35"/>
<rect x="685.359" y="177.198" width="26.005" height="26.537" fill="#C4C4C4" fill-opacity="0.35"/>
<rect x="720.591" y="177.198" width="26.005" height="26.537" fill="#C4C4C4" fill-opacity="0.35"/>
<rect x="755.824" y="177.198" width="26.005" height="26.537" fill="#C4C4C4" fill-opacity="0.35"/>
<rect x="791.056" y="177.198" width="26.005" height="26.537" fill="#C4C4C4" fill-opacity="0.35"/>
<rect x="685.359" y="74.4746" width="26.005" height="26.537" fill="#C4C4C4" fill-opacity="0.35"/>
<rect x="720.591" y="74.4746" width="26.005" height="26.537" fill="#C4C4C4" fill-opacity="0.35"/>
<rect x="755.824" y="74.4746" width="26.005" height="26.537" fill="#C4C4C4" fill-opacity="0.35"/>
<rect x="791.056" y="74.4746" width="26.005" height="26.537" fill="#C4C4C4" fill-opacity="0.35"/>
<ellipse cx="708.847" cy="24.8248" rx="9.22759" ry="9.41634" fill="#C4C4C4" fill-opacity="0.24"/>
<path d="M717.575 24.8248C717.575 29.7587 713.658 33.7411 708.847 33.7411C704.036 33.7411 700.119 29.7587 700.119 24.8248C700.119 19.8908 704.036 15.9084 708.847 15.9084C713.658 15.9084 717.575 19.8908 717.575 24.8248Z" stroke="black" stroke-opacity="0.33"/>
<ellipse cx="736.53" cy="24.8248" rx="9.22759" ry="9.41634" fill="#C4C4C4" fill-opacity="0.24"/>
<path d="M745.257 24.8248C745.257 29.7587 741.34 33.7411 736.53 33.7411C731.719 33.7411 727.802 29.7587 727.802 24.8248C727.802 19.8908 731.719 15.9084 736.53 15.9084C741.34 15.9084 745.257 19.8908 745.257 24.8248Z" stroke="black" stroke-opacity="0.33"/>
<ellipse cx="766.729" cy="24.8248" rx="9.22759" ry="9.41634" fill="#C4C4C4" fill-opacity="0.24"/>
<path d="M775.457 24.8248C775.457 29.7587 771.54 33.7411 766.729 33.7411C761.918 33.7411 758.001 29.7587 758.001 24.8248C758.001 19.8908 761.918 15.9084 766.729 15.9084C771.54 15.9084 775.457 19.8908 775.457 24.8248Z" stroke="black" stroke-opacity="0.33"/>
<ellipse cx="794.412" cy="24.8248" rx="9.22759" ry="9.41634" fill="#C4C4C4" fill-opacity="0.24"/>
<path d="M803.14 24.8248C803.14 29.7587 799.223 33.7411 794.412 33.7411C789.601 33.7411 785.684 29.7587 785.684 24.8248C785.684 19.8908 789.601 15.9084 794.412 15.9084C799.223 15.9084 803.14 19.8908 803.14 24.8248Z" stroke="black" stroke-opacity="0.33"/>
<path d="M210.802 130.296C211.375 129.697 211.353 128.748 210.755 128.176L200.999 118.853C200.4 118.281 199.451 118.303 198.878 118.903C198.305 119.502 198.327 120.451 198.925 121.023L207.597 129.31L199.303 137.99C198.731 138.589 198.752 139.539 199.35 140.111C199.949 140.683 200.899 140.661 201.471 140.061L210.802 130.296ZM172.841 131.616L209.751 130.76L209.685 127.761L172.774 128.617L172.841 131.616Z" fill="black"/>
<path d="M171.724 96.9112C171.151 96.312 171.172 95.3625 171.771 94.7904L181.527 85.4682C182.125 84.8961 183.075 84.9181 183.648 85.5174C184.22 86.1166 184.199 87.0661 183.6 87.6382L174.928 95.9246L183.222 104.605C183.795 105.204 183.774 106.153 183.175 106.725C182.577 107.297 181.627 107.275 181.054 106.676L171.724 96.9112ZM209.685 98.2311L172.774 97.375L172.841 94.3758L209.751 95.2318L209.685 98.2311Z" fill="black"/>
<path d="M433.942 129.441C434.515 128.841 434.493 127.892 433.895 127.32L424.139 117.997C423.54 117.425 422.591 117.447 422.018 118.047C421.445 118.646 421.467 119.595 422.065 120.167L430.737 128.454L422.443 137.134C421.871 137.733 421.892 138.683 422.49 139.255C423.089 139.827 424.039 139.805 424.611 139.205L433.942 129.441ZM395.981 130.76L432.891 129.904L432.825 126.905L395.914 127.761L395.981 130.76Z" fill="black"/>
<path d="M394.864 96.0553C394.291 95.456 394.312 94.5065 394.911 93.9345L404.667 84.6122C405.266 84.0402 406.215 84.0622 406.788 84.6614C407.36 85.2606 407.339 86.2101 406.74 86.7822L398.068 95.0686L406.362 103.749C406.935 104.348 406.914 105.297 406.315 105.869C405.717 106.441 404.767 106.419 404.194 105.82L394.864 96.0553ZM432.825 97.3751L395.914 96.5191L395.981 93.5198L432.891 94.3759L432.825 97.3751Z" fill="black"/>
<path d="M659.599 122.592C660.171 121.993 660.15 121.043 659.551 120.471L649.795 111.149C649.197 110.577 648.247 110.599 647.675 111.198C647.102 111.797 647.123 112.747 647.722 113.319L656.394 121.606L648.1 130.285C647.527 130.885 647.548 131.834 648.147 132.406C648.746 132.978 649.695 132.956 650.268 132.357L659.599 122.592ZM621.638 123.912L658.548 123.056L658.481 120.057L621.571 120.913L621.638 123.912Z" fill="black"/>
<path d="M620.52 89.2071C619.948 88.6079 619.969 87.6584 620.568 87.0863L630.323 77.7641C630.922 77.192 631.872 77.214 632.444 77.8133C633.017 78.4125 632.996 79.362 632.397 79.9341L623.725 88.2205L632.019 96.9004C632.592 97.4996 632.571 98.4491 631.972 99.0212C631.373 99.5933 630.424 99.5712 629.851 98.972L620.52 89.2071ZM658.481 90.527L621.571 89.6709L621.638 86.6717L658.548 87.5277L658.481 90.527Z" fill="black"/>
</svg>
