<svg width="52" height="52" viewBox="0 0 52 52" fill="none" xmlns="http://www.w3.org/2000/svg">
<circle cx="26" cy="26" r="24" fill="url(#paint0_radial_504_46)" fill-opacity="0.28"/>
<circle cx="26" cy="26" r="24.5" stroke="url(#paint1_linear_504_46)"/>
<path d="M8.67588 43.3241C5.2495 39.8977 2.9161 35.5322 1.97076 30.7797C1.02542 26.0272 1.5106 21.101 3.36495 16.6243C5.2193 12.1475 8.35953 8.32109 12.3885 5.62899C16.4175 2.9369 21.1544 1.5 26 1.5C30.8456 1.5 35.5825 2.9369 39.6115 5.62899C43.6405 8.32109 46.7807 12.1475 48.635 16.6243C50.4894 21.101 50.9746 26.0272 50.0292 30.7797C49.0839 35.5322 46.7505 39.8977 43.3241 43.3241" stroke="url(#paint2_linear_504_46)" stroke-width="3"/>
<path d="M17.7414 27.1618C17.4142 27.6373 16.6895 27.9059 15.5964 27.7737C14.5267 27.6443 13.2335 27.1369 11.9903 26.2589C10.7471 25.381 9.82978 24.3273 9.33998 23.3555C8.83942 22.3623 8.83763 21.5806 9.16486 21.1051C9.49209 20.6297 10.2168 20.361 11.3099 20.4932C12.3795 20.6226 13.6727 21.13 14.916 22.008C16.1592 22.8859 17.0765 23.9396 17.5663 24.9114C18.0668 25.9047 18.0686 26.6863 17.7414 27.1618Z" fill="url(#paint3_radial_504_46)" stroke="#FAB854"/>
<path d="M18.2968 37.721C18.0812 38.2599 17.4324 38.6844 16.3386 38.8011C15.2677 38.9154 13.8961 38.7115 12.492 38.1351C11.0879 37.5587 9.96311 36.7379 9.27288 35.9007C8.56784 35.0456 8.39382 34.2833 8.60942 33.7444C8.82502 33.2054 9.47386 32.7809 10.5677 32.6642C11.6385 32.5499 13.0102 32.7538 14.4142 33.3302C15.8183 33.9066 16.9431 34.7274 17.6334 35.5646C18.3384 36.4197 18.5124 37.182 18.2968 37.721Z" fill="url(#paint4_radial_504_46)" stroke="#FAB854"/>
<path d="M28.5584 47.8096C28.0834 48.1259 27.3135 48.1048 26.3452 47.57C25.3986 47.0473 24.3829 46.0891 23.5496 44.8056C22.7163 43.5221 22.2502 42.1978 22.1514 41.1103C22.0504 39.9978 22.3362 39.2734 22.8111 38.957C23.286 38.6406 24.0559 38.6618 25.0243 39.1965C25.9709 39.7193 26.9866 40.6774 27.8199 41.9609C28.6532 43.2444 29.1193 44.5687 29.2181 45.6562C29.3191 46.7688 29.0333 47.4932 28.5584 47.8096Z" fill="url(#paint5_radial_504_46)" stroke="#FAB854"/>
<path d="M39.0457 32.6672C38.866 33.2199 38.2463 33.6873 37.1628 33.8776C36.102 34.064 34.7201 33.9532 33.2813 33.4731C31.8425 32.993 30.6662 32.25 29.9225 31.4615C29.1629 30.6561 28.9388 29.9071 29.1185 29.3544C29.2983 28.8017 29.918 28.3343 31.0014 28.1439C32.0623 27.9576 33.4441 28.0683 34.8829 28.5485C36.3217 29.0286 37.498 29.7715 38.2418 30.5601C39.0014 31.3655 39.2255 32.1145 39.0457 32.6672Z" fill="url(#paint6_radial_504_46)" stroke="#FAB854"/>
<path d="M28.5526 12.1553C28.5581 12.7382 28.1194 13.3829 27.1546 13.9162C26.2097 14.4385 24.8664 14.7842 23.3519 14.7989C21.8374 14.8136 20.4879 14.4939 19.5333 13.99C18.5586 13.4755 18.1078 12.8394 18.1023 12.2565C18.0968 11.6736 18.5355 11.0289 19.5003 10.4957C20.4452 9.97335 21.7884 9.62759 23.303 9.61292C24.8175 9.59826 26.167 9.91794 27.1216 10.4218C28.0963 10.9363 28.5471 11.5724 28.5526 12.1553Z" fill="url(#paint7_radial_504_46)" stroke="#FAB854"/>
<path d="M38.9094 10.1081C39.4637 10.2226 39.9949 10.786 40.3095 11.8583C40.6167 12.9058 40.6697 14.3115 40.3666 15.8174C40.0634 17.3233 39.4715 18.5958 38.7839 19.4378C38.08 20.2998 37.3734 20.6076 36.8191 20.4931C36.2648 20.3786 35.7335 19.8152 35.419 18.7428C35.1117 17.6954 35.0588 16.2897 35.3619 14.7838C35.665 13.2779 36.257 12.0054 36.9445 11.1634C37.6485 10.3014 38.355 9.9936 38.9094 10.1081Z" fill="url(#paint8_radial_504_46)" stroke="#FAB854"/>
<defs>
<radialGradient id="paint0_radial_504_46" cx="0" cy="0" r="1" gradientUnits="userSpaceOnUse" gradientTransform="translate(26 26) rotate(90) scale(24)">
<stop offset="0.0416667" stop-color="#40C3E0"/>
<stop offset="1" stop-color="#DED9D9" stop-opacity="0"/>
</radialGradient>
<linearGradient id="paint1_linear_504_46" x1="26" y1="1" x2="26" y2="51" gradientUnits="userSpaceOnUse">
<stop offset="0.744792" stop-color="#E3C598" stop-opacity="0.1"/>
<stop offset="1" stop-color="#D5FFC1"/>
</linearGradient>
<linearGradient id="paint2_linear_504_46" x1="26" y1="0" x2="26" y2="41.8889" gradientUnits="userSpaceOnUse">
<stop offset="0.6875" stop-color="#0F0E0C"/>
<stop offset="1" stop-color="white" stop-opacity="0"/>
</linearGradient>
<radialGradient id="paint3_radial_504_46" cx="0" cy="0" r="1" gradientUnits="userSpaceOnUse" gradientTransform="translate(13.4531 24.1335) rotate(124.537) scale(3.08023 5.74935)">
<stop stop-color="#5D604E"/>
<stop offset="1" stop-color="#C1BCB3"/>
</radialGradient>
<radialGradient id="paint4_radial_504_46" cx="0" cy="0" r="1" gradientUnits="userSpaceOnUse" gradientTransform="translate(13.4531 35.7327) rotate(111.804) scale(3.08756 5.73569)">
<stop stop-color="#5D604E"/>
<stop offset="1" stop-color="#C1BCB3"/>
</radialGradient>
<radialGradient id="paint5_radial_504_46" cx="0" cy="0" r="1" gradientUnits="userSpaceOnUse" gradientTransform="translate(25.6847 43.3833) rotate(146.33) scale(3.06554 5.77689)">
<stop stop-color="#5D604E"/>
<stop offset="1" stop-color="#C1BCB3"/>
</radialGradient>
<radialGradient id="paint6_radial_504_46" cx="0" cy="0" r="1" gradientUnits="userSpaceOnUse" gradientTransform="translate(34.0821 31.0108) rotate(108.016) scale(3.08926 5.73253)">
<stop stop-color="#5D604E"/>
<stop offset="1" stop-color="#C1BCB3"/>
</radialGradient>
<radialGradient id="paint7_radial_504_46" cx="0" cy="0" r="1" gradientUnits="userSpaceOnUse" gradientTransform="translate(23.3274 12.2059) rotate(89.4592) scale(3.09311 5.7254)">
<stop stop-color="#5D604E"/>
<stop offset="1" stop-color="#C1BCB3"/>
</radialGradient>
<radialGradient id="paint8_radial_504_46" cx="0" cy="0" r="1" gradientUnits="userSpaceOnUse" gradientTransform="translate(37.8642 15.3006) rotate(11.669) scale(3.05513 5.79658)">
<stop stop-color="#5D604E"/>
<stop offset="1" stop-color="#C1BCB3"/>
</radialGradient>
</defs>
</svg>
