<svg width="52" height="52" viewBox="0 0 52 52" fill="none" xmlns="http://www.w3.org/2000/svg">
<g opacity="0.4">
<circle cx="26" cy="27" r="16.5" stroke="url(#paint0_linear_504_46)"/>
<path d="M14.3327 38.6673C12.0252 36.3597 10.4537 33.4197 9.81704 30.219C9.18039 27.0183 9.50714 23.7007 10.756 20.6857C12.0048 17.6707 14.1197 15.0938 16.8331 13.2808C19.5465 11.4677 22.7366 10.5 26 10.5C29.2634 10.5 32.4535 11.4677 35.1669 13.2808C37.8803 15.0938 39.9952 17.6707 41.244 20.6857C42.4929 23.7007 42.8196 27.0183 42.183 30.219C41.5463 33.4197 39.9748 36.3597 37.6673 38.6673" stroke="url(#paint1_linear_504_46)" stroke-width="3"/>
<circle cx="26" cy="26" r="24.5" stroke="url(#paint2_linear_504_46)"/>
<path d="M8.67588 43.3241C5.2495 39.8977 2.9161 35.5322 1.97076 30.7797C1.02542 26.0272 1.5106 21.101 3.36495 16.6243C5.2193 12.1475 8.35953 8.32109 12.3885 5.62899C16.4175 2.9369 21.1544 1.5 26 1.5C30.8456 1.5 35.5825 2.9369 39.6115 5.62899C43.6405 8.32109 46.7807 12.1475 48.635 16.6243C50.4894 21.101 50.9746 26.0272 50.0292 30.7797C49.0839 35.5322 46.7505 39.8977 43.3241 43.3241" stroke="url(#paint3_linear_504_46)" stroke-width="3"/>
</g>
<path d="M18.7414 25.1618C18.4142 25.6373 17.6895 25.9059 16.5964 25.7737C15.5267 25.6443 14.2335 25.1369 12.9903 24.2589C11.7471 23.381 10.8298 22.3273 10.34 21.3555C9.83942 20.3623 9.83763 19.5806 10.1649 19.1051C10.4921 18.6297 11.2168 18.361 12.3099 18.4932C13.3795 18.6226 14.6727 19.13 15.916 20.008C17.1592 20.8859 18.0765 21.9396 18.5663 22.9114C19.0668 23.9047 19.0686 24.6863 18.7414 25.1618Z" fill="url(#paint4_radial_504_46)" stroke="#7A7266"/>
<path d="M19.2968 35.721C19.0812 36.2599 18.4324 36.6844 17.3386 36.8011C16.2677 36.9154 14.8961 36.7115 13.492 36.1351C12.0879 35.5587 10.9631 34.7379 10.2729 33.9007C9.56784 33.0456 9.39382 32.2833 9.60942 31.7444C9.82502 31.2054 10.4739 30.7809 11.5677 30.6642C12.6385 30.5499 14.0102 30.7538 15.4142 31.3302C16.8183 31.9066 17.9431 32.7274 18.6334 33.5646C19.3384 34.4197 19.5124 35.182 19.2968 35.721Z" fill="url(#paint5_radial_504_46)" stroke="#7A7266"/>
<path d="M29.5584 45.8096C29.0834 46.1259 28.3135 46.1048 27.3452 45.57C26.3986 45.0473 25.3829 44.0891 24.5496 42.8056C23.7163 41.5221 23.2502 40.1978 23.1514 39.1103C23.0504 37.9978 23.3362 37.2734 23.8111 36.957C24.286 36.6406 25.0559 36.6618 26.0243 37.1965C26.9709 37.7193 27.9866 38.6774 28.8199 39.9609C29.6532 41.2444 30.1193 42.5687 30.2181 43.6562C30.3191 44.7688 30.0333 45.4932 29.5584 45.8096Z" fill="url(#paint6_radial_504_46)" stroke="#7A7266"/>
<path d="M40.0457 30.6672C39.866 31.2199 39.2463 31.6873 38.1628 31.8776C37.102 32.064 35.7201 31.9532 34.2813 31.4731C32.8425 30.993 31.6662 30.25 30.9225 29.4615C30.1629 28.6561 29.9388 27.9071 30.1185 27.3544C30.2983 26.8017 30.918 26.3343 32.0014 26.1439C33.0623 25.9576 34.4441 26.0683 35.8829 26.5485C37.3217 27.0286 38.498 27.7715 39.2418 28.5601C40.0014 29.3655 40.2255 30.1145 40.0457 30.6672Z" fill="url(#paint7_radial_504_46)" stroke="#7A7266"/>
<path d="M29.5526 10.1553C29.5581 10.7382 29.1194 11.3829 28.1546 11.9162C27.2097 12.4385 25.8664 12.7842 24.3519 12.7989C22.8374 12.8136 21.4879 12.4939 20.5333 11.99C19.5586 11.4755 19.1078 10.8394 19.1023 10.2565C19.0968 9.67364 19.5355 9.02894 20.5003 8.49565C21.4452 7.97335 22.7884 7.62759 24.303 7.61292C25.8175 7.59826 27.167 7.91794 28.1216 8.42184C29.0963 8.93634 29.5471 9.57242 29.5526 10.1553Z" fill="url(#paint8_radial_504_46)" stroke="#7A7266"/>
<path d="M39.9094 8.10808C40.4637 8.22256 40.9949 8.78597 41.3095 9.85835C41.6167 10.9058 41.6697 12.3115 41.3666 13.8174C41.0634 15.3233 40.4715 16.5958 39.7839 17.4378C39.08 18.2998 38.3734 18.6076 37.8191 18.4931C37.2648 18.3786 36.7335 17.8152 36.419 16.7428C36.1117 15.6954 36.0588 14.2897 36.3619 12.7838C36.665 11.2779 37.257 10.0054 37.9445 9.1634C38.6485 8.30136 39.355 7.9936 39.9094 8.10808Z" fill="url(#paint9_radial_504_46)" stroke="#7A7266"/>
<defs>
<linearGradient id="paint0_linear_504_46" x1="26" y1="10" x2="26" y2="44" gradientUnits="userSpaceOnUse">
<stop offset="0.84375" stop-color="#C3FA26" stop-opacity="0.1"/>
<stop offset="1" stop-color="#D9D4CD" stop-opacity="0.74"/>
</linearGradient>
<linearGradient id="paint1_linear_504_46" x1="26" y1="9" x2="26" y2="38" gradientUnits="userSpaceOnUse">
<stop stop-color="#FFBF84"/>
<stop offset="1" stop-color="white" stop-opacity="0"/>
</linearGradient>
<linearGradient id="paint2_linear_504_46" x1="26" y1="1" x2="26" y2="51" gradientUnits="userSpaceOnUse">
<stop offset="0.744792" stop-color="#E3C598" stop-opacity="0.1"/>
<stop offset="1" stop-color="#D5FFC1"/>
</linearGradient>
<linearGradient id="paint3_linear_504_46" x1="26" y1="0" x2="26" y2="41.8889" gradientUnits="userSpaceOnUse">
<stop stop-color="#FFBF84"/>
<stop offset="1" stop-color="white" stop-opacity="0"/>
</linearGradient>
<radialGradient id="paint4_radial_504_46" cx="0" cy="0" r="1" gradientUnits="userSpaceOnUse" gradientTransform="translate(14.4531 22.1335) rotate(124.537) scale(3.08023 5.74935)">
<stop stop-color="#E0FC37"/>
<stop offset="1" stop-color="#C1BCB3"/>
</radialGradient>
<radialGradient id="paint5_radial_504_46" cx="0" cy="0" r="1" gradientUnits="userSpaceOnUse" gradientTransform="translate(14.4531 33.7327) rotate(111.804) scale(3.08756 5.73569)">
<stop stop-color="#E0FC37"/>
<stop offset="1" stop-color="#C1BCB3"/>
</radialGradient>
<radialGradient id="paint6_radial_504_46" cx="0" cy="0" r="1" gradientUnits="userSpaceOnUse" gradientTransform="translate(26.6847 41.3833) rotate(146.33) scale(3.06554 5.77689)">
<stop stop-color="#E0FC37"/>
<stop offset="1" stop-color="#C1BCB3"/>
</radialGradient>
<radialGradient id="paint7_radial_504_46" cx="0" cy="0" r="1" gradientUnits="userSpaceOnUse" gradientTransform="translate(35.0821 29.0108) rotate(108.016) scale(3.08926 5.73253)">
<stop stop-color="#E0FC37"/>
<stop offset="1" stop-color="#C1BCB3"/>
</radialGradient>
<radialGradient id="paint8_radial_504_46" cx="0" cy="0" r="1" gradientUnits="userSpaceOnUse" gradientTransform="translate(24.3274 10.2059) rotate(89.4592) scale(3.09311 5.7254)">
<stop stop-color="#E0FC37"/>
<stop offset="1" stop-color="#C1BCB3"/>
</radialGradient>
<radialGradient id="paint9_radial_504_46" cx="0" cy="0" r="1" gradientUnits="userSpaceOnUse" gradientTransform="translate(38.8642 13.3006) rotate(11.669) scale(3.05513 5.79658)">
<stop stop-color="#E0FC37"/>
<stop offset="1" stop-color="#C1BCB3"/>
</radialGradient>
</defs>
</svg>
