<svg width="14" height="14" viewBox="0 0 14 14" fill="none" xmlns="http://www.w3.org/2000/svg">
<rect y="11" width="14" height="2" fill="#1CFF92"/>
<rect y="6" width="14" height="2" fill="#1CFF92"/>
<rect y="1" width="14" height="2" fill="#1CFF92"/>
<path d="M5.35355 0.646447C5.15829 0.451184 4.84171 0.451184 4.64645 0.646447L1.46447 3.82843C1.2692 4.02369 1.2692 4.34027 1.46447 4.53553C1.65973 4.7308 1.97631 4.7308 2.17157 4.53553L5 1.70711L7.82843 4.53553C8.02369 4.7308 8.34027 4.7308 8.53553 4.53553C8.7308 4.34027 8.7308 4.02369 8.53553 3.82843L5.35355 0.646447ZM5.5 7V1H4.5V7H5.5Z" fill="white" fill-opacity="0.74"/>
<path d="M10.3536 13.3536C10.1583 13.5488 9.84171 13.5488 9.64645 13.3536L6.46447 10.1716C6.2692 9.97631 6.2692 9.65973 6.46447 9.46447C6.65973 9.2692 6.97631 9.2692 7.17157 9.46447L10 12.2929L12.8284 9.46447C13.0237 9.2692 13.3403 9.2692 13.5355 9.46447C13.7308 9.65973 13.7308 9.97631 13.5355 10.1716L10.3536 13.3536ZM10.5 7V13H9.5V7H10.5Z" fill="white" fill-opacity="0.74"/>
</svg>
