<svg width="42" height="37" viewBox="0 0 42 37" fill="none" xmlns="http://www.w3.org/2000/svg">
<path d="M41.0607 26.0607C41.6464 25.4749 41.6464 24.5251 41.0607 23.9393L31.5147 14.3934C30.9289 13.8076 29.9792 13.8076 29.3934 14.3934C28.8076 14.9792 28.8076 15.9289 29.3934 16.5147L37.8787 25L29.3934 33.4853C28.8076 34.0711 28.8076 35.0208 29.3934 35.6066C29.9792 36.1924 30.9289 36.1924 31.5147 35.6066L41.0607 26.0607ZM0.93934 10.9393C0.353553 11.5251 0.353553 12.4749 0.93934 13.0607L10.4853 22.6066C11.0711 23.1924 12.0208 23.1924 12.6066 22.6066C13.1924 22.0208 13.1924 21.0711 12.6066 20.4853L4.12132 12L12.6066 3.51472C13.1924 2.92893 13.1924 1.97918 12.6066 1.3934C12.0208 0.807612 11.0711 0.807612 10.4853 1.3934L0.93934 10.9393ZM2 26.5H40V23.5H2V26.5ZM37.6575 10.5H2V13.5H37.6575V10.5Z" fill="white"/>
</svg>
