<svg width="126" height="82" viewBox="0 0 126 82" fill="none" xmlns="http://www.w3.org/2000/svg">
<rect width="126" height="82" rx="3" fill="#252424"/>
<rect x="10" y="37" width="107" height="43" fill="white"/>
<rect x="19" y="37" width="10" height="22" fill="black"/>
<rect x="19" y="37" width="10" height="22" fill="black"/>
<rect x="19" y="37" width="10" height="22" fill="black"/>
<rect x="34" y="37" width="10" height="22" fill="black"/>
<rect x="34" y="37" width="10" height="22" fill="black"/>
<rect x="34" y="37" width="10" height="22" fill="black"/>
<rect x="49" y="37" width="10" height="22" fill="black"/>
<rect x="49" y="37" width="10" height="22" fill="black"/>
<rect x="49" y="37" width="10" height="22" fill="black"/>
<rect x="75" y="37" width="10" height="22" fill="black"/>
<rect x="75" y="37" width="10" height="22" fill="black"/>
<rect x="75" y="37" width="10" height="22" fill="black"/>
<rect x="90" y="37" width="10" height="22" fill="black"/>
<rect x="90" y="37" width="10" height="22" fill="black"/>
<rect x="90" y="37" width="10" height="22" fill="black"/>
<rect x="10" y="4" width="21" height="12" fill="black"/>
<circle cx="48" cy="10" r="5.5" fill="black" stroke="#545252"/>
<circle cx="69" cy="10" r="5.5" fill="black" stroke="#545252"/>
</svg>
