<svg width="126" height="82" viewBox="0 0 126 82" fill="none" xmlns="http://www.w3.org/2000/svg">
<rect width="126" height="82" rx="10" fill="#434343"/>
<rect x="10" y="28" width="107" height="52" fill="white"/>
<rect x="19" y="28" width="10" height="33" fill="black"/>
<rect x="19" y="28" width="10" height="33" fill="black"/>
<rect x="19" y="28" width="10" height="33" fill="black"/>
<rect x="34" y="28" width="10" height="33" fill="black"/>
<rect x="34" y="28" width="10" height="33" fill="black"/>
<rect x="34" y="28" width="10" height="33" fill="black"/>
<rect x="49" y="28" width="10" height="33" fill="black"/>
<rect x="49" y="28" width="10" height="33" fill="black"/>
<rect x="49" y="28" width="10" height="33" fill="black"/>
<rect x="75" y="28" width="10" height="33" fill="black"/>
<rect x="75" y="28" width="10" height="33" fill="black"/>
<rect x="75" y="28" width="10" height="33" fill="black"/>
<rect x="90" y="28" width="10" height="33" fill="black"/>
<rect x="90" y="28" width="10" height="33" fill="black"/>
<rect x="90" y="28" width="10" height="33" fill="black"/>
<circle cx="23" cy="14" r="8" fill="#959595"/>
<circle cx="46" cy="14" r="8" fill="#959595"/>
</svg>
