<svg width="946" height="108" viewBox="0 0 946 108" fill="none" xmlns="http://www.w3.org/2000/svg">
<path d="M4 54C35.2667 -12.6667 66.5333 -12.6667 97.8 54C129.067 120.667 160.333 120.667 191.6 54C222.867 -12.6667 254.133 -12.6667 285.4 54C316.667 120.667 347.933 120.667 379.2 54C410.467 -12.6667 441.733 -12.6667 473 54C504.267 120.667 535.533 120.667 566.8 54C598.067 -12.6667 629.333 -12.6667 660.6 54C691.867 120.667 723.133 120.667 754.4 54C785.667 -12.6667 816.933 -12.6667 848.2 54C879.467 120.667 910.733 120.667 942 54" stroke="#0066FF" stroke-width="8"/>
</svg>
