<svg width="327" height="343" viewBox="0 0 327 343" fill="none" xmlns="http://www.w3.org/2000/svg">
<path d="M91.25 54.4856C85.0368 43.724 88.724 29.9632 99.4856 23.75L121.136 11.25C131.898 5.0368 145.659 8.72399 151.872 19.4856V19.4856C158.085 30.2472 154.398 44.0079 143.636 50.2211L121.986 62.7211C111.224 68.9343 97.4632 65.2472 91.25 54.4856V54.4856Z" fill="white"/>
<path d="M159.25 323.486C153.037 312.724 156.724 298.963 167.486 292.75L189.136 280.25C199.898 274.037 213.659 277.724 219.872 288.486V288.486C226.085 299.247 222.398 313.008 211.636 319.221L189.986 331.721C179.224 337.934 165.463 334.247 159.25 323.486V323.486Z" fill="white"/>
<rect x="282" y="222" width="171" height="45" rx="22.5" transform="rotate(-90 282 222)" fill="white"/>
<rect y="308" width="171" height="45" rx="22.5" transform="rotate(-90 0 308)" fill="white"/>
</svg>
