<svg width="891" height="150" viewBox="0 0 891 150" fill="none" xmlns="http://www.w3.org/2000/svg">
<path d="M79.757 40.2985H148.12L79.757 107.463H148.12" stroke="#FFFEFE" stroke-width="9"/>
<path d="M169.769 40.2985H216.483" stroke="#FFFEFE" stroke-width="9"/>
<path d="M170.908 107.463H216.483" stroke="#FFFEFE" stroke-width="9"/>
<path d="M170.908 74.0193L216.483 74.0193" stroke="#FFFEFE" stroke-width="9"/>
<path d="M421.573 40.2985H468.288" stroke="#FFFEFE" stroke-width="9"/>
<path d="M422.712 107.463H468.288" stroke="#FFFEFE" stroke-width="9"/>
<path d="M422.712 74.0193L468.288 74.0193" stroke="#FFFEFE" stroke-width="9"/>
<path d="M672.238 40.2985H718.953" stroke="#FFFEFE" stroke-width="9"/>
<path d="M673.377 107.463H718.953" stroke="#FFFEFE" stroke-width="9"/>
<path d="M673.377 74.0193L718.953 74.0193" stroke="#FFFEFE" stroke-width="9"/>
<path d="M303.134 72.7974C303.134 88.7336 288.204 102.999 272.313 102.999C256.805 102.999 243.771 89.1225 243.771 72.7974C243.771 56.866 256.418 44.8347 272.313 44.8347C288.608 44.8347 303.134 57.2359 303.134 72.7974Z" stroke="#FFFEFE" stroke-width="9"/>
<line y1="-4.5" x2="31.9454" y2="-4.5" transform="matrix(0.713335 0.700823 -0.713335 0.700823 284.847 85.0746)" stroke="#FFFEFE" stroke-width="9"/>
<path d="M330.422 40.2985V85.4109C330.422 102.328 339.537 107.463 353.21 107.463C366.882 107.463 375.997 107.463 375.997 107.463C398.785 107.463 398.785 85.4109 398.785 85.4109V40.2985" stroke="#FFFEFE" stroke-width="9"/>
<path d="M489.936 107.463V40.2985L543.487 91.791M558.299 107.463V40.2985" stroke="#FFFEFE" stroke-width="9"/>
<line x1="649.45" y1="44.7985" x2="592.481" y2="44.7985" stroke="#FFFEFE" stroke-width="9"/>
<line x1="585.587" y1="62.6866" x2="585.587" y2="85.0746" stroke="#FFFEFE" stroke-width="9"/>
<line y1="-4.5" x2="31.9453" y2="-4.5" transform="matrix(0.713334 0.700825 -0.713334 0.700825 581.087 85.0746)" stroke="#FFFEFE" stroke-width="9"/>
<line x1="603.875" y1="102.963" x2="649.45" y2="102.963" stroke="#FFFEFE" stroke-width="9"/>
<line x1="736.101" y1="107.463" x2="736.101" y2="62.6866" stroke="#FFFEFE" stroke-width="9"/>
<line y1="-4.5" x2="25.5563" y2="-4.5" transform="matrix(0.713334 -0.700824 0.713334 0.700824 742.88 60.4478)" stroke="#FFFEFE" stroke-width="9"/>
<line x1="763.389" y1="35.7985" x2="808.964" y2="35.7985" stroke="#FFFEFE" stroke-width="9"/>
<line y1="-4.5" x2="63.8907" y2="-4.5" transform="matrix(0.713335 0.700823 -0.713335 0.700823 763.389 62.6866)" stroke="#FFFEFE" stroke-width="9"/>
</svg>
