<svg width="391" height="67" viewBox="0 0 391 67" fill="none" xmlns="http://www.w3.org/2000/svg">
<path d="M36 18H66L36 48H66" stroke="white" stroke-width="6"/>
<path d="M78 18H99" stroke="white" stroke-width="6"/>
<path d="M78 46H98" stroke="white" stroke-width="6"/>
<path d="M78 32L98 32" stroke="white" stroke-width="6"/>
<path d="M136 30.4333C136 38.1312 128.887 45 121.433 45C114.233 45 108 38.3926 108 30.4333C108 22.7387 113.977 17 121.433 17C129.154 17 136 22.9879 136 30.4333Z" stroke="white" stroke-width="6"/>
<line x1="127.121" y1="35.8787" x2="137.121" y2="45.8787" stroke="white" stroke-width="6"/>
<path d="M151 16V35.4785C151 42.783 154.067 45 158.667 45C163.267 45 166.333 45 166.333 45C174 45 174 35.4785 174 35.4785V16" stroke="white" stroke-width="6"/>
<path d="M216 48V20L239.5 41.4667M246 48V20" stroke="white" stroke-width="6"/>
<line x1="285" y1="19" x2="260" y2="19" stroke="white" stroke-width="6"/>
<line x1="258" y1="28" x2="258" y2="38" stroke="white" stroke-width="6"/>
<line x1="257.121" y1="35.8787" x2="267.121" y2="45.8787" stroke="white" stroke-width="6"/>
<line x1="265" y1="45" x2="285" y2="45" stroke="white" stroke-width="6"/>
<line x1="322" y1="48" x2="322" y2="29" stroke="white" stroke-width="6"/>
<line x1="323.812" y1="26.2787" x2="331.279" y2="18.812" stroke="white" stroke-width="6"/>
<line x1="334" y1="17" x2="353" y2="17" stroke="white" stroke-width="6"/>
<line x1="336.455" y1="27.212" x2="355.121" y2="45.8787" stroke="white" stroke-width="6"/>
<path d="M186 18H207" stroke="white" stroke-width="6"/>
<path d="M186 46H206" stroke="white" stroke-width="6"/>
<path d="M186 32L206 32" stroke="white" stroke-width="6"/>
<path d="M293 17H314" stroke="white" stroke-width="6"/>
<path d="M293 45H313" stroke="white" stroke-width="6"/>
<path d="M293 31L313 31" stroke="white" stroke-width="6"/>
</svg>
