<svg width="333" height="41" viewBox="0 0 333 41" fill="none" xmlns="http://www.w3.org/2000/svg">
<path d="M8 8H38L8 38H38" stroke="black" stroke-width="6"/>
<path d="M47.5 8H68" stroke="black" stroke-width="6"/>
<path d="M48 38H68" stroke="black" stroke-width="6"/>
<path d="M48 23.062L68 23.062" stroke="black" stroke-width="6"/>
<path d="M158 8H178.5" stroke="black" stroke-width="6"/>
<path d="M158.5 38H178.5" stroke="black" stroke-width="6"/>
<path d="M158.5 23.062L178.5 23.062" stroke="black" stroke-width="6"/>
<path d="M268 8H288.5" stroke="black" stroke-width="6"/>
<path d="M268.5 38H288.5" stroke="black" stroke-width="6"/>
<path d="M268.5 23.062L288.5 23.062" stroke="black" stroke-width="6"/>
<path d="M105 22.5162C105 29.1095 98.8856 35.0162 92.5 35.0162C86.3673 35.0162 81 29.3709 81 22.5162C81 15.9261 86.1111 11.0162 92.5 11.0162C99.1531 11.0162 105 16.1753 105 22.5162Z" stroke="black" stroke-width="6"/>
<line x1="100.121" y1="25.8787" x2="110.121" y2="35.8787" stroke="black" stroke-width="6"/>
<path d="M118 8V28.1502C118 35.7065 122 38 128 38C134 38 138 38 138 38C148 38 148 28.1502 148 28.1502V8" stroke="black" stroke-width="6"/>
<path d="M188 38V8L211.5 31M218 38V8.00001" stroke="black" stroke-width="6"/>
<line x1="258" y1="11" x2="233" y2="11" stroke="black" stroke-width="6"/>
<line x1="231" y1="18" x2="231" y2="28" stroke="black" stroke-width="6"/>
<line x1="230.121" y1="25.8787" x2="240.121" y2="35.8787" stroke="black" stroke-width="6"/>
<line x1="238" y1="35" x2="258" y2="35" stroke="black" stroke-width="6"/>
<line x1="295" y1="38" x2="295" y2="18" stroke="black" stroke-width="6"/>
<line x1="296.879" y1="14.8787" x2="304.879" y2="6.87868" stroke="black" stroke-width="6"/>
<line x1="308" y1="5" x2="328" y2="5" stroke="black" stroke-width="6"/>
<line x1="310.121" y1="15.8787" x2="330.121" y2="35.8787" stroke="black" stroke-width="6"/>
</svg>
