<svg width="141" height="113" viewBox="0 0 141 113" fill="none" xmlns="http://www.w3.org/2000/svg">
<ellipse cx="84.6979" cy="55.2979" rx="56.3021" ry="55.2979" fill="#3E3E3E"/>
<ellipse cx="56.3021" cy="55.2979" rx="56.3021" ry="55.2979" fill="#3E3E3E"/>
<ellipse cx="65.6042" cy="55.2979" rx="56.3021" ry="55.2979" fill="#7E7D7D"/>
<ellipse cx="61.1979" cy="55.2979" rx="56.3021" ry="55.2979" fill="black"/>
<ellipse cx="78.8229" cy="55.2979" rx="56.3021" ry="55.2979" fill="black"/>
<ellipse cx="70.0104" cy="55.2979" rx="56.3021" ry="55.2979" fill="white"/>
<rect width="39.1667" height="24.1303" transform="matrix(1 0 -0.453124 0.891447 77.5173 63.9532)" fill="#C4C4C4"/>
<rect width="39.1667" height="24.1303" transform="matrix(1 0 -0.453124 0.891447 38.3507 25.4851)" fill="black"/>
<rect width="24.4792" height="38.6085" transform="matrix(1 0 -0.453124 0.891447 53.0382 49.5277)" fill="#201F1F"/>
<rect width="24.4792" height="38.6085" transform="matrix(1 0 -0.453124 0.891447 77.5173 25.4851)" fill="#C4C4C4"/>
<g opacity="0.4" clip-path="url(#clip0)">
<g clip-path="url(#clip1)">
<circle cx="3.94791" cy="3.90426" r="1.5" fill="#D2D6DB"/>
<circle cx="12.9479" cy="3.90426" r="1.5" fill="#D2D6DB"/>
<circle cx="21.9479" cy="3.90426" r="1.5" fill="#D2D6DB"/>
<circle cx="30.9479" cy="3.90426" r="1.5" fill="#D2D6DB"/>
<circle cx="39.9479" cy="3.90426" r="1.5" fill="#D2D6DB"/>
<circle cx="48.9479" cy="3.90426" r="1.5" fill="#D2D6DB"/>
<circle cx="57.9479" cy="3.90426" r="1.5" fill="#D2D6DB"/>
<circle cx="66.9479" cy="3.90426" r="1.5" fill="#D2D6DB"/>
<circle cx="75.9479" cy="3.90426" r="1.5" fill="#D2D6DB"/>
<circle cx="84.9479" cy="3.90426" r="1.5" fill="#D2D6DB"/>
<circle cx="93.9479" cy="3.90426" r="1.5" fill="#D2D6DB"/>
<circle cx="102.948" cy="3.90426" r="1.5" fill="#D2D6DB"/>
<circle cx="111.948" cy="3.90426" r="1.5" fill="#D2D6DB"/>
<circle cx="120.948" cy="3.90426" r="1.5" fill="#D2D6DB"/>
<circle cx="129.948" cy="3.90426" r="1.5" fill="#D2D6DB"/>
<circle cx="138.948" cy="3.90426" r="1.5" fill="#D2D6DB"/>
</g>
<g clip-path="url(#clip2)">
<circle cx="3.94791" cy="12.9043" r="1.5" fill="#D2D6DB"/>
<circle cx="12.9479" cy="12.9043" r="1.5" fill="#D2D6DB"/>
<circle cx="21.9479" cy="12.9043" r="1.5" fill="#D2D6DB"/>
<circle cx="30.9479" cy="12.9043" r="1.5" fill="#D2D6DB"/>
<circle cx="39.9479" cy="12.9043" r="1.5" fill="#D2D6DB"/>
<circle cx="48.9479" cy="12.9043" r="1.5" fill="#D2D6DB"/>
<circle cx="57.9479" cy="12.9043" r="1.5" fill="#D2D6DB"/>
<circle cx="66.9479" cy="12.9043" r="1.5" fill="#D2D6DB"/>
<circle cx="75.9479" cy="12.9043" r="1.5" fill="#D2D6DB"/>
<circle cx="84.9479" cy="12.9043" r="1.5" fill="#D2D6DB"/>
<circle cx="93.9479" cy="12.9043" r="1.5" fill="#D2D6DB"/>
<circle cx="102.948" cy="12.9043" r="1.5" fill="#D2D6DB"/>
<circle cx="111.948" cy="12.9043" r="1.5" fill="#D2D6DB"/>
<circle cx="120.948" cy="12.9043" r="1.5" fill="#D2D6DB"/>
<circle cx="129.948" cy="12.9043" r="1.5" fill="#D2D6DB"/>
<circle cx="138.948" cy="12.9043" r="1.5" fill="#D2D6DB"/>
</g>
<g clip-path="url(#clip3)">
<circle cx="3.94791" cy="21.9043" r="1.5" fill="#D2D6DB"/>
<circle cx="12.9479" cy="21.9043" r="1.5" fill="#D2D6DB"/>
<circle cx="21.9479" cy="21.9043" r="1.5" fill="#D2D6DB"/>
<circle cx="30.9479" cy="21.9043" r="1.5" fill="#D2D6DB"/>
<circle cx="39.9479" cy="21.9043" r="1.5" fill="#D2D6DB"/>
<circle cx="48.9479" cy="21.9043" r="1.5" fill="#D2D6DB"/>
<circle cx="57.9479" cy="21.9043" r="1.5" fill="#D2D6DB"/>
<circle cx="66.9479" cy="21.9043" r="1.5" fill="#D2D6DB"/>
<circle cx="75.9479" cy="21.9043" r="1.5" fill="#D2D6DB"/>
<circle cx="84.9479" cy="21.9043" r="1.5" fill="#D2D6DB"/>
<circle cx="93.9479" cy="21.9043" r="1.5" fill="#D2D6DB"/>
<circle cx="102.948" cy="21.9043" r="1.5" fill="#D2D6DB"/>
<circle cx="111.948" cy="21.9043" r="1.5" fill="#D2D6DB"/>
<circle cx="120.948" cy="21.9043" r="1.5" fill="#D2D6DB"/>
<circle cx="129.948" cy="21.9043" r="1.5" fill="#D2D6DB"/>
<circle cx="138.948" cy="21.9043" r="1.5" fill="#D2D6DB"/>
</g>
<g clip-path="url(#clip4)">
<circle cx="3.94791" cy="30.9043" r="1.5" fill="#D2D6DB"/>
<circle cx="12.9479" cy="30.9043" r="1.5" fill="#D2D6DB"/>
<circle cx="21.9479" cy="30.9043" r="1.5" fill="#D2D6DB"/>
<circle cx="30.9479" cy="30.9043" r="1.5" fill="#D2D6DB"/>
<circle cx="39.9479" cy="30.9043" r="1.5" fill="#D2D6DB"/>
<circle cx="48.9479" cy="30.9043" r="1.5" fill="#D2D6DB"/>
<circle cx="57.9479" cy="30.9043" r="1.5" fill="#D2D6DB"/>
<circle cx="66.9479" cy="30.9043" r="1.5" fill="#D2D6DB"/>
<circle cx="75.9479" cy="30.9043" r="1.5" fill="#D2D6DB"/>
<circle cx="84.9479" cy="30.9043" r="1.5" fill="#D2D6DB"/>
<circle cx="93.9479" cy="30.9043" r="1.5" fill="#D2D6DB"/>
<circle cx="102.948" cy="30.9043" r="1.5" fill="#D2D6DB"/>
<circle cx="111.948" cy="30.9043" r="1.5" fill="#D2D6DB"/>
<circle cx="120.948" cy="30.9043" r="1.5" fill="#D2D6DB"/>
<circle cx="129.948" cy="30.9043" r="1.5" fill="#D2D6DB"/>
<circle cx="138.948" cy="30.9043" r="1.5" fill="#D2D6DB"/>
</g>
<g clip-path="url(#clip5)">
<circle cx="3.94791" cy="39.9043" r="1.5" fill="#D2D6DB"/>
<circle cx="12.9479" cy="39.9043" r="1.5" fill="#D2D6DB"/>
<circle cx="21.9479" cy="39.9043" r="1.5" fill="#D2D6DB"/>
<circle cx="30.9479" cy="39.9043" r="1.5" fill="#D2D6DB"/>
<circle cx="39.9479" cy="39.9043" r="1.5" fill="#D2D6DB"/>
<circle cx="48.9479" cy="39.9043" r="1.5" fill="#D2D6DB"/>
<circle cx="57.9479" cy="39.9043" r="1.5" fill="#D2D6DB"/>
<circle cx="66.9479" cy="39.9043" r="1.5" fill="#D2D6DB"/>
<circle cx="75.9479" cy="39.9043" r="1.5" fill="#D2D6DB"/>
<circle cx="84.9479" cy="39.9043" r="1.5" fill="#D2D6DB"/>
<circle cx="93.9479" cy="39.9043" r="1.5" fill="#D2D6DB"/>
<circle cx="102.948" cy="39.9043" r="1.5" fill="#D2D6DB"/>
<circle cx="111.948" cy="39.9043" r="1.5" fill="#D2D6DB"/>
<circle cx="120.948" cy="39.9043" r="1.5" fill="#D2D6DB"/>
<circle cx="129.948" cy="39.9043" r="1.5" fill="#D2D6DB"/>
<circle cx="138.948" cy="39.9043" r="1.5" fill="#D2D6DB"/>
</g>
<g clip-path="url(#clip6)">
<circle cx="3.94791" cy="48.9043" r="1.5" fill="#D2D6DB"/>
<circle cx="12.9479" cy="48.9043" r="1.5" fill="#D2D6DB"/>
<circle cx="21.9479" cy="48.9043" r="1.5" fill="#D2D6DB"/>
<circle cx="30.9479" cy="48.9043" r="1.5" fill="#D2D6DB"/>
<circle cx="39.9479" cy="48.9043" r="1.5" fill="#D2D6DB"/>
<circle cx="48.9479" cy="48.9043" r="1.5" fill="#D2D6DB"/>
<circle cx="57.9479" cy="48.9043" r="1.5" fill="#D2D6DB"/>
<circle cx="66.9479" cy="48.9043" r="1.5" fill="#D2D6DB"/>
<circle cx="75.9479" cy="48.9043" r="1.5" fill="#D2D6DB"/>
<circle cx="84.9479" cy="48.9043" r="1.5" fill="#D2D6DB"/>
<circle cx="93.9479" cy="48.9043" r="1.5" fill="#D2D6DB"/>
<circle cx="102.948" cy="48.9043" r="1.5" fill="#D2D6DB"/>
<circle cx="111.948" cy="48.9043" r="1.5" fill="#D2D6DB"/>
<circle cx="120.948" cy="48.9043" r="1.5" fill="#D2D6DB"/>
<circle cx="129.948" cy="48.9043" r="1.5" fill="#D2D6DB"/>
<circle cx="138.948" cy="48.9043" r="1.5" fill="#D2D6DB"/>
</g>
<g clip-path="url(#clip7)">
<circle cx="3.94791" cy="57.9043" r="1.5" fill="#D2D6DB"/>
<circle cx="12.9479" cy="57.9043" r="1.5" fill="#D2D6DB"/>
<circle cx="21.9479" cy="57.9043" r="1.5" fill="#D2D6DB"/>
<circle cx="30.9479" cy="57.9043" r="1.5" fill="#D2D6DB"/>
<circle cx="39.9479" cy="57.9043" r="1.5" fill="#D2D6DB"/>
<circle cx="48.9479" cy="57.9043" r="1.5" fill="#D2D6DB"/>
<circle cx="57.9479" cy="57.9043" r="1.5" fill="#D2D6DB"/>
<circle cx="66.9479" cy="57.9043" r="1.5" fill="#D2D6DB"/>
<circle cx="75.9479" cy="57.9043" r="1.5" fill="#D2D6DB"/>
<circle cx="84.9479" cy="57.9043" r="1.5" fill="#D2D6DB"/>
<circle cx="93.9479" cy="57.9043" r="1.5" fill="#D2D6DB"/>
<circle cx="102.948" cy="57.9043" r="1.5" fill="#D2D6DB"/>
<circle cx="111.948" cy="57.9043" r="1.5" fill="#D2D6DB"/>
<circle cx="120.948" cy="57.9043" r="1.5" fill="#D2D6DB"/>
<circle cx="129.948" cy="57.9043" r="1.5" fill="#D2D6DB"/>
<circle cx="138.948" cy="57.9043" r="1.5" fill="#D2D6DB"/>
</g>
<g clip-path="url(#clip8)">
<circle cx="3.94791" cy="66.9043" r="1.5" fill="#D2D6DB"/>
<circle cx="12.9479" cy="66.9043" r="1.5" fill="#D2D6DB"/>
<circle cx="21.9479" cy="66.9043" r="1.5" fill="#D2D6DB"/>
<circle cx="30.9479" cy="66.9043" r="1.5" fill="#D2D6DB"/>
<circle cx="39.9479" cy="66.9043" r="1.5" fill="#D2D6DB"/>
<circle cx="48.9479" cy="66.9043" r="1.5" fill="#D2D6DB"/>
<circle cx="57.9479" cy="66.9043" r="1.5" fill="#D2D6DB"/>
<circle cx="66.9479" cy="66.9043" r="1.5" fill="#D2D6DB"/>
<circle cx="75.9479" cy="66.9043" r="1.5" fill="#D2D6DB"/>
<circle cx="84.9479" cy="66.9043" r="1.5" fill="#D2D6DB"/>
<circle cx="93.9479" cy="66.9043" r="1.5" fill="#D2D6DB"/>
<circle cx="102.948" cy="66.9043" r="1.5" fill="#D2D6DB"/>
<circle cx="111.948" cy="66.9043" r="1.5" fill="#D2D6DB"/>
<circle cx="120.948" cy="66.9043" r="1.5" fill="#D2D6DB"/>
<circle cx="129.948" cy="66.9043" r="1.5" fill="#D2D6DB"/>
<circle cx="138.948" cy="66.9043" r="1.5" fill="#D2D6DB"/>
</g>
<g clip-path="url(#clip9)">
<circle cx="3.94791" cy="75.9043" r="1.5" fill="#D2D6DB"/>
<circle cx="12.9479" cy="75.9043" r="1.5" fill="#D2D6DB"/>
<circle cx="21.9479" cy="75.9043" r="1.5" fill="#D2D6DB"/>
<circle cx="30.9479" cy="75.9043" r="1.5" fill="#D2D6DB"/>
<circle cx="39.9479" cy="75.9043" r="1.5" fill="#D2D6DB"/>
<circle cx="48.9479" cy="75.9043" r="1.5" fill="#D2D6DB"/>
<circle cx="57.9479" cy="75.9043" r="1.5" fill="#D2D6DB"/>
<circle cx="66.9479" cy="75.9043" r="1.5" fill="#D2D6DB"/>
<circle cx="75.9479" cy="75.9043" r="1.5" fill="#D2D6DB"/>
<circle cx="84.9479" cy="75.9043" r="1.5" fill="#D2D6DB"/>
<circle cx="93.9479" cy="75.9043" r="1.5" fill="#D2D6DB"/>
<circle cx="102.948" cy="75.9043" r="1.5" fill="#D2D6DB"/>
<circle cx="111.948" cy="75.9043" r="1.5" fill="#D2D6DB"/>
<circle cx="120.948" cy="75.9043" r="1.5" fill="#D2D6DB"/>
<circle cx="129.948" cy="75.9043" r="1.5" fill="#D2D6DB"/>
<circle cx="138.948" cy="75.9043" r="1.5" fill="#D2D6DB"/>
</g>
<g clip-path="url(#clip10)">
<circle cx="3.94791" cy="84.9043" r="1.5" fill="#D2D6DB"/>
<circle cx="12.9479" cy="84.9043" r="1.5" fill="#D2D6DB"/>
<circle cx="21.9479" cy="84.9043" r="1.5" fill="#D2D6DB"/>
<circle cx="30.9479" cy="84.9043" r="1.5" fill="#D2D6DB"/>
<circle cx="39.9479" cy="84.9043" r="1.5" fill="#D2D6DB"/>
<circle cx="48.9479" cy="84.9043" r="1.5" fill="#D2D6DB"/>
<circle cx="57.9479" cy="84.9043" r="1.5" fill="#D2D6DB"/>
<circle cx="66.9479" cy="84.9043" r="1.5" fill="#D2D6DB"/>
<circle cx="75.9479" cy="84.9043" r="1.5" fill="#D2D6DB"/>
<circle cx="84.9479" cy="84.9043" r="1.5" fill="#D2D6DB"/>
<circle cx="93.9479" cy="84.9043" r="1.5" fill="#D2D6DB"/>
<circle cx="102.948" cy="84.9043" r="1.5" fill="#D2D6DB"/>
<circle cx="111.948" cy="84.9043" r="1.5" fill="#D2D6DB"/>
<circle cx="120.948" cy="84.9043" r="1.5" fill="#D2D6DB"/>
<circle cx="129.948" cy="84.9043" r="1.5" fill="#D2D6DB"/>
<circle cx="138.948" cy="84.9043" r="1.5" fill="#D2D6DB"/>
</g>
<g clip-path="url(#clip11)">
<circle cx="3.94791" cy="93.9043" r="1.5" fill="#D2D6DB"/>
<circle cx="12.9479" cy="93.9043" r="1.5" fill="#D2D6DB"/>
<circle cx="21.9479" cy="93.9043" r="1.5" fill="#D2D6DB"/>
<circle cx="30.9479" cy="93.9043" r="1.5" fill="#D2D6DB"/>
<circle cx="39.9479" cy="93.9043" r="1.5" fill="#D2D6DB"/>
<circle cx="48.9479" cy="93.9043" r="1.5" fill="#D2D6DB"/>
<circle cx="57.9479" cy="93.9043" r="1.5" fill="#D2D6DB"/>
<circle cx="66.9479" cy="93.9043" r="1.5" fill="#D2D6DB"/>
<circle cx="75.9479" cy="93.9043" r="1.5" fill="#D2D6DB"/>
<circle cx="84.9479" cy="93.9043" r="1.5" fill="#D2D6DB"/>
<circle cx="93.9479" cy="93.9043" r="1.5" fill="#D2D6DB"/>
<circle cx="102.948" cy="93.9043" r="1.5" fill="#D2D6DB"/>
<circle cx="111.948" cy="93.9043" r="1.5" fill="#D2D6DB"/>
<circle cx="120.948" cy="93.9043" r="1.5" fill="#D2D6DB"/>
<circle cx="129.948" cy="93.9043" r="1.5" fill="#D2D6DB"/>
<circle cx="138.948" cy="93.9043" r="1.5" fill="#D2D6DB"/>
</g>
<g clip-path="url(#clip12)">
<circle cx="3.94791" cy="102.904" r="1.5" fill="#D2D6DB"/>
<circle cx="12.9479" cy="102.904" r="1.5" fill="#D2D6DB"/>
<circle cx="21.9479" cy="102.904" r="1.5" fill="#D2D6DB"/>
<circle cx="30.9479" cy="102.904" r="1.5" fill="#D2D6DB"/>
<circle cx="39.9479" cy="102.904" r="1.5" fill="#D2D6DB"/>
<circle cx="48.9479" cy="102.904" r="1.5" fill="#D2D6DB"/>
<circle cx="57.9479" cy="102.904" r="1.5" fill="#D2D6DB"/>
<circle cx="66.9479" cy="102.904" r="1.5" fill="#D2D6DB"/>
<circle cx="75.9479" cy="102.904" r="1.5" fill="#D2D6DB"/>
<circle cx="84.9479" cy="102.904" r="1.5" fill="#D2D6DB"/>
<circle cx="93.9479" cy="102.904" r="1.5" fill="#D2D6DB"/>
<circle cx="102.948" cy="102.904" r="1.5" fill="#D2D6DB"/>
<circle cx="111.948" cy="102.904" r="1.5" fill="#D2D6DB"/>
<circle cx="120.948" cy="102.904" r="1.5" fill="#D2D6DB"/>
<circle cx="129.948" cy="102.904" r="1.5" fill="#D2D6DB"/>
<circle cx="138.948" cy="102.904" r="1.5" fill="#D2D6DB"/>
</g>
<g clip-path="url(#clip13)">
<circle cx="3.94791" cy="111.904" r="1.5" fill="#D2D6DB"/>
<circle cx="12.9479" cy="111.904" r="1.5" fill="#D2D6DB"/>
<circle cx="21.9479" cy="111.904" r="1.5" fill="#D2D6DB"/>
<circle cx="30.9479" cy="111.904" r="1.5" fill="#D2D6DB"/>
<circle cx="39.9479" cy="111.904" r="1.5" fill="#D2D6DB"/>
<circle cx="48.9479" cy="111.904" r="1.5" fill="#D2D6DB"/>
<circle cx="57.9479" cy="111.904" r="1.5" fill="#D2D6DB"/>
<circle cx="66.9479" cy="111.904" r="1.5" fill="#D2D6DB"/>
<circle cx="75.9479" cy="111.904" r="1.5" fill="#D2D6DB"/>
<circle cx="84.9479" cy="111.904" r="1.5" fill="#D2D6DB"/>
<circle cx="93.9479" cy="111.904" r="1.5" fill="#D2D6DB"/>
<circle cx="102.948" cy="111.904" r="1.5" fill="#D2D6DB"/>
<circle cx="111.948" cy="111.904" r="1.5" fill="#D2D6DB"/>
<circle cx="120.948" cy="111.904" r="1.5" fill="#D2D6DB"/>
<circle cx="129.948" cy="111.904" r="1.5" fill="#D2D6DB"/>
<circle cx="138.948" cy="111.904" r="1.5" fill="#D2D6DB"/>
</g>
</g>
<defs>
<clipPath id="clip0">
<rect width="135.125" height="110.596" fill="white" transform="translate(2.44791 2.40426)"/>
</clipPath>
<clipPath id="clip1">
<rect width="276" height="9" fill="white" transform="translate(2.44791 2.40426)"/>
</clipPath>
<clipPath id="clip2">
<rect width="276" height="9" fill="white" transform="translate(2.44791 11.4043)"/>
</clipPath>
<clipPath id="clip3">
<rect width="276" height="9" fill="white" transform="translate(2.44791 20.4043)"/>
</clipPath>
<clipPath id="clip4">
<rect width="276" height="9" fill="white" transform="translate(2.44791 29.4043)"/>
</clipPath>
<clipPath id="clip5">
<rect width="276" height="9" fill="white" transform="translate(2.44791 38.4043)"/>
</clipPath>
<clipPath id="clip6">
<rect width="276" height="9" fill="white" transform="translate(2.44791 47.4043)"/>
</clipPath>
<clipPath id="clip7">
<rect width="276" height="9" fill="white" transform="translate(2.44791 56.4043)"/>
</clipPath>
<clipPath id="clip8">
<rect width="276" height="9" fill="white" transform="translate(2.44791 65.4043)"/>
</clipPath>
<clipPath id="clip9">
<rect width="276" height="9" fill="white" transform="translate(2.44791 74.4043)"/>
</clipPath>
<clipPath id="clip10">
<rect width="276" height="9" fill="white" transform="translate(2.44791 83.4043)"/>
</clipPath>
<clipPath id="clip11">
<rect width="276" height="9" fill="white" transform="translate(2.44791 92.4043)"/>
</clipPath>
<clipPath id="clip12">
<rect width="276" height="9" fill="white" transform="translate(2.44791 101.404)"/>
</clipPath>
<clipPath id="clip13">
<rect width="276" height="9" fill="white" transform="translate(2.44791 110.404)"/>
</clipPath>
</defs>
</svg>
