<svg width="479" height="83" viewBox="0 0 479 83" fill="none" xmlns="http://www.w3.org/2000/svg">
<path d="M50.6292 23H86.1535L50.6292 53H86.1535" stroke="white" stroke-width="6"/>
<path d="M100.363 23H125.23" stroke="white" stroke-width="6"/>
<path d="M100.363 51H124.046" stroke="white" stroke-width="6"/>
<path d="M100.363 37L124.046 37" stroke="white" stroke-width="6"/>
<path d="M169.596 35.4333C169.596 39.0241 167.661 42.6329 164.303 45.434C160.957 48.2259 156.429 50 151.795 50C142.444 50 135.335 42.9166 135.335 35.4333C135.335 28.1901 142.169 22 151.795 22C156.544 22 161.099 23.5648 164.409 26.0833C167.71 28.595 169.596 31.891 169.596 35.4333Z" stroke="white" stroke-width="6"/>
<line y1="-3" x2="15.499" y2="-3" transform="matrix(0.764012 0.645202 -0.764012 0.645202 156.018 43)" stroke="white" stroke-width="6"/>
<path d="M186.806 21V40.4785C186.806 47.783 190.437 50 195.884 50C201.331 50 204.963 50 204.963 50C214.041 50 214.041 40.4785 214.041 40.4785V21" stroke="white" stroke-width="6"/>
<path d="M263.775 53V25L291.602 46.4667M299.299 53V25" stroke="white" stroke-width="6"/>
<line x1="345.481" y1="24" x2="315.877" y2="24" stroke="white" stroke-width="6"/>
<line x1="312.957" y1="33" x2="312.957" y2="43" stroke="white" stroke-width="6"/>
<line y1="-3" x2="15.499" y2="-3" transform="matrix(0.764011 0.645203 -0.764011 0.645203 309.957 43)" stroke="white" stroke-width="6"/>
<line x1="321.798" y1="50" x2="345.481" y2="50" stroke="white" stroke-width="6"/>
<line x1="389.847" y1="53" x2="389.847" y2="34" stroke="white" stroke-width="6"/>
<line y1="-3" x2="11.5726" y2="-3" transform="matrix(0.764011 -0.645203 0.764011 0.645203 393.952 33.4)" stroke="white" stroke-width="6"/>
<line x1="403.504" y1="22" x2="426.003" y2="22" stroke="white" stroke-width="6"/>
<line y1="-3" x2="28.9315" y2="-3" transform="matrix(0.764012 0.645202 -0.764012 0.645202 403.899 34.3333)" stroke="white" stroke-width="6"/>
<path d="M228.251 23H253.118" stroke="white" stroke-width="6"/>
<path d="M228.251 51H251.933" stroke="white" stroke-width="6"/>
<path d="M228.251 37L251.933 37" stroke="white" stroke-width="6"/>
<path d="M354.954 22H379.821" stroke="white" stroke-width="6"/>
<path d="M354.954 50H378.637" stroke="white" stroke-width="6"/>
<path d="M354.954 36L378.637 36" stroke="white" stroke-width="6"/>
<g filter="url(#filter0_f)">
<path d="M50.6292 26H86.1535L50.6292 56H86.1535" stroke="#F4F7FF" stroke-opacity="0.54" stroke-width="6"/>
<path d="M100.363 26H125.23" stroke="#F4F7FF" stroke-opacity="0.54" stroke-width="6"/>
<path d="M100.363 54H124.046" stroke="#F4F7FF" stroke-opacity="0.54" stroke-width="6"/>
<path d="M100.363 40L124.046 40" stroke="#F4F7FF" stroke-opacity="0.54" stroke-width="6"/>
<path d="M169.596 38.4333C169.596 42.0241 167.661 45.6329 164.303 48.434C160.957 51.2259 156.429 53 151.795 53C142.444 53 135.335 45.9166 135.335 38.4333C135.335 31.1901 142.169 25 151.795 25C156.544 25 161.099 26.5648 164.409 29.0833C167.71 31.595 169.596 34.891 169.596 38.4333Z" stroke="#F4F7FF" stroke-opacity="0.54" stroke-width="6"/>
<line y1="-3" x2="15.499" y2="-3" transform="matrix(0.764012 0.645202 -0.764012 0.645202 156.018 46)" stroke="#F4F7FF" stroke-opacity="0.54" stroke-width="6"/>
<path d="M186.806 24V43.4785C186.806 50.783 190.437 53 195.884 53C201.331 53 204.963 53 204.963 53C214.041 53 214.041 43.4785 214.041 43.4785V24" stroke="#F4F7FF" stroke-opacity="0.54" stroke-width="6"/>
<path d="M263.775 56V28L291.602 49.4667M299.299 56V28" stroke="#F4F7FF" stroke-opacity="0.54" stroke-width="6"/>
<line x1="345.481" y1="27" x2="315.877" y2="27" stroke="#F4F7FF" stroke-opacity="0.54" stroke-width="6"/>
<line x1="312.957" y1="36" x2="312.957" y2="46" stroke="#F4F7FF" stroke-opacity="0.54" stroke-width="6"/>
<line y1="-3" x2="15.499" y2="-3" transform="matrix(0.764011 0.645203 -0.764011 0.645203 309.957 46)" stroke="#F4F7FF" stroke-opacity="0.54" stroke-width="6"/>
<line x1="321.798" y1="53" x2="345.481" y2="53" stroke="#F4F7FF" stroke-opacity="0.54" stroke-width="6"/>
<line x1="389.847" y1="56" x2="389.847" y2="37" stroke="#F4F7FF" stroke-opacity="0.54" stroke-width="6"/>
<line y1="-3" x2="11.5726" y2="-3" transform="matrix(0.764011 -0.645203 0.764011 0.645203 393.952 36.4)" stroke="#F4F7FF" stroke-opacity="0.54" stroke-width="6"/>
<line x1="403.504" y1="25" x2="426.003" y2="25" stroke="#F4F7FF" stroke-opacity="0.54" stroke-width="6"/>
<line y1="-3" x2="28.9315" y2="-3" transform="matrix(0.764012 0.645202 -0.764012 0.645202 403.899 37.3333)" stroke="#F4F7FF" stroke-opacity="0.54" stroke-width="6"/>
<path d="M228.251 26H253.118" stroke="#F4F7FF" stroke-opacity="0.54" stroke-width="6"/>
<path d="M228.251 54H251.933" stroke="#F4F7FF" stroke-opacity="0.54" stroke-width="6"/>
<path d="M228.251 40L251.933 40" stroke="#F4F7FF" stroke-opacity="0.54" stroke-width="6"/>
<path d="M354.954 25H379.821" stroke="#F4F7FF" stroke-opacity="0.54" stroke-width="6"/>
<path d="M354.954 53H378.637" stroke="#F4F7FF" stroke-opacity="0.54" stroke-width="6"/>
<path d="M354.954 39L378.637 39" stroke="#F4F7FF" stroke-opacity="0.54" stroke-width="6"/>
</g>
<defs>
<filter id="filter0_f" x="0" y="0" width="479" height="83" filterUnits="userSpaceOnUse" color-interpolation-filters="sRGB">
<feFlood flood-opacity="0" result="BackgroundImageFix"/>
<feBlend mode="normal" in="SourceGraphic" in2="BackgroundImageFix" result="shape"/>
<feGaussianBlur stdDeviation="4" result="effect1_foregroundBlur"/>
</filter>
</defs>
</svg>
