<svg width="19" height="20" viewBox="0 0 19 20" fill="none" xmlns="http://www.w3.org/2000/svg">
<rect x="2.81818" y="1.22223" width="16.1515" height="1.22222" fill="white"/>
<rect x="2.81818" y="1.22223" width="16.1515" height="1.22222" fill="white"/>
<rect x="2.81818" y="1.22223" width="16.1515" height="1.22222" fill="white"/>
<rect x="2.81818" y="3.66667" width="16.1515" height="1.22222" fill="white"/>
<rect x="2.81818" y="3.66667" width="16.1515" height="1.22222" fill="white"/>
<rect x="2.81818" y="3.66667" width="16.1515" height="1.22222" fill="white"/>
<rect x="2.81818" y="15.8889" width="16.1515" height="1.22222" fill="white"/>
<rect x="2.81818" y="15.8889" width="16.1515" height="1.22222" fill="white"/>
<rect x="2.81818" y="15.8889" width="16.1515" height="1.22222" fill="white"/>
<rect x="2.81818" y="18.3333" width="16.1515" height="1.22222" fill="white"/>
<rect x="2.81818" y="18.3333" width="16.1515" height="1.22222" fill="white"/>
<rect x="2.81818" y="18.3333" width="16.1515" height="1.22222" fill="white"/>
<rect x="0.333328" y="1.02924" width="0.955711" height="18.5263" fill="#FDFDFD"/>
<path d="M5.68531 1.54386C5.68531 1.1344 5.53427 0.741716 5.26543 0.452186C4.99658 0.162656 4.63195 3.09131e-08 4.25174 0C3.87154 -3.09131e-08 3.5069 0.162656 3.23806 0.452186C2.96921 0.741716 2.81818 1.1344 2.81818 1.54386L4.25174 1.54386H5.68531Z" fill="white"/>
<path d="M10.4639 1.54386C10.4639 1.1344 10.3128 0.741716 10.044 0.452186C9.77513 0.162656 9.4105 3.09131e-08 9.03029 0C8.65009 -3.09131e-08 8.28545 0.162656 8.01661 0.452186C7.74776 0.741716 7.59673 1.1344 7.59673 1.54386L9.03029 1.54386H10.4639Z" fill="white"/>
<path d="M15.2424 1.54386C15.2424 1.1344 15.0914 0.741716 14.8225 0.452186C14.5537 0.162656 14.1891 3.09131e-08 13.8089 0C13.4287 -3.09131e-08 13.064 0.162656 12.7952 0.452186C12.5263 0.741716 12.3753 1.1344 12.3753 1.54386L13.8089 1.54386H15.2424Z" fill="white"/>
</svg>
