<svg width="15" height="17" viewBox="0 0 15 17" fill="none" xmlns="http://www.w3.org/2000/svg">
<rect width="15" height="17" fill="#242424"/>
<rect x="1.49998" y="4.675" width="3" height="2.55" fill="white"/>
<rect x="1.49998" y="4.675" width="3" height="2.55" fill="white"/>
<rect x="1.49998" y="4.675" width="3" height="2.55" fill="white"/>
<rect x="6.00002" y="4.675" width="3" height="2.55" fill="white"/>
<rect x="6.00002" y="4.675" width="3" height="2.55" fill="white"/>
<rect x="6.00002" y="4.675" width="3" height="2.55" fill="white"/>
<rect x="10.5" y="4.675" width="3" height="2.55" fill="white"/>
<rect x="10.5" y="4.675" width="3" height="2.55" fill="white"/>
<rect x="10.5" y="4.675" width="3" height="2.55" fill="white"/>
<rect x="1.49998" y="8.5" width="3" height="2.55" fill="white"/>
<rect x="1.49998" y="8.5" width="3" height="2.55" fill="white"/>
<rect x="1.49998" y="8.5" width="3" height="2.55" fill="white"/>
<rect x="6.00002" y="8.5" width="3" height="2.55" fill="white"/>
<rect x="6.00002" y="8.5" width="3" height="2.55" fill="white"/>
<rect x="6.00002" y="8.5" width="3" height="2.55" fill="white"/>
<rect x="10.5" y="8.5" width="3" height="2.55" fill="white"/>
<rect x="10.5" y="8.5" width="3" height="2.55" fill="white"/>
<rect x="10.5" y="8.5" width="3" height="2.55" fill="white"/>
<rect x="1.49998" y="12.325" width="3" height="2.55" fill="white"/>
<rect x="1.49998" y="12.325" width="3" height="2.55" fill="white"/>
<rect x="1.49998" y="12.325" width="3" height="2.55" fill="white"/>
<rect x="6.00002" y="12.325" width="3" height="2.55" fill="white"/>
<rect x="6.00002" y="12.325" width="3" height="2.55" fill="white"/>
<rect x="6.00002" y="12.325" width="3" height="2.55" fill="white"/>
<rect x="10.5" y="12.325" width="3" height="2.55" fill="white"/>
<rect x="10.5" y="12.325" width="3" height="2.55" fill="white"/>
<rect x="10.5" y="12.325" width="3" height="2.55" fill="white"/>
</svg>
