<svg width="19" height="21" viewBox="0 0 19 21" fill="none" xmlns="http://www.w3.org/2000/svg">
<rect x="0.5" y="0.722229" width="17.6364" height="19.7778" fill="#242424" fill-opacity="0.02" stroke="#FCFCFC"/>
<rect x="2.36362" y="6.43611" width="2.72727" height="2.11667" fill="white"/>
<rect x="2.36362" y="6.43611" width="2.72727" height="2.11667" fill="white"/>
<rect x="2.36362" y="6.43611" width="2.72727" height="2.11667" fill="white"/>
<rect x="2.36362" y="6.43611" width="2.72727" height="2.11667" stroke="#FCFCFC"/>
<rect x="7.95456" y="6.43611" width="2.72727" height="2.11667" fill="white"/>
<rect x="7.95456" y="6.43611" width="2.72727" height="2.11667" fill="white"/>
<rect x="7.95456" y="6.43611" width="2.72727" height="2.11667" fill="white"/>
<rect x="7.95456" y="6.43611" width="2.72727" height="2.11667" stroke="#FCFCFC"/>
<rect x="13.5454" y="6.43611" width="2.72727" height="2.11667" fill="white"/>
<rect x="13.5454" y="6.43611" width="2.72727" height="2.11667" fill="white"/>
<rect x="13.5454" y="6.43611" width="2.72727" height="2.11667" fill="white"/>
<rect x="13.5454" y="6.43611" width="2.72727" height="2.11667" stroke="#FCFCFC"/>
<rect x="2.36362" y="11.1111" width="2.72727" height="2.11667" fill="white"/>
<rect x="2.36362" y="11.1111" width="2.72727" height="2.11667" fill="white"/>
<rect x="2.36362" y="11.1111" width="2.72727" height="2.11667" fill="white"/>
<rect x="2.36362" y="11.1111" width="2.72727" height="2.11667" stroke="#FCFCFC"/>
<rect x="7.95456" y="11.1111" width="2.72727" height="2.11667" fill="white"/>
<rect x="7.95456" y="11.1111" width="2.72727" height="2.11667" fill="white"/>
<rect x="7.95456" y="11.1111" width="2.72727" height="2.11667" fill="white"/>
<rect x="7.95456" y="11.1111" width="2.72727" height="2.11667" stroke="#FCFCFC"/>
<rect x="13.5454" y="11.1111" width="2.72727" height="2.11667" fill="white"/>
<rect x="13.5454" y="11.1111" width="2.72727" height="2.11667" fill="white"/>
<rect x="13.5454" y="11.1111" width="2.72727" height="2.11667" fill="white"/>
<rect x="13.5454" y="11.1111" width="2.72727" height="2.11667" stroke="#FCFCFC"/>
<rect x="2.36362" y="15.7861" width="2.72727" height="2.11667" fill="white"/>
<rect x="2.36362" y="15.7861" width="2.72727" height="2.11667" fill="white"/>
<rect x="2.36362" y="15.7861" width="2.72727" height="2.11667" fill="white"/>
<rect x="2.36362" y="15.7861" width="2.72727" height="2.11667" stroke="#FCFCFC"/>
<rect x="7.95456" y="15.7861" width="2.72727" height="2.11667" fill="white"/>
<rect x="7.95456" y="15.7861" width="2.72727" height="2.11667" fill="white"/>
<rect x="7.95456" y="15.7861" width="2.72727" height="2.11667" fill="white"/>
<rect x="7.95456" y="15.7861" width="2.72727" height="2.11667" stroke="#FCFCFC"/>
<rect x="13.5454" y="15.7861" width="2.72727" height="2.11667" fill="white"/>
<rect x="13.5454" y="15.7861" width="2.72727" height="2.11667" fill="white"/>
<rect x="13.5454" y="15.7861" width="2.72727" height="2.11667" fill="white"/>
<rect x="13.5454" y="15.7861" width="2.72727" height="2.11667" stroke="#FCFCFC"/>
</svg>
